<svg width="68" height="68" viewBox="0 0 68 68" fill="none" xmlns="http://www.w3.org/2000/svg">
<g filter="url(#filter0_d_271_5627)">
<circle cx="33.5911" cy="34.3948" r="31.5911" fill="white"/>
</g>
<g clip-path="url(#clip0_271_5627)">
<path d="M11.6596 28.0465C11.7857 27.4345 12.3821 26.9381 12.9897 26.9381H16.2927L13.5458 40.2398H10.2428C9.63474 40.2398 9.24392 39.7439 9.37048 39.1314L11.6596 28.0465ZM22.6699 28.0465C22.7965 27.4345 23.3924 26.9381 24 26.9381H27.303L24.5561 40.2398H21.2531C20.6451 40.2398 20.2542 39.7439 20.3808 39.1314L22.6699 28.0465ZM44.691 28.0465C44.8171 27.4345 45.4125 26.9381 46.0211 26.9381H49.3241L46.5772 40.2398H43.2737C42.6657 40.2398 42.2753 39.7439 42.4019 39.1314L44.691 28.0465ZM28.4042 26.9381H31.7072C32.3153 26.9381 32.7061 27.434 32.5796 28.0465L30.2904 39.1314C30.1643 39.7439 29.5684 40.2398 28.9604 40.2398H25.6573L28.4042 26.9381ZM50.4253 26.9381H53.7283C54.3364 26.9381 54.7272 27.434 54.6007 28.0465L52.311 39.1314C52.185 39.7439 51.5895 40.2398 50.9815 40.2398H47.6779L50.4253 26.9381ZM33.6807 28.0465C33.8068 27.4345 34.4022 26.9381 35.0103 26.9381H38.3138L35.5665 40.2398H32.2634C31.6554 40.2398 31.2645 39.7439 31.3916 39.1314L33.6802 28.0465H33.6807ZM39.4145 26.9381H42.718C43.3261 26.9381 43.7164 27.434 43.5899 28.0465L40.1564 44.6742C40.0293 45.2861 39.4339 45.7825 38.8259 45.7825H35.5223L39.4145 26.9381ZM15.5625 35.8059H19.9667L19.2801 39.1314C19.1535 39.7439 18.5576 40.2398 17.9501 40.2398H14.6465L15.562 35.8064L15.5625 35.8059ZM30.9338 41.3486H35.3376L34.4221 45.7825H31.1191C30.5105 45.7825 30.1202 45.2866 30.2468 44.6742L30.9338 41.3486ZM42.8882 42.3796L42.3306 45.0803C42.3064 45.1964 42.2685 45.2281 42.1531 45.2281H41.8995C41.7841 45.2281 41.7589 45.1964 41.7832 45.0803L42.3408 42.3796C42.365 42.2641 42.4029 42.2319 42.5183 42.2319H42.7719C42.8873 42.2319 42.9125 42.2641 42.8882 42.3796ZM43.6214 44.2016H43.5695C43.5142 44.2016 43.4948 44.2175 43.4837 44.2735L43.3169 45.0803C43.2926 45.1964 43.2543 45.2281 43.1394 45.2281H42.8853C42.7704 45.2281 42.7452 45.1964 42.7689 45.0803L43.3266 42.3796C43.3508 42.2641 43.3896 42.2319 43.5045 42.2319H44.0282C44.6314 42.2319 44.8598 42.4515 44.7483 42.9906L44.6552 43.4424C44.5436 43.9819 44.2246 44.2016 43.6214 44.2016ZM43.7746 42.8631L43.6291 43.5703C43.617 43.6263 43.6296 43.6422 43.6854 43.6422H43.7688C43.9627 43.6422 44.067 43.5624 44.1092 43.3585L44.1674 43.0749C44.2095 42.8716 44.1388 42.7912 43.9443 42.7912H43.8609C43.8056 42.7912 43.7862 42.8071 43.7746 42.8631ZM45.5871 43.2985L45.9993 43.7622C46.2155 44.0017 46.2456 44.1456 46.1903 44.4133L46.1758 44.4852C46.0715 44.9886 45.8232 45.2683 45.2477 45.2683C44.6726 45.2683 44.5305 45.0327 44.6634 44.389L44.6799 44.3097C44.7041 44.1937 44.7424 44.1614 44.8574 44.1614H45.1269C45.2424 44.1614 45.2676 44.1937 45.2433 44.3092L45.207 44.4852C45.174 44.6449 45.2244 44.7089 45.3631 44.7089C45.5023 44.7089 45.5779 44.6494 45.608 44.5056L45.6235 44.4292C45.6467 44.3171 45.6341 44.2616 45.5149 44.1297L45.1269 43.7022C44.9097 43.4667 44.8821 43.3303 44.9374 43.0625L44.9553 42.9752C45.0595 42.4719 45.3078 42.1917 45.8829 42.1917C46.4584 42.1917 46.6005 42.4277 46.4677 43.0709L46.4512 43.1508C46.4269 43.2668 46.3886 43.2985 46.2737 43.2985H46.0036C45.8887 43.2985 45.8635 43.2668 45.8873 43.1508L45.9236 42.9752C45.9566 42.815 45.9066 42.7516 45.7675 42.7516C45.6288 42.7516 45.5527 42.8111 45.5231 42.9549L45.509 43.0228C45.4848 43.1389 45.4974 43.1949 45.5871 43.2985ZM47.9107 42.3796C47.9349 42.2641 47.9727 42.2319 48.0882 42.2319H48.3417C48.4571 42.2319 48.4824 42.2641 48.4581 42.3796L48.0431 44.3895C47.9102 45.0327 47.6711 45.2683 47.0956 45.2683C46.5205 45.2683 46.3784 45.0327 46.5113 44.389L46.9264 42.3796C46.9506 42.2641 46.9889 42.2319 47.1038 42.2319H47.3579C47.4728 42.2319 47.498 42.2641 47.4743 42.3796L47.0393 44.4852C47.0064 44.6449 47.0607 44.7089 47.2115 44.7089C47.3579 44.7089 47.4428 44.6449 47.4757 44.4852L47.9107 42.3796ZM49.5622 44.0057C49.5637 44.0379 49.5738 44.0454 49.5937 44.0454C49.6131 44.0454 49.6272 44.0379 49.6417 44.0057L50.3274 42.336C50.3608 42.2517 50.4006 42.2319 50.5 42.2319H50.885C50.9999 42.2319 51.0251 42.2641 51.0013 42.3796L50.4437 45.0803C50.4195 45.1964 50.3807 45.2281 50.2658 45.2281H50.0835C49.9685 45.2281 49.9428 45.1964 49.9671 45.0803L50.2347 43.786C50.242 43.7503 50.2357 43.7419 50.212 43.7419C50.1959 43.7419 50.178 43.7503 50.1683 43.7781L49.6146 45.0967C49.5748 45.1924 49.5239 45.2281 49.409 45.2281H49.3013C49.1821 45.2281 49.1462 45.1924 49.1462 45.0967L49.1326 43.7776C49.1302 43.7498 49.1239 43.7419 49.104 43.7419C49.0802 43.7419 49.0705 43.7503 49.0633 43.786L48.7961 45.0803C48.7718 45.1964 48.734 45.2281 48.6186 45.2281H48.4363C48.3209 45.2281 48.2957 45.1964 48.3199 45.0803L48.8775 42.3796C48.9018 42.2641 48.9401 42.2319 49.055 42.2319H49.3847C49.5234 42.2319 49.568 42.2641 49.5671 42.4039L49.5617 44.0057H49.5622ZM57.8353 26.9381C57.8353 27.4861 57.4038 27.9299 56.8719 27.9299C56.7449 27.9295 56.6193 27.9036 56.5022 27.8535C56.385 27.8034 56.2787 27.7303 56.1892 27.6382C56.0997 27.5461 56.0289 27.4368 55.9807 27.3167C55.9325 27.1966 55.9079 27.0679 55.9084 26.9381C55.9084 26.3901 56.3399 25.9463 56.8719 25.9463C57.4038 25.9463 57.8353 26.3901 57.8353 26.9381Z" fill="#1D2633"/>
</g>
<defs>
<filter id="filter0_d_271_5627" x="0" y="0.803711" width="67.1821" height="67.1826" filterUnits="userSpaceOnUse" color-interpolation-filters="sRGB">
<feFlood flood-opacity="0" result="BackgroundImageFix"/>
<feColorMatrix in="SourceAlpha" type="matrix" values="0 0 0 0 0 0 0 0 0 0 0 0 0 0 0 0 0 0 127 0" result="hardAlpha"/>
<feOffset/>
<feGaussianBlur stdDeviation="1"/>
<feComposite in2="hardAlpha" operator="out"/>
<feColorMatrix type="matrix" values="0 0 0 0 0 0 0 0 0 0 0 0 0 0 0 0 0 0 0.3 0"/>
<feBlend mode="normal" in2="BackgroundImageFix" result="effect1_dropShadow_271_5627"/>
<feBlend mode="normal" in="SourceGraphic" in2="effect1_dropShadow_271_5627" result="shape"/>
</filter>
<clipPath id="clip0_271_5627">
<rect width="48.4886" height="19.8363" fill="white" transform="translate(9.34668 25.9463)"/>
</clipPath>
</defs>
</svg>
