<svg width="111" height="12" viewBox="0 0 111 12" fill="none" xmlns="http://www.w3.org/2000/svg">
<path d="M0.444125 11V10.258C3.66413 7.444 5.13413 5.386 5.13413 3.636C5.13413 2.46 4.53213 1.592 3.25813 1.592C2.41813 1.592 1.69013 2.11 1.11613 2.782L0.374125 2.068C1.21413 1.158 2.11013 0.555999 3.41213 0.555999C5.24613 0.555999 6.39413 1.746 6.39413 3.58C6.39413 5.638 4.78413 7.724 2.36213 10.006C2.90813 9.95 3.52412 9.908 4.04213 9.908H6.88413V11H0.444125ZM11.4858 11.196C9.52575 11.196 8.27975 9.418 8.27975 5.834C8.27975 2.278 9.52575 0.555999 11.4858 0.555999C13.4178 0.555999 14.6637 2.278 14.6637 5.834C14.6637 9.418 13.4178 11.196 11.4858 11.196ZM11.4858 10.16C12.6478 10.16 13.4318 8.858 13.4318 5.834C13.4318 2.852 12.6478 1.578 11.4858 1.578C10.3098 1.578 9.51175 2.852 9.51175 5.834C9.51175 8.858 10.3098 10.16 11.4858 10.16ZM15.9754 11V10.258C19.1954 7.444 20.6654 5.386 20.6654 3.636C20.6654 2.46 20.0634 1.592 18.7894 1.592C17.9494 1.592 17.2214 2.11 16.6474 2.782L15.9054 2.068C16.7454 1.158 17.6414 0.555999 18.9434 0.555999C20.7774 0.555999 21.9254 1.746 21.9254 3.58C21.9254 5.638 20.3154 7.724 17.8934 10.006C18.4394 9.95 19.0554 9.908 19.5734 9.908H22.4154V11H15.9754ZM27.871 11V4.014C27.871 3.496 27.913 2.67 27.955 2.138H27.885C27.633 2.642 27.353 3.16 27.073 3.664L24.735 7.164H30.447V8.172H23.391V7.332L27.661 0.737999H29.075V11H27.871ZM32.8226 11.196C32.3186 11.196 31.9126 10.79 31.9126 10.216C31.9126 9.628 32.3186 9.236 32.8226 9.236C33.3406 9.236 33.7606 9.628 33.7606 10.216C33.7606 10.79 33.3406 11.196 32.8226 11.196ZM38.6791 11.196C36.7191 11.196 35.4731 9.418 35.4731 5.834C35.4731 2.278 36.7191 0.555999 38.6791 0.555999C40.6111 0.555999 41.8571 2.278 41.8571 5.834C41.8571 9.418 40.6111 11.196 38.6791 11.196ZM38.6791 10.16C39.8411 10.16 40.6251 8.858 40.6251 5.834C40.6251 2.852 39.8411 1.578 38.6791 1.578C37.5031 1.578 36.7051 2.852 36.7051 5.834C36.7051 8.858 37.5031 10.16 38.6791 10.16ZM43.1687 11V10.258C46.3887 7.444 47.8587 5.386 47.8587 3.636C47.8587 2.46 47.2567 1.592 45.9827 1.592C45.1427 1.592 44.4147 2.11 43.8407 2.782L43.0987 2.068C43.9387 1.158 44.8347 0.555999 46.1367 0.555999C47.9707 0.555999 49.1187 1.746 49.1187 3.58C49.1187 5.638 47.5087 7.724 45.0867 10.006C45.6327 9.95 46.2487 9.908 46.7667 9.908H49.6087V11H43.1687ZM52.2504 11.196C51.7464 11.196 51.3404 10.79 51.3404 10.216C51.3404 9.628 51.7464 9.236 52.2504 9.236C52.7684 9.236 53.1884 9.628 53.1884 10.216C53.1884 10.79 52.7684 11.196 52.2504 11.196ZM55.4468 11V9.936H57.7288V2.292H55.8948V1.466C56.8188 1.312 57.4768 1.074 58.0228 0.737999H59.0028V9.936H61.0748V11H55.4468ZM66.1945 11.196C64.2205 11.196 62.7505 9.502 62.7505 6.114C62.7505 2.096 64.5565 0.555999 66.5445 0.555999C67.6085 0.555999 68.3925 1.004 68.9525 1.606L68.2385 2.39C67.8465 1.914 67.2165 1.62 66.6005 1.62C65.1585 1.62 63.9545 2.754 63.9545 6.114C63.9545 8.746 64.7525 10.188 66.1945 10.188C67.1745 10.188 67.9305 9.25 67.9305 7.864C67.9305 6.464 67.3145 5.582 66.0825 5.582C65.4245 5.582 64.5985 5.974 63.9125 6.996L63.8705 5.974C64.5005 5.148 65.4525 4.644 66.2785 4.644C68.0145 4.644 69.1345 5.708 69.1345 7.864C69.1345 9.852 67.7765 11.196 66.1945 11.196ZM77.2398 11V9.936H79.5218V2.292H77.6878V1.466C78.6118 1.312 79.2698 1.074 79.8158 0.737999H80.7958V9.936H82.8678V11H77.2398ZM86.5314 11C86.7134 7.122 87.4134 4.63 89.4294 1.83H84.4594V0.737999H90.8714V1.508C88.4634 4.602 88.0294 6.996 87.8614 11H86.5314ZM93.4711 5.54C92.9671 5.54 92.5611 5.148 92.5611 4.574C92.5611 3.986 92.9671 3.594 93.4711 3.594C93.9891 3.594 94.4091 3.986 94.4091 4.574C94.4091 5.148 93.9891 5.54 93.4711 5.54ZM93.4711 11.196C92.9671 11.196 92.5611 10.79 92.5611 10.216C92.5611 9.628 92.9671 9.236 93.4711 9.236C93.9891 9.236 94.4091 9.628 94.4091 10.216C94.4091 10.79 93.9891 11.196 93.4711 11.196ZM99.3275 11.196C97.3675 11.196 96.1215 9.418 96.1215 5.834C96.1215 2.278 97.3675 0.555999 99.3275 0.555999C101.26 0.555999 102.506 2.278 102.506 5.834C102.506 9.418 101.26 11.196 99.3275 11.196ZM99.3275 10.16C100.49 10.16 101.274 8.858 101.274 5.834C101.274 2.852 100.49 1.578 99.3275 1.578C98.1515 1.578 97.3535 2.852 97.3535 5.834C97.3535 8.858 98.1515 10.16 99.3275 10.16ZM107.093 11.196C105.133 11.196 103.887 9.418 103.887 5.834C103.887 2.278 105.133 0.555999 107.093 0.555999C109.025 0.555999 110.271 2.278 110.271 5.834C110.271 9.418 109.025 11.196 107.093 11.196ZM107.093 10.16C108.255 10.16 109.039 8.858 109.039 5.834C109.039 2.852 108.255 1.578 107.093 1.578C105.917 1.578 105.119 2.852 105.119 5.834C105.119 8.858 105.917 10.16 107.093 10.16Z" fill="#8A8A8A"/>
</svg>
