<svg width="25" height="25" viewBox="0 0 25 25" fill="none" xmlns="http://www.w3.org/2000/svg">
<path d="M12.4381 22.1999L12.7765 22.5133L13.1162 22.2012L14.5662 20.8687L14.5672 20.8677L14.6315 20.8083C17.1684 18.4633 19.3144 16.4797 20.8238 14.6014C22.352 12.6997 23.2778 10.8463 23.2778 8.76239C23.2778 5.36143 20.642 2.66797 17.2778 2.66797C15.578 2.66797 13.9477 3.38814 12.7778 4.55476C11.6079 3.38814 9.97769 2.66797 8.27783 2.66797C4.9137 2.66797 2.27783 5.36143 2.27783 8.76239C2.27783 10.8463 3.20368 12.6997 4.73193 14.6002C6.2466 16.4838 8.4021 18.472 10.9504 20.8225L10.9881 20.8572L10.9888 20.8579L12.4381 22.1999Z" fill="white"/>
<path d="M12.4381 22.1999L12.7765 22.5133L13.1162 22.2012L14.5662 20.8687L14.5672 20.8677L14.6315 20.8083C17.1684 18.4633 19.3144 16.4797 20.8238 14.6014C22.352 12.6997 23.2778 10.8463 23.2778 8.76239C23.2778 5.36143 20.642 2.66797 17.2778 2.66797C15.578 2.66797 13.9477 3.38814 12.7778 4.55476C11.6079 3.38814 9.97769 2.66797 8.27783 2.66797C4.9137 2.66797 2.27783 5.36143 2.27783 8.76239C2.27783 10.8463 3.20368 12.6997 4.73193 14.6002C6.2466 16.4838 8.4021 18.472 10.9504 20.8225L10.9881 20.8572L10.9888 20.8579L12.4381 22.1999Z" fill="#FF8282"/>
<path d="M12.4381 22.1999L12.7765 22.5133L13.1162 22.2012L14.5662 20.8687L14.5672 20.8677L14.6315 20.8083C17.1684 18.4633 19.3144 16.4797 20.8238 14.6014C22.352 12.6997 23.2778 10.8463 23.2778 8.76239C23.2778 5.36143 20.642 2.66797 17.2778 2.66797C15.578 2.66797 13.9477 3.38814 12.7778 4.55476C11.6079 3.38814 9.97769 2.66797 8.27783 2.66797C4.9137 2.66797 2.27783 5.36143 2.27783 8.76239C2.27783 10.8463 3.20368 12.6997 4.73193 14.6002C6.2466 16.4838 8.4021 18.472 10.9504 20.8225L10.9881 20.8572L10.9888 20.8579L12.4381 22.1999Z" stroke="white"/>
</svg>
