<svg width="24" height="25" viewBox="0 0 24 25" fill="none" xmlns="http://www.w3.org/2000/svg">
<path d="M11.6603 22.0944L11.9987 22.4078L12.3383 22.0957L13.7883 20.7632L13.7894 20.7622L13.8537 20.7028C16.3906 18.3578 18.5366 16.3743 20.046 14.4959C21.5742 12.5942 22.5 10.7408 22.5 8.65693C22.5 5.25596 19.8641 2.5625 16.5 2.5625C14.8001 2.5625 13.1699 3.28267 12 4.44929C10.8301 3.28267 9.19986 2.5625 7.5 2.5625C4.13587 2.5625 1.5 5.25596 1.5 8.65693C1.5 10.7409 2.42585 12.5942 3.9541 14.4947C5.46877 16.3784 7.62427 18.3665 10.1726 20.717L10.2103 20.7517L10.211 20.7524L11.6603 22.0944Z" fill="white"/>
<path d="M11.6603 22.0944L11.9987 22.4078L12.3383 22.0957L13.7883 20.7632L13.7894 20.7622L13.8537 20.7028C16.3906 18.3578 18.5366 16.3743 20.046 14.4959C21.5742 12.5942 22.5 10.7408 22.5 8.65693C22.5 5.25596 19.8641 2.5625 16.5 2.5625C14.8001 2.5625 13.1699 3.28267 12 4.44929C10.8301 3.28267 9.19986 2.5625 7.5 2.5625C4.13587 2.5625 1.5 5.25596 1.5 8.65693C1.5 10.7409 2.42585 12.5942 3.9541 14.4947C5.46877 16.3784 7.62427 18.3665 10.1726 20.717L10.2103 20.7517L10.211 20.7524L11.6603 22.0944Z" fill="white"/>
<path d="M11.6603 22.0944L11.9987 22.4078L12.3383 22.0957L13.7883 20.7632L13.7894 20.7622L13.8537 20.7028C16.3906 18.3578 18.5366 16.3743 20.046 14.4959C21.5742 12.5942 22.5 10.7408 22.5 8.65693C22.5 5.25596 19.8641 2.5625 16.5 2.5625C14.8001 2.5625 13.1699 3.28267 12 4.44929C10.8301 3.28267 9.19986 2.5625 7.5 2.5625C4.13587 2.5625 1.5 5.25596 1.5 8.65693C1.5 10.7409 2.42585 12.5942 3.9541 14.4947C5.46877 16.3784 7.62427 18.3665 10.1726 20.717L10.2103 20.7517L10.211 20.7524L11.6603 22.0944Z" stroke="white"/>
</svg>
