<svg width="37" height="27" viewBox="0 0 37 27" fill="none" xmlns="http://www.w3.org/2000/svg">
<path d="M23.375 16.75C19.0362 16.75 10.375 18.9112 10.375 23.25V26.5H36.375V23.25C36.375 18.9112 27.7138 16.75 23.375 16.75ZM8.75 10.25V5.375H5.5V10.25H0.625V13.5H5.5V18.375H8.75V13.5H13.625V10.25M23.375 13.5C25.0989 13.5 26.7522 12.8152 27.9712 11.5962C29.1902 10.3772 29.875 8.72391 29.875 7C29.875 5.27609 29.1902 3.62279 27.9712 2.40381C26.7522 1.18482 25.0989 0.5 23.375 0.5C21.6511 0.5 19.9978 1.18482 18.7788 2.40381C17.5598 3.62279 16.875 5.27609 16.875 7C16.875 8.72391 17.5598 10.3772 18.7788 11.5962C19.9978 12.8152 21.6511 13.5 23.375 13.5Z" fill="#898989"/>
</svg>
