<svg width="48" height="48" viewBox="0 0 48 48" fill="none" xmlns="http://www.w3.org/2000/svg">
<path d="M43.606 12.6427L31.306 9.08937H31.1625C31.0671 9.08105 30.9709 9.08105 30.8755 9.08937H30.404H30.1375H29.994L18.35 12.5539L6.70601 9.08937C6.39772 9.00126 6.06969 8.97787 5.74893 9.02111C5.42817 9.06436 5.12385 9.173 4.86101 9.3381C4.59606 9.50158 4.3798 9.71736 4.23009 9.96759C4.08038 10.2178 4.00151 10.4953 4.00001 10.7772V35.6508C3.9989 36.0232 4.13289 36.3866 4.38303 36.6895C4.63318 36.9923 4.98683 37.2194 5.39401 37.3386L17.694 40.892C18.107 41.0087 18.552 41.0087 18.965 40.892L30.65 37.5163L42.294 40.9808C42.5117 41.0064 42.7323 41.0064 42.95 40.9808C43.3786 40.986 43.797 40.8672 44.139 40.6432C44.4039 40.4797 44.6202 40.264 44.7699 40.0137C44.9196 39.7635 44.9985 39.486 45 39.2041V14.3306C45.0011 13.9581 44.8671 13.5948 44.617 13.2919C44.3668 12.989 44.0132 12.7619 43.606 12.6427ZM16.3 36.7345L8.10001 34.3715V13.2468L16.3 15.6098V36.7345ZM28.6 34.3715L20.4 36.7345V15.6098L28.6 13.2468V34.3715ZM40.9 36.7345L32.7 34.3715V13.2468L40.9 15.6098V36.7345Z" fill="#FF9D46"/>
</svg>
