<svg width="146" height="49" viewBox="0 0 146 49" fill="none" xmlns="http://www.w3.org/2000/svg">
<g clip-path="url(#clip0_635_56)">
<path fill-rule="evenodd" clip-rule="evenodd" d="M136.994 0H8.91679C1.27301 0 0 2.65177 0 8.95835V40.0979C0 46.4001 2.61793 49 8.90816 49H136.995C143.29 49 146 46.3958 146 40.0892V8.95835C146 2.65177 143.289 0 136.994 0Z" fill="white"/>
<path fill-rule="evenodd" clip-rule="evenodd" d="M38.0651 30.5009C37.3301 32.1338 36.9777 32.863 36.0312 34.3056C34.7093 36.3204 32.8479 38.8295 30.5407 38.8511C28.491 38.8698 27.9645 37.5137 25.1826 37.5295C22.4007 37.5454 21.8195 38.8742 19.7683 38.8554C17.4611 38.8338 15.6976 36.5683 14.3757 34.5535C10.6818 28.9185 10.2949 22.3064 12.5734 18.7914C14.193 16.2938 16.7462 14.831 19.1484 14.831C21.5937 14.831 23.1314 16.1742 25.1524 16.1742C27.1129 16.1742 28.3083 14.8281 31.1362 14.8281C33.2737 14.8281 35.5378 15.994 37.1503 18.0102C31.8655 20.9142 32.7242 28.4789 38.0651 30.5009Z" fill="#595757"/>
<path fill-rule="evenodd" clip-rule="evenodd" d="M28.9914 12.5794C30.0184 11.2593 30.798 9.393 30.5161 7.48633C28.8389 7.60162 26.8754 8.67096 25.729 10.066C24.689 11.3314 23.8303 13.2092 24.1654 15.0338C25.9966 15.09 27.891 13.9947 28.9914 12.5794Z" fill="#595757"/>
<path d="M46.2014 11.332V19.4555H49.0614C51.4776 19.4555 52.8991 17.9468 52.8991 15.3797C52.8991 12.8182 51.4719 11.332 49.0614 11.332H46.2014ZM47.46 12.4185H48.9435C50.6572 12.4185 51.6123 13.4769 51.6123 15.391C51.6123 17.3106 50.6628 18.3634 48.9435 18.3634H47.46V12.4185Z" fill="#595757"/>
<path d="M56.4952 19.5676C58.1865 19.5676 59.299 18.4023 59.299 16.4939C59.299 14.5911 58.1809 13.4258 56.4952 13.4258C54.8095 13.4258 53.6914 14.5911 53.6914 16.4939C53.6914 18.4023 54.8039 19.5676 56.4952 19.5676ZM56.4952 18.5656C55.5455 18.5656 54.9274 17.8113 54.9274 16.4939C54.9274 15.1823 55.5455 14.4278 56.4952 14.4278C57.4447 14.4278 58.0628 15.1823 58.0628 16.4939C58.0628 17.8113 57.4503 18.5656 56.4952 18.5656Z" fill="#595757"/>
<path d="M68.0139 13.5332H66.8115L65.7327 18.1945H65.7045L64.4684 13.5332H63.2996L62.0691 18.1945H62.0467L60.9679 13.5332H59.7542L61.378 19.4555H62.631L63.8616 15.0195H63.8896L65.1314 19.4555H66.3956L68.0139 13.5332Z" fill="#595757"/>
<path d="M68.7556 19.4553H69.9694V16.0044C69.9694 15.0868 70.52 14.4788 71.374 14.4788C72.2169 14.4788 72.6326 14.9685 72.6326 15.858V19.4553H73.8519V15.6215C73.8519 14.2648 73.1047 13.4316 71.801 13.4316C70.8908 13.4316 70.2615 13.8482 69.9412 14.5237H69.9131V13.533H68.7556V19.4553Z" fill="#595757"/>
<path d="M75.071 19.4555H76.2848V11.332H75.071V19.4555Z" fill="#595757"/>
<path d="M80.0718 19.5676C81.7631 19.5676 82.8756 18.4023 82.8756 16.4939C82.8756 14.5911 81.7575 13.4258 80.0718 13.4258C78.3862 13.4258 77.2681 14.5911 77.2681 16.4939C77.2681 18.4023 78.3805 19.5676 80.0718 19.5676ZM80.0718 18.5656C79.1222 18.5656 78.5042 17.8113 78.5042 16.4939C78.5042 15.1823 79.1222 14.4278 80.0718 14.4278C81.0215 14.4278 81.6394 15.1823 81.6394 16.4939C81.6394 17.8113 81.0271 18.5656 80.0718 18.5656Z" fill="#595757"/>
<path d="M85.8819 18.5937C85.23 18.5937 84.8031 18.256 84.8031 17.7381C84.8031 17.2313 85.2132 16.9105 85.938 16.8598L87.3933 16.7697V17.237C87.3933 18.0083 86.7303 18.5937 85.8819 18.5937ZM85.5447 19.5564C86.3202 19.5564 87.0675 19.1397 87.4102 18.4811H87.4383V19.4551H88.6014V15.3737C88.6014 14.1858 87.6855 13.4258 86.2527 13.4258C84.7919 13.4258 83.8815 14.2139 83.8142 15.2836H84.9603C85.0672 14.7544 85.5055 14.4166 86.2077 14.4166C86.9495 14.4166 87.3933 14.8106 87.3933 15.4694V15.9253L85.775 16.021C84.3704 16.0999 83.5781 16.736 83.5781 17.7718C83.5781 18.8358 84.3872 19.5564 85.5447 19.5564Z" fill="#595757"/>
<path d="M92.0007 19.5569C92.8603 19.5569 93.5346 19.1233 93.883 18.4479H93.9054V19.4555H95.0854V11.332H93.866V14.5184H93.8436C93.5122 13.8653 92.8378 13.4375 91.9895 13.4375C90.506 13.4375 89.5171 14.6253 89.5171 16.4944C89.5171 18.3634 90.506 19.5569 92.0007 19.5569ZM92.3209 14.4622C93.2537 14.4622 93.8774 15.2672 93.8774 16.4944C93.8774 17.7329 93.2537 18.5267 92.3209 18.5267C91.3601 18.5267 90.7589 17.7441 90.7589 16.4944C90.7589 15.2502 91.3601 14.4622 92.3209 14.4622Z" fill="#595757"/>
<path d="M101.21 19.5676C102.901 19.5676 104.014 18.4023 104.014 16.4939C104.014 14.5911 102.896 13.4258 101.21 13.4258C99.5242 13.4258 98.4061 14.5911 98.4061 16.4939C98.4061 18.4023 99.5186 19.5676 101.21 19.5676ZM101.21 18.5656C100.26 18.5656 99.6423 17.8113 99.6423 16.4939C99.6423 15.1823 100.26 14.4278 101.21 14.4278C102.16 14.4278 102.778 15.1823 102.778 16.4939C102.778 17.8113 102.165 18.5656 101.21 18.5656Z" fill="#595757"/>
<path d="M104.952 19.4553H106.166V16.0044C106.166 15.0868 106.716 14.4788 107.571 14.4788C108.413 14.4788 108.829 14.9685 108.829 15.858V19.4553H110.048V15.6215C110.048 14.2648 109.301 13.4316 107.998 13.4316C107.087 13.4316 106.458 13.8482 106.138 14.5237H106.11V13.533H104.952V19.4553Z" fill="#595757"/>
<path d="M113.914 12.1309V13.5326H113.054V14.4953H113.914V17.8956C113.914 19.0383 114.381 19.4943 115.577 19.4943C115.847 19.4943 116.117 19.4718 116.252 19.4381V18.4754C116.173 18.4923 115.976 18.5035 115.853 18.5035C115.358 18.5035 115.133 18.2728 115.133 17.7604V14.4953H116.257V13.5326H115.133V12.1309H113.914Z" fill="#595757"/>
<path d="M117.302 19.4555H118.516V16.0327C118.516 15.0983 119.067 14.479 119.966 14.479C120.82 14.479 121.258 15.0026 121.258 15.8751V19.4555H122.477V15.6387C122.477 14.2988 121.702 13.4319 120.404 13.4319C119.505 13.4319 118.859 13.8316 118.533 14.524H118.505V11.332H117.302V19.4555Z" fill="#595757"/>
<path d="M126.124 14.4053C126.972 14.4053 127.545 15.0415 127.574 15.9478H124.618C124.68 15.0527 125.276 14.4053 126.124 14.4053ZM127.568 17.7156C127.405 18.2334 126.894 18.5824 126.203 18.5824C125.23 18.5824 124.612 17.9013 124.612 16.871V16.7978H128.787V16.3813C128.787 14.5855 127.765 13.4258 126.124 13.4258C124.455 13.4258 123.388 14.6643 123.388 16.522C123.388 18.3911 124.438 19.5676 126.175 19.5676C127.529 19.5676 128.551 18.7965 128.72 17.7156H127.568Z" fill="#595757"/>
<path d="M55.2955 38.545H57.7186L52.3919 23.8789H49.9177L44.5911 38.545H46.9732L48.3228 34.5812H53.946L55.2955 38.545ZM51.1037 26.3181H51.1651L53.3631 32.7518H48.9056L51.1037 26.3181Z" fill="#595757"/>
<path d="M64.6603 27.6797C63.1063 27.6797 61.8692 28.4624 61.2352 29.6921H61.1944V27.8525H59.0576V42.0817H61.266V36.7863H61.3171C61.9306 37.9756 63.1574 38.7276 64.7013 38.7276C67.4003 38.7276 69.1896 36.5831 69.1896 33.1987C69.1896 29.8141 67.3901 27.6797 64.6603 27.6797ZM64.0776 36.8676C62.3804 36.8676 61.2558 35.4244 61.2558 33.1987C61.2558 30.9931 62.3906 29.5296 64.0776 29.5296C65.8258 29.5296 66.9198 30.9625 66.9198 33.1987C66.9198 35.4447 65.8258 36.8676 64.0776 36.8676Z" fill="#595757"/>
<path d="M76.4786 27.6797C74.9247 27.6797 73.6875 28.4624 73.0536 29.6921H73.0128V27.8525H70.876V42.0817H73.0844V36.7863H73.1355C73.7489 37.9756 74.9758 38.7276 76.5196 38.7276C79.2187 38.7276 81.0079 36.5831 81.0079 33.1987C81.0079 29.8141 79.2085 27.6797 76.4786 27.6797ZM75.8959 36.8676C74.1987 36.8676 73.0742 35.4244 73.0742 33.1987C73.0742 30.9931 74.209 29.5296 75.8959 29.5296C77.6442 29.5296 78.7381 30.9625 78.7381 33.1987C78.7381 35.4447 77.6442 36.8676 75.8959 36.8676Z" fill="#595757"/>
<path d="M86.5381 34.459C86.6812 37.1118 88.8895 38.7887 92.1612 38.7887C95.6578 38.7887 97.8559 37.0711 97.8559 34.327C97.8559 32.1824 96.5984 30.9729 93.5721 30.2614L91.9466 29.8651C90.0448 29.3976 89.2678 28.7877 89.2678 27.7511C89.2678 26.4501 90.4845 25.5557 92.2634 25.5557C94.0423 25.5557 95.2591 26.4399 95.392 27.9035H97.6207C97.5492 25.3728 95.4124 23.6348 92.2941 23.6348C89.1451 23.6348 86.9266 25.3728 86.9266 27.9035C86.9266 29.9464 88.1841 31.2067 90.8935 31.8571L92.8053 32.3145C94.7173 32.7821 95.5249 33.463 95.5249 34.6014C95.5249 35.9124 94.1856 36.8678 92.3247 36.8678C90.3823 36.8678 88.9611 35.9124 88.7976 34.459H86.5381Z" fill="#595757"/>
<path d="M100.268 25.3223V27.853H98.7039V29.591H100.268V35.7299C100.268 37.7931 101.117 38.6164 103.294 38.6164C103.785 38.6164 104.276 38.5756 104.521 38.5147V36.7767C104.378 36.8071 104.02 36.8275 103.795 36.8275C102.896 36.8275 102.487 36.4108 102.487 35.4859V29.591H104.531V27.853H102.487V25.3223H100.268Z" fill="#595757"/>
<path d="M110.686 38.7487C113.763 38.7487 115.788 36.6449 115.788 33.1995C115.788 29.7641 113.753 27.6602 110.686 27.6602C107.619 27.6602 105.584 29.7641 105.584 33.1995C105.584 36.6449 107.608 38.7487 110.686 38.7487ZM110.686 36.9396C108.958 36.9396 107.833 35.5777 107.833 33.1995C107.833 30.8313 108.958 29.4693 110.686 29.4693C112.414 29.4693 113.538 30.8313 113.538 33.1995C113.538 35.5777 112.424 36.9396 110.686 36.9396Z" fill="#595757"/>
<path d="M117.474 38.5447H119.682V32.1416C119.682 30.6272 120.562 29.6819 121.983 29.6819C122.412 29.6819 122.801 29.7328 122.975 29.804V27.7611C122.811 27.7306 122.535 27.6797 122.218 27.6797C120.95 27.6797 119.989 28.4218 119.631 29.6718H119.58V27.8525H117.474V38.5447Z" fill="#595757"/>
<path d="M128.352 29.4286C129.896 29.4286 130.939 30.5771 130.99 32.2136H125.612C125.724 30.5976 126.808 29.4286 128.352 29.4286ZM130.979 35.4049C130.683 36.3399 129.753 36.9702 128.495 36.9702C126.726 36.9702 125.602 35.7403 125.602 33.8804V33.7483H133.198V32.9961C133.198 29.7539 131.337 27.6602 128.352 27.6602C125.315 27.6602 123.373 29.8961 123.373 33.2502C123.373 36.6246 125.285 38.7487 128.444 38.7487C130.908 38.7487 132.769 37.3564 133.075 35.4049H130.979Z" fill="#595757"/>
</g>
<defs>
<clipPath id="clip0_635_56">
<rect width="146" height="49" fill="white"/>
</clipPath>
</defs>
</svg>
