<svg width="751" height="42" viewBox="0 0 751 42" fill="none" xmlns="http://www.w3.org/2000/svg">
<rect x="0.828125" width="750" height="42" rx="10" fill="#EFEFEF"/>
<path d="M317.987 26.426H322.971C324.455 26.426 324.679 26.006 324.861 23.85C325.225 24.074 325.813 24.298 326.191 24.368C325.911 26.958 325.393 27.714 322.985 27.714H318.029C315.607 27.714 314.851 27.266 314.851 25.362V18.614H316.195V20.728H323.055V17.368H314.207V16.094H324.399V22.674H323.055V22.002H316.195V25.376C316.195 26.244 316.475 26.426 317.987 26.426ZM340.079 15.912V17.074H332.645V15.912H340.079ZM340.037 22.226L339.001 22.716C338.665 21.988 337.951 20.91 337.153 19.972C337.741 19.132 338.357 18.096 338.693 17.424L339.827 17.718C339.407 18.432 338.875 19.272 338.413 19.944C339.043 20.714 339.715 21.624 340.037 22.226ZM336.313 17.438L337.433 17.718C337.041 18.432 336.523 19.272 336.047 19.93C336.663 20.7 337.293 21.61 337.587 22.212L336.537 22.674C336.229 21.946 335.571 20.896 334.815 19.958C335.389 19.132 335.991 18.096 336.313 17.438ZM335.207 22.268L334.129 22.716C333.849 21.988 333.205 20.924 332.491 19.972C333.037 19.132 333.625 18.096 333.933 17.424L335.067 17.704C334.675 18.418 334.171 19.272 333.709 19.944C334.311 20.728 334.913 21.666 335.207 22.268ZM332.645 23.402L331.609 23.752C331.581 23.556 331.525 23.318 331.469 23.052C328.585 23.486 328.123 23.598 327.843 23.738C327.773 23.5 327.591 22.884 327.451 22.562C327.759 22.492 328.067 22.156 328.487 21.652C328.683 21.428 329.075 20.924 329.509 20.252C328.263 20.406 327.941 20.49 327.745 20.574C327.675 20.336 327.507 19.776 327.367 19.454C327.619 19.398 327.843 19.118 328.137 18.698C328.431 18.292 329.369 16.724 329.887 15.226L331.049 15.702C330.489 16.934 329.747 18.208 329.005 19.244L330.237 19.146C330.587 18.572 330.937 17.942 331.217 17.326L332.309 17.97C331.469 19.496 330.405 21.05 329.327 22.296L331.203 22.058C331.077 21.638 330.937 21.204 330.783 20.812L331.749 20.546C332.113 21.456 332.491 22.674 332.645 23.402ZM328.011 24.27L329.089 24.438C328.949 25.698 328.711 27.056 328.403 27.938C328.179 27.798 327.661 27.63 327.381 27.546C327.703 26.706 327.899 25.432 328.011 24.27ZM329.495 24.424L330.475 24.256C330.643 25.166 330.811 26.356 330.853 27.14L329.831 27.35C329.803 26.552 329.649 25.348 329.495 24.424ZM330.895 24.144L331.791 23.85C332.057 24.564 332.351 25.502 332.477 26.104L331.539 26.426C331.427 25.81 331.147 24.872 330.895 24.144ZM336.943 26.594H340.219V27.784H332.267V26.594H335.641V24.242H332.981V23.08H339.659V24.242H336.943V26.594ZM350.901 17.27L349.627 17.634C349.515 17.046 349.221 16.122 348.969 15.422L350.201 15.114C350.467 15.8 350.761 16.668 350.901 17.27ZM354.009 17.704V18.922H346.449V17.704H354.009ZM349.515 25.39L348.255 25.754C348.143 24.312 347.779 21.806 347.359 19.902L348.521 19.636C348.955 21.526 349.361 23.976 349.515 25.39ZM345.903 21.316L346.057 22.506C345.553 22.646 345.049 22.8 344.559 22.94V26.678C344.559 27.322 344.419 27.644 344.041 27.84C343.649 28.05 343.103 28.092 342.249 28.078C342.193 27.77 342.025 27.238 341.871 26.902C342.389 26.93 342.907 26.93 343.047 26.916C343.229 26.916 343.285 26.86 343.285 26.664V23.304L341.815 23.724L341.465 22.464C341.983 22.352 342.613 22.198 343.285 22.016V19.202H341.633V17.998H343.285V15.268H344.559V17.998H345.945V19.202H344.559V21.68L345.903 21.316ZM351.699 26.286H354.345V27.518H345.805V26.286H350.509C350.999 24.438 351.503 21.61 351.727 19.552L353.099 19.776C352.735 21.904 352.203 24.494 351.699 26.286ZM360.071 23.598V25.53C360.995 25.376 361.933 25.208 362.871 25.04L362.941 26.174C360.477 26.65 357.845 27.14 355.997 27.49L355.717 26.258C356.557 26.146 357.663 25.964 358.839 25.754V23.598H356.193V22.464H358.839V21.078H360.071V22.464H362.717V23.598H360.071ZM355.843 17.256V16.122H363.025V17.256H359.287C358.881 18.068 358.377 18.894 357.859 19.58L360.953 19.342C360.645 18.894 360.337 18.446 360.029 18.068L360.967 17.522C361.723 18.432 362.605 19.692 363.011 20.504L362.003 21.148C361.891 20.924 361.765 20.644 361.597 20.378C357.467 20.728 356.935 20.798 356.557 20.952C356.473 20.686 356.291 20.084 356.137 19.762C356.361 19.706 356.571 19.468 356.809 19.132C356.977 18.894 357.453 18.138 357.845 17.256H355.843ZM364.901 16.486V24.886H363.683V16.486H364.901ZM366.385 15.45H367.659V26.286C367.659 27.028 367.491 27.406 367.043 27.602C366.567 27.812 365.811 27.84 364.761 27.84C364.705 27.504 364.495 26.916 364.299 26.58C365.083 26.608 365.853 26.608 366.077 26.594C366.315 26.594 366.385 26.524 366.385 26.286V15.45ZM372.391 16.682V20.084H371.145V15.73H380.595V20.084H379.279V16.682H372.391ZM378.747 17.382V18.208H372.937V17.382H378.747ZM372.937 19.762V18.936H378.705V19.762H372.937ZM379.993 23.332H377.487C377.781 23.99 378.187 24.606 378.705 25.124C379.223 24.606 379.671 24.004 379.993 23.332ZM372.013 24.998V25.964C372.713 25.894 373.455 25.824 374.211 25.754V24.998H372.013ZM374.211 21.596H372.013V22.352H374.211V21.596ZM372.013 23.276V24.06H374.211V23.276H372.013ZM380.777 22.282L381.575 22.59C381.169 23.934 380.483 25.026 379.615 25.908C380.371 26.44 381.253 26.846 382.247 27.084C381.981 27.308 381.645 27.784 381.477 28.092C380.427 27.784 379.503 27.308 378.733 26.692C377.949 27.28 377.067 27.742 376.143 28.064C375.989 27.784 375.695 27.322 375.471 27.084V28.092H374.211V26.776C372.559 26.986 370.893 27.154 369.647 27.28L369.507 26.174C369.899 26.146 370.333 26.118 370.809 26.076V21.596H369.675V20.532H381.981V21.596H375.471V27.042C376.311 26.79 377.123 26.384 377.851 25.866C377.249 25.194 376.759 24.424 376.395 23.542L377.151 23.332H375.807V22.324H380.553L380.777 22.282ZM396.149 17.788H385.817V20.574C385.817 22.758 385.621 26.034 384.389 28.148C384.165 27.938 383.591 27.546 383.311 27.42C384.445 25.446 384.543 22.604 384.543 20.574V16.626H389.905C389.751 16.262 389.555 15.87 389.359 15.548L390.661 15.212C390.955 15.632 391.235 16.178 391.389 16.626H396.149V17.788ZM389.009 27.672V26.636H392.593V27.672H389.009ZM388.421 21.876H391.319C391.221 21.246 391.165 20.574 391.123 19.888C390.213 19.972 389.317 20.028 388.421 20.07V21.876ZM395.799 23.024H392.775C393.237 25.208 394.007 26.692 394.735 26.678C395.015 26.678 395.127 26.09 395.183 24.802C395.449 25.04 395.897 25.292 396.205 25.39C396.037 27.392 395.617 27.91 394.651 27.91C393.153 27.91 392.047 25.88 391.487 23.024H388.421V25.082L390.927 24.508C390.913 24.858 390.927 25.348 390.941 25.614C387.973 26.37 387.497 26.538 387.203 26.734C387.133 26.426 386.909 25.894 386.741 25.642C386.951 25.544 387.189 25.32 387.189 24.788V19.076C389.709 18.978 392.663 18.74 394.357 18.362L395.309 19.328C394.455 19.51 393.447 19.65 392.397 19.762C392.425 20.504 392.495 21.218 392.593 21.876H395.799V23.024ZM408.371 16.22L409.407 16.976C408.175 18.334 406.313 19.79 404.591 20.77V26.524C404.591 27.322 404.381 27.714 403.779 27.896C403.177 28.106 402.225 28.134 400.839 28.12C400.783 27.742 400.531 27.154 400.321 26.804C401.413 26.846 402.505 26.846 402.827 26.832C403.121 26.818 403.233 26.748 403.233 26.496V20.112C404.451 19.482 405.823 18.502 406.803 17.578H398.249V16.29H408.077L408.371 16.22ZM414.377 17.732H413.089V23.248H414.377V17.732ZM415.567 24.452H413.089V25.74H411.899V16.528H415.567V24.452ZM422.483 16.822H417.527V17.942H422.483V16.822ZM421.167 26.79H424.219V27.826H416.813V26.79H419.991V25.46H417.611V24.452H419.991V23.346C418.521 23.472 418.199 23.528 417.961 23.626C417.919 23.388 417.737 22.828 417.597 22.548C417.807 22.506 418.017 22.324 418.241 22.086C418.409 21.932 418.857 21.414 419.277 20.798H417.527C417.471 23.094 417.177 26.146 415.735 28.176C415.525 27.952 415.035 27.602 414.741 27.49C416.239 25.376 416.365 22.352 416.365 20.154V15.8H423.687V18.978H417.527V19.79H424.177V20.798H420.649C420.271 21.358 419.795 21.918 419.347 22.38L422.077 22.212C421.839 21.918 421.601 21.596 421.363 21.344L422.245 20.952C422.889 21.61 423.561 22.548 423.855 23.192L422.903 23.64C422.847 23.5 422.777 23.332 422.665 23.15L421.167 23.262V24.452H423.701V25.46H421.167V26.79ZM426.935 21.68C426.333 21.68 425.857 21.204 425.857 20.56C425.857 19.902 426.333 19.412 426.935 19.412C427.537 19.412 428.013 19.902 428.013 20.56C428.013 21.204 427.537 21.68 426.935 21.68ZM426.935 27.182C426.333 27.182 425.857 26.72 425.857 26.062C425.857 25.39 426.333 24.914 426.935 24.914C427.537 24.914 428.013 25.39 428.013 26.062C428.013 26.72 427.537 27.182 426.935 27.182ZM430.377 27V16.682H433.051C436.215 16.682 438.021 18.446 438.021 21.806C438.021 25.152 436.215 27 433.135 27H430.377ZM432.001 25.67H432.939C435.151 25.67 436.341 24.368 436.341 21.806C436.341 19.23 435.151 18.012 432.939 18.012H432.001V25.67Z" fill="#727171"/>
</svg>
