<svg width="48" height="48" viewBox="0 0 48 48" fill="none" xmlns="http://www.w3.org/2000/svg">
<path d="M39.6 13.1877H31.2429V10.6125C31.1628 9.59022 30.6499 8.63835 29.8155 7.9634C28.9811 7.28846 27.8924 6.94488 26.7857 7.00721H21.2143C20.1076 6.94488 19.0189 7.28846 18.1845 7.9634C17.3501 8.63835 16.8372 9.59022 16.7571 10.6125V13.1877H8.4C7.36746 13.1931 6.37888 13.5747 5.64875 14.2497C4.91862 14.9246 4.50585 15.8385 4.5 16.793V37.3947C4.50585 38.3492 4.91862 39.2631 5.64875 39.9381C6.37888 40.613 7.36746 40.9946 8.4 41H39.6C40.6325 40.9946 41.6211 40.613 42.3513 39.9381C43.0814 39.2631 43.4941 38.3492 43.5 37.3947V16.793C43.4941 15.8385 43.0814 14.9246 42.3513 14.2497C41.6211 13.5747 40.6325 13.1931 39.6 13.1877ZM20.1 10.6125C20.1 10.4477 20.5234 10.0975 21.2143 10.0975H26.7857C27.4766 10.0975 27.9 10.4477 27.9 10.6125V13.1877H20.1V10.6125ZM8.4 16.278H39.6C39.7478 16.278 39.8895 16.3322 39.994 16.4288C40.0984 16.5254 40.1571 16.6564 40.1571 16.793V23.4886H7.84286V16.793C7.84286 16.6564 7.90156 16.5254 8.00604 16.4288C8.11052 16.3322 8.25224 16.278 8.4 16.278ZM16.7571 26.5788H31.2429V29.6691H16.7571V26.5788ZM39.6 37.9097H8.4C8.25224 37.9097 8.11052 37.8555 8.00604 37.7589C7.90156 37.6623 7.84286 37.5313 7.84286 37.3947V26.5788H13.4143V31.2142C13.4201 31.6223 13.598 32.0122 13.9102 32.3009C14.2224 32.5895 14.6442 32.754 15.0857 32.7593H32.9143C33.3558 32.754 33.7776 32.5895 34.0898 32.3009C34.402 32.0122 34.5799 31.6223 34.5857 31.2142V26.5788H40.1571V37.3947C40.1571 37.5313 40.0984 37.6623 39.994 37.7589C39.8895 37.8555 39.7478 37.9097 39.6 37.9097Z" fill="#FF9D46"/>
</svg>
