<svg width="48" height="48" viewBox="0 0 48 48" fill="none" xmlns="http://www.w3.org/2000/svg">
<path d="M24.5 28.2C24.9055 28.2 25.3018 28.0915 25.6389 27.8882C25.976 27.6849 26.2388 27.396 26.394 27.058C26.5491 26.7199 26.5897 26.3479 26.5106 25.9891C26.4315 25.6302 26.2363 25.3006 25.9496 25.0419C25.6629 24.7831 25.2976 24.6069 24.8999 24.5355C24.5023 24.4642 24.0901 24.5008 23.7155 24.6408C23.3409 24.7808 23.0207 25.018 22.7955 25.3222C22.5702 25.6264 22.45 25.9841 22.45 26.35C22.45 26.8407 22.666 27.3112 23.0504 27.6581C23.4349 28.0051 23.9563 28.2 24.5 28.2ZM34.75 28.2C35.1555 28.2 35.5518 28.0915 35.8889 27.8882C36.226 27.6849 36.4888 27.396 36.644 27.058C36.7991 26.7199 36.8397 26.3479 36.7606 25.9891C36.6815 25.6302 36.4863 25.3006 36.1996 25.0419C35.9129 24.7831 35.5476 24.6069 35.1499 24.5355C34.7523 24.4642 34.3401 24.5008 33.9655 24.6408C33.5909 24.7808 33.2707 25.018 33.0455 25.3222C32.8202 25.6264 32.7 25.9841 32.7 26.35C32.7 26.8407 32.916 27.3112 33.3004 27.6581C33.6849 28.0051 34.2063 28.2 34.75 28.2ZM24.5 35.6C24.9055 35.6 25.3018 35.4915 25.6389 35.2882C25.976 35.0849 26.2388 34.796 26.394 34.458C26.5491 34.1199 26.5897 33.7479 26.5106 33.3891C26.4315 33.0302 26.2363 32.7006 25.9496 32.4419C25.6629 32.1831 25.2976 32.0069 24.8999 31.9355C24.5023 31.8642 24.0901 31.9008 23.7155 32.0408C23.3409 32.1808 23.0207 32.418 22.7955 32.7222C22.5702 33.0264 22.45 33.3841 22.45 33.75C22.45 34.2407 22.666 34.7112 23.0504 35.0581C23.4349 35.4051 23.9563 35.6 24.5 35.6ZM34.75 35.6C35.1555 35.6 35.5518 35.4915 35.8889 35.2882C36.226 35.0849 36.4888 34.796 36.644 34.458C36.7991 34.1199 36.8397 33.7479 36.7606 33.3891C36.6815 33.0302 36.4863 32.7006 36.1996 32.4419C35.9129 32.1831 35.5476 32.0069 35.1499 31.9355C34.7523 31.8642 34.3401 31.9008 33.9655 32.0408C33.5909 32.1808 33.2707 32.418 33.0455 32.7222C32.8202 33.0264 32.7 33.3841 32.7 33.75C32.7 34.2407 32.916 34.7112 33.3004 35.0581C33.6849 35.4051 34.2063 35.6 34.75 35.6ZM14.25 28.2C14.6555 28.2 15.0518 28.0915 15.3889 27.8882C15.726 27.6849 15.9888 27.396 16.144 27.058C16.2991 26.7199 16.3397 26.3479 16.2606 25.9891C16.1815 25.6302 15.9863 25.3006 15.6996 25.0419C15.4129 24.7831 15.0476 24.6069 14.6499 24.5355C14.2523 24.4642 13.8401 24.5008 13.4655 24.6408C13.0909 24.7808 12.7707 25.018 12.5455 25.3222C12.3202 25.6264 12.2 25.9841 12.2 26.35C12.2 26.8407 12.416 27.3112 12.8004 27.6581C13.1849 28.0051 13.7063 28.2 14.25 28.2ZM38.85 9.7H36.8V7.85C36.8 7.35935 36.584 6.88879 36.1996 6.54185C35.8151 6.19491 35.2937 6 34.75 6C34.2063 6 33.6849 6.19491 33.3004 6.54185C32.916 6.88879 32.7 7.35935 32.7 7.85V9.7H16.3V7.85C16.3 7.35935 16.084 6.88879 15.6996 6.54185C15.3151 6.19491 14.7937 6 14.25 6C13.7063 6 13.1849 6.19491 12.8004 6.54185C12.416 6.88879 12.2 7.35935 12.2 7.85V9.7H10.15C8.51892 9.7 6.95464 10.2847 5.80129 11.3256C4.64794 12.3664 4 13.778 4 15.25V37.45C4 38.922 4.64794 40.3336 5.80129 41.3744C6.95464 42.4153 8.51892 43 10.15 43H38.85C40.4811 43 42.0454 42.4153 43.1987 41.3744C44.3521 40.3336 45 38.922 45 37.45V15.25C45 13.778 44.3521 12.3664 43.1987 11.3256C42.0454 10.2847 40.4811 9.7 38.85 9.7ZM40.9 37.45C40.9 37.9407 40.684 38.4112 40.2996 38.7581C39.9151 39.1051 39.3937 39.3 38.85 39.3H10.15C9.60631 39.3 9.08488 39.1051 8.70043 38.7581C8.31598 38.4112 8.1 37.9407 8.1 37.45V20.8H40.9V37.45ZM40.9 17.1H8.1V15.25C8.1 14.7593 8.31598 14.2888 8.70043 13.9419C9.08488 13.5949 9.60631 13.4 10.15 13.4H38.85C39.3937 13.4 39.9151 13.5949 40.2996 13.9419C40.684 14.2888 40.9 14.7593 40.9 15.25V17.1ZM14.25 35.6C14.6555 35.6 15.0518 35.4915 15.3889 35.2882C15.726 35.0849 15.9888 34.796 16.144 34.458C16.2991 34.1199 16.3397 33.7479 16.2606 33.3891C16.1815 33.0302 15.9863 32.7006 15.6996 32.4419C15.4129 32.1831 15.0476 32.0069 14.6499 31.9355C14.2523 31.8642 13.8401 31.9008 13.4655 32.0408C13.0909 32.1808 12.7707 32.418 12.5455 32.7222C12.3202 33.0264 12.2 33.3841 12.2 33.75C12.2 34.2407 12.416 34.7112 12.8004 35.0581C13.1849 35.4051 13.7063 35.6 14.25 35.6Z" fill="#FF9D46"/>
</svg>
