<svg width="25" height="24" viewBox="0 0 25 24" fill="none" xmlns="http://www.w3.org/2000/svg">
<rect x="0.5" width="24" height="24" rx="12" fill="white"/>
<path fill-rule="evenodd" clip-rule="evenodd" d="M10.8335 18.375H14.1665C16.5073 18.375 17.678 18.375 18.5188 17.8544C18.8815 17.6298 19.194 17.3401 19.4383 17.0016C20 16.2224 20 15.1365 20 12.9662C20 10.7952 20 9.70999 19.4383 8.93082C19.194 8.59232 18.8815 8.30253 18.5188 8.07799C17.9788 7.74295 17.3023 7.62324 16.2665 7.58074C15.7723 7.58074 15.347 7.23366 15.2503 6.78387C15.1763 6.4544 14.9842 6.15914 14.7064 5.948C14.4286 5.73685 14.0821 5.62277 13.7255 5.62503H11.2745C10.5335 5.62503 9.89525 6.11024 9.74975 6.78387C9.653 7.23366 9.22775 7.58074 8.7335 7.58074C7.6985 7.62324 7.022 7.74366 6.48125 8.07799C6.11871 8.30258 5.80653 8.59236 5.5625 8.93082C5 9.70999 5 10.7952 5 12.9662C5 15.1365 5 16.2217 5.56175 17.0016C5.80475 17.3387 6.11675 17.6284 6.48125 17.8544C7.322 18.375 8.49275 18.375 10.8335 18.375ZM12.5 10.0684C10.7743 10.0684 9.37475 11.3654 9.37475 12.9655C9.37475 14.5663 10.7743 15.864 12.5 15.864C14.2258 15.864 15.6253 14.5663 15.6253 12.9662C15.6253 11.3654 14.2258 10.0684 12.5 10.0684ZM12.5 11.2272C11.465 11.2272 10.625 12.0057 10.625 12.9662C10.625 13.926 11.465 14.7044 12.5 14.7044C13.535 14.7044 14.375 13.926 14.375 12.9662C14.375 12.0057 13.535 11.2272 12.5 11.2272ZM16.0415 10.6478C16.0415 10.3277 16.3213 10.0684 16.667 10.0684H17.4995C17.8445 10.0684 18.125 10.3277 18.125 10.6478C18.1234 10.8029 18.0567 10.951 17.9396 11.0596C17.8224 11.1683 17.6644 11.2286 17.5003 11.2272H16.667C16.5856 11.228 16.5049 11.2136 16.4295 11.1849C16.354 11.1562 16.2853 11.1137 16.2272 11.0599C16.1691 11.0061 16.1228 10.942 16.0909 10.8713C16.0591 10.8006 16.0423 10.7247 16.0415 10.6478Z" fill="black"/>
</svg>
