<svg width="82" height="83" viewBox="0 0 82 83" fill="none" xmlns="http://www.w3.org/2000/svg">
<circle cx="41.0531" cy="41.8383" r="40.9008" fill="#FFCA7C"/>
<path d="M57.9247 46.2376C59.1713 44.6827 60.0971 42.896 60.6485 40.9809C61.1998 39.0658 61.3659 37.0604 61.1369 35.0807C59.8442 35.6558 58.4449 35.9526 57.03 35.9518C54.9337 35.9523 52.8893 35.2998 51.1808 34.0851L48.4765 36.7927L57.9247 46.2376ZM55.5467 48.619L44.965 38.0372L44.8506 37.9229L34.2722 27.3412C33.0849 28.8211 32.1734 30.5298 31.6083 32.3865C30.506 32.1334 29.3879 31.9547 28.2616 31.8517C29.5177 27.3107 32.4591 23.4201 36.4857 20.9736C40.5122 18.5272 45.3205 17.7093 49.9296 18.6867C51.2795 18.9738 52.5666 19.3987 53.7909 19.9615C57.832 21.8157 61.0736 25.0585 62.9263 29.1003C63.4869 30.3224 63.9118 31.6084 64.2011 32.9583C64.4612 34.1961 64.5924 35.4731 64.5946 36.7894C64.596 40.8356 63.2706 44.7708 60.8217 47.9918C58.3729 51.2129 54.9354 53.5422 51.0362 54.6229C50.932 53.4965 50.7522 52.3784 50.498 51.2762C52.3332 50.7171 54.0454 49.8142 55.5433 48.6156M60.3532 31.707C59.7891 30.1268 58.9661 28.6514 57.918 27.3412L53.6059 31.6532C54.6266 32.2562 55.7885 32.5788 56.974 32.5882C58.1595 32.5977 59.3264 32.2937 60.3566 31.707M51.2346 29.2718L55.5433 24.9665C54.2353 23.9178 52.7622 23.0938 51.1842 22.5279C50.6224 23.5101 50.3029 24.647 50.3029 25.8578C50.3029 27.1023 50.6393 28.2729 51.2346 29.2718ZM47.8105 21.7577C45.8303 21.5283 43.8242 21.6941 41.9085 22.2454C39.9928 22.7968 38.2055 23.7228 36.6503 24.9699L46.0985 34.4113L48.8028 31.707C47.5899 29.9991 46.9386 27.956 46.9394 25.8612C46.9394 24.3981 47.2522 23.0089 47.8139 21.7543M22.5536 38.4745C22.1076 38.4745 21.6798 38.6517 21.3644 38.9671C21.049 39.2825 20.8719 39.7102 20.8719 40.1563V43.5198C20.8719 48.4262 22.8209 53.1316 26.2902 56.601C29.7596 60.0703 34.465 62.0194 39.3714 62.0194H42.7349C43.181 62.0194 43.6087 61.8422 43.9241 61.5268C44.2395 61.2114 44.4167 60.7836 44.4167 60.3376V56.974C44.4167 54.5446 43.9382 52.139 43.0085 49.8946C42.0788 47.6501 40.7162 45.6107 38.9983 43.8929C37.2805 42.1751 35.2411 40.8124 32.9966 39.8827C30.7522 38.953 28.3466 38.4745 25.9172 38.4745H22.5536ZM17.5083 40.1563C17.5083 38.8182 18.0399 37.5349 18.986 36.5887C19.9322 35.6425 21.2155 35.111 22.5536 35.111H25.9172C31.7156 35.111 37.2766 37.4144 41.3767 41.5145C45.4768 45.6146 47.7802 51.1756 47.7802 56.974V60.3376C47.7802 61.6757 47.2487 62.959 46.3025 63.9052C45.3563 64.8513 44.073 65.3829 42.7349 65.3829H39.3714C33.5729 65.3829 28.012 63.0795 23.9118 58.9794C19.8117 54.8792 17.5083 49.3183 17.5083 43.5198V40.1563ZM28.9309 46.5336C29.0871 46.377 29.2727 46.2527 29.477 46.1679C29.6814 46.0831 29.9004 46.0395 30.1216 46.0395C30.3428 46.0395 30.5619 46.0831 30.7662 46.1679C30.9705 46.2527 31.1561 46.377 31.3123 46.5336L36.3576 51.5789C36.514 51.7353 36.638 51.9209 36.7227 52.1252C36.8073 52.3295 36.8508 52.5485 36.8508 52.7696C36.8508 52.9907 36.8073 53.2097 36.7227 53.414C36.638 53.6183 36.514 53.8039 36.3576 53.9603C36.2013 54.1167 36.0156 54.2407 35.8113 54.3253C35.607 54.4099 35.3881 54.4535 35.1669 54.4535C34.9458 54.4535 34.7268 54.4099 34.5225 54.3253C34.3182 54.2407 34.1326 54.1167 33.9762 53.9603L28.9309 48.915C28.7743 48.7587 28.65 48.5732 28.5653 48.3688C28.4805 48.1645 28.4368 47.9455 28.4368 47.7243C28.4368 47.5031 28.4805 47.284 28.5653 47.0797C28.65 46.8754 28.7743 46.6898 28.9309 46.5336Z" fill="white"/>
</svg>
