<svg width="36" height="36" viewBox="0 0 36 36" fill="none" xmlns="http://www.w3.org/2000/svg">
<g clip-path="url(#clip0_635_88)">
<path d="M36 18.0195C36 27.5666 28.5673 35.3776 19.1728 35.9819V22.6689H24.229L24.9247 18.8809H19.1728V16.0406C19.1728 12.6262 20.7162 11.1036 24.1773 11.1036C24.5429 11.1036 24.9803 11.1071 25.3951 11.1198V7.73387C24.4965 7.58059 23.1602 7.45051 22.3288 7.45051C19.518 7.45051 17.5307 8.08508 16.2524 9.39043C14.9706 10.6993 14.3476 12.7345 14.3476 15.612V18.8809H10.6052V22.6689H14.3476V35.6486C6.15762 33.9608 0 26.7095 0 18.0195C0 8.0784 8.05887 0.0195312 18 0.0195312C27.9411 0.0195312 36 8.0784 36 18.0195Z" fill="white"/>
</g>
<defs>
<clipPath id="clip0_635_88">
<rect width="36" height="35.9624" fill="white" transform="translate(0 0.0195312)"/>
</clipPath>
</defs>
</svg>
