<svg width="48" height="48" viewBox="0 0 48 48" fill="none" xmlns="http://www.w3.org/2000/svg">
<path d="M33.75 8.47878C36.5624 10.1025 38.8978 12.4379 40.5215 15.2503C42.1452 18.0626 43 21.2528 43 24.5003C43 27.7477 42.1451 30.9379 40.5214 33.7502C38.8976 36.5626 36.5622 38.8979 33.7498 40.5216C30.9374 42.1453 27.7472 43.0001 24.4997 43C21.2523 42.9999 18.062 42.1451 15.2497 40.5213C12.4374 38.8975 10.102 36.5621 8.47832 33.7497C6.85466 30.9373 5.99992 27.7471 6 24.4997L6.00925 23.9003C6.11286 20.7053 7.04256 17.5917 8.70773 14.8631C10.3729 12.1344 12.7167 9.88376 15.5107 8.33057C18.3046 6.77737 21.4533 5.97464 24.6499 6.00061C27.8464 6.02659 30.9817 6.88039 33.75 8.47878ZM24.5 13.3997C24.0093 13.3997 23.5388 13.5947 23.1919 13.9416C22.8449 14.2885 22.65 14.7591 22.65 15.2497C21.178 15.2497 19.7664 15.8345 18.7256 16.8753C17.6847 17.9161 17.1 19.3278 17.1 20.7997C17.1 22.2716 17.6847 23.6833 18.7256 24.7241C19.7664 25.7649 21.178 26.3497 22.65 26.3497V30.0496C22.3432 30.0666 22.0369 30.0084 21.7577 29.8801C21.4785 29.7518 21.2348 29.5572 21.0479 29.3133L20.9221 29.1265C20.669 28.7183 20.267 28.4245 19.8013 28.3073C19.3355 28.1901 18.8424 28.2587 18.4262 28.4985C18.01 28.7383 17.7034 29.1305 17.5713 29.5923C17.4391 30.054 17.4917 30.5491 17.7179 30.9728C18.1901 31.7917 18.8636 32.4764 19.6747 32.9621C20.4857 33.4477 21.4073 33.7182 22.3521 33.7477H22.65C22.6496 34.2012 22.8158 34.639 23.1169 34.978C23.4181 35.317 23.8332 35.5336 24.2836 35.5866L24.5 35.5996C24.9907 35.5996 25.4612 35.4047 25.8081 35.0577C26.1551 34.7108 26.35 34.2402 26.35 33.7496L26.6756 33.7403C28.1179 33.657 29.4708 33.0145 30.4469 31.9495C31.423 30.8845 31.9454 29.4808 31.903 28.0368C31.8606 26.5927 31.2568 25.2221 30.2199 24.2162C29.183 23.2103 27.7947 22.6483 26.35 22.6497V18.9497C27.0123 18.9275 27.5914 19.2087 27.9521 19.686L28.0779 19.8728C28.331 20.281 28.733 20.5748 29.1987 20.692C29.6645 20.8092 30.1576 20.7407 30.5738 20.5009C30.99 20.2611 31.2966 19.8688 31.4287 19.4071C31.5609 18.9453 31.5083 18.4502 31.2821 18.0266C30.8101 17.2073 30.1367 16.5222 29.3257 16.0362C28.5146 15.5502 27.5929 15.2795 26.6479 15.2497H26.35C26.35 14.7591 26.1551 14.2885 25.8081 13.9416C25.4612 13.5947 24.9907 13.3997 24.5 13.3997ZM26.35 26.3497C26.8407 26.3497 27.3112 26.5446 27.6581 26.8915C28.0051 27.2384 28.2 27.709 28.2 28.1996C28.2 28.6903 28.0051 29.1608 27.6581 29.5078C27.3112 29.8547 26.8407 30.0496 26.35 30.0496V26.3497ZM22.65 18.9497V22.6497C22.1593 22.6497 21.6888 22.4548 21.3419 22.1078C20.9949 21.7609 20.8 21.2903 20.8 20.7997C20.8 20.309 20.9949 19.8385 21.3419 19.4916C21.6888 19.1446 22.1593 18.9497 22.65 18.9497Z" fill="#FFBF61"/>
</svg>
