<svg width="39" height="26" viewBox="0 0 39 26" fill="none" xmlns="http://www.w3.org/2000/svg">
<path opacity="0.5" d="M36.7524 6.46828C37.9647 10.0407 34.8321 14.3332 29.7555 16.0559C24.6789 17.7786 19.5808 16.2791 18.3686 12.7067C17.1563 9.13428 20.2889 4.84177 25.3655 3.11908C30.4421 1.3964 35.5402 2.89588 36.7524 6.46828Z" fill="#19B9AA"/>
<path opacity="0.5" d="M19.5992 19.9766C20.2437 21.8761 19.295 23.9152 17.48 24.5311C15.6651 25.1469 13.6713 24.1064 13.0267 22.2069C12.3821 20.3074 13.3309 18.2683 15.1458 17.6524C16.9608 17.0365 18.9546 18.0771 19.5992 19.9766Z" fill="#FF9D46"/>
<path opacity="0.5" d="M10.664 10.2477C12.1884 11.9362 11.6548 14.9024 9.47222 16.8729C7.28964 18.8433 4.28454 19.0719 2.76015 17.3834C1.23576 15.695 1.76934 12.7288 3.95192 10.7583C6.13451 8.78785 9.1396 8.55926 10.664 10.2477Z" fill="#FFBF61"/>
</svg>
