<svg width="75" height="15" viewBox="0 0 75 15" fill="none" xmlns="http://www.w3.org/2000/svg">
<path d="M37.2005 13.4701C37.1805 14.3001 37.8405 14.9901 38.6705 15.0001H38.7005C39.5205 15.0001 40.1805 14.3501 40.2005 13.5301C40.2205 12.7001 39.5605 12.0201 38.7305 12.0001C37.9005 11.9901 37.2205 12.6401 37.2005 13.4701Z" fill="#FFBF61"/>
<path d="M48.1204 10.8901C47.3204 11.1301 46.8704 11.9601 47.1004 12.7501C47.2904 13.4101 47.8904 13.8301 48.5405 13.8301C48.6805 13.8301 48.8204 13.8101 48.9604 13.7701C49.7604 13.5401 50.2105 12.7101 49.9805 11.9101C49.7505 11.1101 48.9104 10.6601 48.1204 10.8901Z" fill="#FFBF61"/>
<path d="M27.5405 11.3001C27.2505 12.0801 27.6504 12.9401 28.4304 13.2301C28.6004 13.2901 28.7704 13.3201 28.9404 13.3201C29.5604 13.3201 30.1305 12.9401 30.3605 12.3301C30.6405 11.5501 30.2404 10.6901 29.4604 10.4101C28.6804 10.1201 27.8205 10.5301 27.5405 11.3001Z" fill="#FFBF61"/>
<path d="M56.6304 6.71011C55.9304 7.16011 55.7304 8.08011 56.1804 8.78011C56.4604 9.23011 56.9504 9.47011 57.4404 9.47011C57.7204 9.47011 58.0004 9.39011 58.2504 9.23011C58.9504 8.79011 59.1505 7.86011 58.7005 7.16011C58.2605 6.47011 57.3304 6.26011 56.6304 6.71011Z" fill="#FFBF61"/>
<path d="M19.4205 8.34011H19.4104C19.6704 8.50011 19.9504 8.58011 20.2204 8.58011C20.7204 8.58011 21.2004 8.33011 21.4904 7.89011C21.9304 7.19011 21.7305 6.26011 21.0405 5.81011C20.3405 5.37011 19.4104 5.57011 18.9604 6.26011C18.5204 6.96011 18.7205 7.89011 19.4205 8.34011Z" fill="#FFBF61"/>
<path d="M65.6405 1.81011C64.8605 2.09011 64.4604 2.95011 64.7504 3.73011C64.9704 4.34011 65.5404 4.72011 66.1504 4.72011C66.3204 4.72011 66.5005 4.69011 66.6705 4.62011C67.4505 4.34011 67.8504 3.47011 67.5604 2.70011C67.2704 1.92011 66.4105 1.52011 65.6405 1.81011Z" fill="#FFBF61"/>
<path d="M9.90044 2.27011C9.66044 3.06011 10.1104 3.90011 10.9104 4.13011C11.0504 4.18011 11.1905 4.20011 11.3305 4.20011C11.9805 4.20011 12.5804 3.77011 12.7704 3.12011C13.0104 2.33011 12.5505 1.49011 11.7605 1.26011C10.9705 1.02011 10.1304 1.47011 9.90044 2.27011Z" fill="#FFBF61"/>
<path d="M1.47044 0.000113846C0.640444 0.0101138 -0.0195572 0.700114 0.000442811 1.53011C0.0104428 2.34011 0.680443 3.00011 1.50044 3.00011H1.53044C2.35044 2.98011 3.01044 2.30011 3.00044 1.47011C2.98044 0.640114 2.30044 -0.00988615 1.47044 0.000113846Z" fill="#FFBF61"/>
</svg>
