<svg width="142" height="49" viewBox="0 0 142 49" fill="none" xmlns="http://www.w3.org/2000/svg">
<g clip-path="url(#clip0_635_42)">
<path fill-rule="evenodd" clip-rule="evenodd" d="M133.241 0H8.67249C1.23813 0 0 2.65177 0 8.95835V40.0979C0 46.4001 2.54622 49 8.66411 49H133.242C139.364 49 142 46.3958 142 40.0892V8.95835C142 2.65177 139.363 0 133.241 0Z" fill="white"/>
<path d="M71.3111 28.0684C68.7523 28.0684 66.7271 30.045 66.7271 32.7906C66.7271 35.4263 68.7523 37.5126 71.3111 37.5126C73.8698 37.5126 75.895 35.536 75.895 32.7906C75.8936 29.9353 73.8685 28.0684 71.3111 28.0684ZM71.3111 35.5347C69.926 35.5347 68.7523 34.327 68.7523 32.6794C68.7523 31.0319 69.9246 29.8243 71.3111 29.8243C72.6961 29.8243 73.8698 30.9222 73.8698 32.6794C73.8685 34.327 72.6961 35.5347 71.3111 35.5347ZM61.3967 28.0684C58.8379 28.0684 56.8127 30.045 56.8127 32.7906C56.8127 35.4263 58.8379 37.5126 61.3967 37.5126C63.9554 37.5126 65.9806 35.536 65.9806 32.7906C65.9806 29.9353 63.9554 28.0684 61.3967 28.0684ZM61.3967 35.5347C60.0116 35.5347 58.8379 34.327 58.8379 32.6794C58.8379 31.0319 60.0102 29.8243 61.3967 29.8243C62.7831 29.8243 63.9554 30.9222 63.9554 32.6794C63.9554 34.327 62.7831 35.5347 61.3967 35.5347ZM49.565 29.4953V31.4719H54.1488C54.0424 32.5698 53.6153 33.4485 53.0831 33.9967C52.443 34.656 51.3773 35.4236 49.565 35.4236C46.6868 35.4236 44.5552 33.1181 44.5552 30.1532C44.5552 27.1884 46.7932 24.8828 49.565 24.8828C51.0579 24.8828 52.2301 25.5422 53.0831 26.3097L54.4682 24.8828C53.296 23.7849 51.803 22.9062 49.6714 22.9062C45.8339 22.9062 42.53 26.2001 42.53 30.1532C42.53 34.1064 45.8339 37.4002 49.6714 37.4002C51.803 37.4002 53.296 36.7408 54.5747 35.3139C55.8534 33.9967 56.2805 32.1298 56.2805 30.7014C56.2805 30.2629 56.2805 29.8229 56.1741 29.4939H49.565V29.4953ZM97.9591 31.0332C97.5333 29.9353 96.4661 28.0684 94.1216 28.0684C91.777 28.0684 89.8584 29.9353 89.8584 32.7906C89.8584 35.4263 91.777 37.5126 94.3358 37.5126C96.361 37.5126 97.6397 36.1953 98.0669 35.4263L96.574 34.3284C96.0404 35.0975 95.4017 35.6457 94.3358 35.6457C93.2701 35.6457 92.63 35.2071 92.0978 34.2188L98.1733 31.583L97.9591 31.0332ZM91.7758 32.5698C91.7758 30.8125 93.1609 29.8243 94.1202 29.8243C94.8667 29.8243 95.6131 30.2629 95.8261 30.8125L91.7758 32.5698ZM86.766 37.0726H88.7912V23.3464H86.766V37.0726ZM83.5686 29.0568C83.035 28.5071 82.1834 27.9587 81.1177 27.9587C78.8795 27.9587 76.748 30.045 76.748 32.6809C76.748 35.3168 78.773 37.2932 81.1177 37.2932C82.1834 37.2932 83.0364 36.7436 83.4621 36.1953H83.5686V36.8547C83.5686 38.6119 82.6091 39.6003 81.1177 39.6003C79.9454 39.6003 79.0924 38.7216 78.8795 37.9526L77.1737 38.7216C77.7073 39.9291 78.986 41.4672 81.224 41.4672C83.5686 41.4672 85.4873 40.0403 85.4873 36.6353V28.2905H83.5686V29.0568ZM81.224 35.5347C79.839 35.5347 78.6653 34.327 78.6653 32.6794C78.6653 31.0319 79.8376 29.8243 81.224 29.8243C82.6105 29.8243 83.675 31.0319 83.675 32.6794C83.675 34.327 82.6091 35.5347 81.224 35.5347ZM107.232 23.3464H102.435V37.0726H104.46V31.9119H107.232C109.47 31.9119 111.602 30.2643 111.602 27.6299C111.602 24.9939 109.47 23.3464 107.232 23.3464ZM107.339 29.9353H104.46V25.2133H107.339C108.831 25.2133 109.683 26.5305 109.683 27.5187C109.577 28.7277 108.725 29.9353 107.339 29.9353ZM119.597 27.9587C118.104 27.9587 116.613 28.6181 116.079 30.045L117.892 30.814C118.317 30.045 118.957 29.8256 119.704 29.8256C120.77 29.8256 121.729 30.485 121.835 31.583V31.6925C121.516 31.4733 120.663 31.1429 119.81 31.1429C117.892 31.1429 115.973 32.2409 115.973 34.2175C115.973 36.0844 117.572 37.2919 119.277 37.2919C120.662 37.2919 121.302 36.6326 121.835 35.9747H121.942V37.0726H123.861V31.8022C123.648 29.3856 121.835 27.9587 119.597 27.9587ZM119.383 35.5347C118.743 35.5347 117.784 35.2057 117.784 34.327C117.784 33.2291 118.956 32.9002 119.915 32.9002C120.768 32.9002 121.194 33.1194 121.728 33.3388C121.516 34.656 120.449 35.5347 119.383 35.5347ZM130.576 28.2877L128.338 34.2175H128.232L125.887 28.2877H123.756L127.274 36.6326L125.248 41.2451H127.274L132.711 28.2877H130.576ZM112.669 37.0726H114.694V23.3464H112.669V37.0726Z" fill="#595757"/>
<path d="M46.2474 15.1951H49.5691C49.5881 15.2724 49.6032 15.3681 49.6168 15.4777C49.6291 15.5887 49.636 15.6984 49.636 15.8095C49.636 16.2578 49.5691 16.6797 49.4367 17.0761C49.3044 17.4725 49.0955 17.8267 48.8117 18.1389C48.5088 18.4706 48.1457 18.7264 47.7241 18.9092C47.301 19.0906 46.8192 19.182 46.2761 19.182C45.7835 19.182 45.3208 19.0906 44.8855 18.9092C44.4502 18.7279 44.0722 18.4735 43.75 18.1487C43.428 17.824 43.1728 17.4387 42.9831 16.9931C42.7934 16.5475 42.6992 16.0626 42.6992 15.5354C42.6992 15.0082 42.7934 14.5231 42.9831 14.0775C43.1728 13.6319 43.428 13.2481 43.75 12.9219C44.0722 12.5972 44.4502 12.3442 44.8855 12.1614C45.3208 11.98 45.7847 11.8887 46.2761 11.8887C46.8246 11.8887 47.3146 11.9857 47.7473 12.1811C48.1799 12.3765 48.5496 12.6464 48.8595 12.9894L47.9792 13.8765C47.7582 13.6361 47.5125 13.4519 47.241 13.3254C46.9693 13.1989 46.6446 13.1356 46.2666 13.1356C45.9568 13.1356 45.6647 13.1933 45.3863 13.3057C45.1093 13.4196 44.8664 13.5798 44.6576 13.7879C44.4488 13.996 44.2836 14.2476 44.1609 14.5428C44.0381 14.838 43.9767 15.1685 43.9767 15.5325C43.9767 15.8967 44.0381 16.2256 44.1609 16.5222C44.2836 16.8175 44.4515 17.0691 44.6618 17.277C44.8731 17.4851 45.1176 17.6454 45.3946 17.7593C45.6716 17.8731 45.969 17.9295 46.2843 17.9295C46.6432 17.9295 46.9475 17.876 47.1972 17.7692C47.4471 17.6623 47.6598 17.5245 47.836 17.3544C47.9615 17.2377 48.0706 17.0901 48.1621 16.9116C48.2536 16.733 48.3245 16.5334 48.375 16.3128H46.2461V15.1951H46.2474Z" fill="#595757"/>
<path d="M51.9723 13.2938V14.9119H54.6879V16.1602H51.9723V17.7784H54.9909V19.0253H50.6948V12.0469H54.9909V13.2938H51.9723Z" fill="#595757"/>
<path d="M57.6015 19.0253V13.2938H55.7087V12.0469H60.7702V13.2938H58.8775V19.0253H57.6015Z" fill="#595757"/>
<path d="M63.7617 12.0469H65.039V19.0252H63.7617V12.0469Z" fill="#595757"/>
<path d="M67.8394 19.0253V13.2938H65.9465V12.0469H71.0082V13.2938H69.1153V19.0253H67.8394Z" fill="#595757"/>
<path d="M77.0167 19.1811C76.5118 19.1811 76.0437 19.0869 75.6111 18.8985C75.1784 18.7102 74.8046 18.4515 74.4893 18.1239C74.1741 17.7965 73.9272 17.4098 73.747 16.9642C73.5668 16.5186 73.4768 16.0434 73.4768 15.5358C73.4768 15.0284 73.5668 14.5532 73.747 14.1076C73.9272 13.6619 74.1741 13.2753 74.4893 12.9478C74.8046 12.6202 75.1784 12.3616 75.6111 12.1732C76.0437 11.9848 76.5118 11.8906 77.0167 11.8906C77.5216 11.8906 77.9898 11.9848 78.4223 12.1732C78.8549 12.3616 79.2275 12.6202 79.5441 12.9478C79.8594 13.2753 80.1077 13.6633 80.2865 14.1076C80.4666 14.5532 80.5567 15.0284 80.5567 15.5358C80.5567 16.0434 80.4666 16.5186 80.2865 16.9642C80.1063 17.4098 79.8594 17.7965 79.5441 18.1239C79.2289 18.4515 78.8549 18.7102 78.4223 18.8985C77.9898 19.0856 77.5216 19.1811 77.0167 19.1811ZM77.0167 17.9328C77.3319 17.9328 77.6267 17.8737 77.9011 17.7571C78.1753 17.6404 78.4155 17.4772 78.6201 17.2693C78.825 17.0612 78.986 16.8095 79.1034 16.5144C79.2193 16.2191 79.278 15.8915 79.278 15.5345C79.278 15.1774 79.2193 14.8513 79.1034 14.5547C78.986 14.2594 78.8262 14.0078 78.6201 13.7997C78.4155 13.5916 78.1753 13.43 77.9011 13.3119C77.6267 13.1938 77.3319 13.1362 77.0167 13.1362C76.7015 13.1362 76.4068 13.1952 76.1324 13.3119C75.8581 13.4286 75.6179 13.5916 75.4132 13.7997C75.2085 14.0078 75.0475 14.2594 74.9301 14.5547C74.8127 14.8498 74.7555 15.1774 74.7555 15.5345C74.7555 15.8915 74.8141 16.2191 74.9301 16.5144C75.0461 16.8095 75.2071 17.0612 75.4132 17.2693C75.6179 17.4772 75.8581 17.6389 76.1324 17.7571C76.4068 17.8751 76.7015 17.9328 77.0167 17.9328Z" fill="#595757"/>
<path d="M81.5872 12.0469H83.0733L85.7986 16.7254H85.8736L85.7986 15.3801V12.0469H87.0664V19.0252H85.7222L82.8454 14.0839H82.7704L82.8454 15.4292V19.0252H81.5872V12.0469Z" fill="#595757"/>
<path fill-rule="evenodd" clip-rule="evenodd" d="M30.3222 20.1852L13.3242 10.1113L26.7505 23.8702L30.3222 20.1852Z" fill="#595757"/>
<path fill-rule="evenodd" clip-rule="evenodd" d="M11.7475 10.2129C11.6832 10.3339 11.6118 10.4737 11.6118 10.6294V39.1373C11.6118 39.2267 11.6566 39.3117 11.6804 39.3909L25.8986 24.7169L11.7475 10.2129Z" fill="#595757"/>
<path fill-rule="evenodd" clip-rule="evenodd" d="M26.7533 25.5605L12.8135 39.9464C12.854 39.9305 12.8946 39.9118 12.9338 39.8873L30.5474 29.4474L26.7533 25.5605Z" fill="#595757"/>
<path fill-rule="evenodd" clip-rule="evenodd" d="M36.983 24.1333L31.3632 20.8027L27.5732 24.7141L31.5898 28.8301L36.983 25.6336C37.5454 25.3006 37.5454 24.4662 36.983 24.1333Z" fill="#595757"/>
</g>
<defs>
<clipPath id="clip0_635_42">
<rect width="142" height="49" fill="white"/>
</clipPath>
</defs>
</svg>
