<svg width="36" height="36" viewBox="0 0 36 36" fill="none" xmlns="http://www.w3.org/2000/svg">
<g clip-path="url(#clip0_635_90)">
<path d="M21.8071 18.2201C21.8071 20.4444 20.0039 22.2469 17.7803 22.2469C15.5566 22.2469 13.7535 20.4444 13.7535 18.2201C13.7535 15.9957 15.5563 14.1933 17.7803 14.1933C20.0043 14.1933 21.8071 15.9957 21.8071 18.2201ZM27.6834 18.2194C27.6834 21.445 27.6711 21.8271 27.6131 23.1008C27.5593 24.2789 27.3628 24.9184 27.1972 25.3438C26.9779 25.908 26.7166 26.3102 26.2937 26.7332C25.8708 27.1561 25.4686 27.4177 24.9047 27.6363C24.4789 27.8019 23.8395 27.9984 22.6617 28.0522C21.3877 28.1106 21.0059 28.1225 17.7803 28.1225C14.5547 28.1225 14.1725 28.1106 12.8988 28.0522C11.7207 27.9984 11.0813 27.8019 10.6559 27.6363C10.0916 27.417 9.68941 27.1557 9.26648 26.7332C8.84391 26.3102 8.58199 25.908 8.36332 25.3438C8.19738 24.9184 8.00121 24.2789 7.94742 23.1008C7.88906 21.8271 7.87711 21.445 7.87711 18.2194C7.87711 14.9938 7.88906 14.612 7.94742 13.3379C8.00121 12.1602 8.19773 11.5207 8.36332 11.095C8.58234 10.5307 8.84391 10.1285 9.26648 9.70594C9.68941 9.28336 10.0916 9.02109 10.6559 8.80242C11.0813 8.63684 11.7207 8.44031 12.8988 8.38652C14.1725 8.32887 14.5547 8.31621 17.7803 8.31621C21.0059 8.31621 21.3877 8.32852 22.6617 8.38652C23.8395 8.44031 24.4789 8.63684 24.9047 8.80242C25.4689 9.0218 25.8711 9.28301 26.2937 9.70594C26.7163 10.1285 26.9786 10.5311 27.1972 11.095C27.3628 11.5207 27.5593 12.1602 27.6131 13.3379C27.6711 14.612 27.6834 14.9938 27.6834 18.2194ZM23.9832 18.2197C23.9832 14.7941 21.2062 12.0168 17.7803 12.0168C14.3543 12.0168 11.577 14.7941 11.577 18.2197C11.577 21.6454 14.3543 24.423 17.7803 24.423C21.2062 24.423 23.9832 21.6457 23.9832 18.2197ZM25.6781 11.7717C25.6781 10.9712 25.0291 10.3222 24.2283 10.3222C23.4274 10.3222 22.7788 10.9712 22.7788 11.7717C22.7788 12.5722 23.4274 13.2216 24.2283 13.2216C25.0291 13.2216 25.6781 12.5726 25.6781 11.7717ZM27.6834 18.2194C27.6834 21.445 27.6711 21.8271 27.6131 23.1008C27.5593 24.2789 27.3628 24.9184 27.1972 25.3438C26.9779 25.908 26.7166 26.3102 26.2937 26.7332C25.8708 27.1561 25.4686 27.4177 24.9047 27.6363C24.4789 27.8019 23.8395 27.9984 22.6617 28.0522C21.3877 28.1106 21.0059 28.1225 17.7803 28.1225C14.5547 28.1225 14.1725 28.1106 12.8988 28.0522C11.7207 27.9984 11.0813 27.8019 10.6559 27.6363C10.0916 27.417 9.68941 27.1557 9.26648 26.7332C8.84391 26.3102 8.58199 25.908 8.36332 25.3438C8.19738 24.9184 8.00121 24.2789 7.94742 23.1008C7.88906 21.8271 7.87711 21.445 7.87711 18.2194C7.87711 14.9938 7.88906 14.612 7.94742 13.3379C8.00121 12.1602 8.19773 11.5207 8.36332 11.095C8.58234 10.5307 8.84391 10.1285 9.26648 9.70594C9.68941 9.28336 10.0916 9.02109 10.6559 8.80242C11.0813 8.63684 11.7207 8.44031 12.8988 8.38652C14.1725 8.32887 14.5547 8.31621 17.7803 8.31621C21.0059 8.31621 21.3877 8.32852 22.6617 8.38652C23.8395 8.44031 24.4789 8.63684 24.9047 8.80242C25.4689 9.0218 25.8711 9.28301 26.2937 9.70594C26.7163 10.1285 26.9786 10.5311 27.1972 11.095C27.3628 11.5207 27.5593 12.1602 27.6131 13.3379C27.6711 14.612 27.6834 14.9938 27.6834 18.2194ZM23.9832 18.2197C23.9832 14.7941 21.2062 12.0168 17.7803 12.0168C14.3543 12.0168 11.577 14.7941 11.577 18.2197C11.577 21.6454 14.3543 24.423 17.7803 24.423C21.2062 24.423 23.9832 21.6457 23.9832 18.2197ZM25.6781 11.7717C25.6781 10.9712 25.0291 10.3222 24.2283 10.3222C23.4274 10.3222 22.7788 10.9712 22.7788 11.7717C22.7788 12.5722 23.4274 13.2216 24.2283 13.2216C25.0291 13.2216 25.6781 12.5726 25.6781 11.7717ZM36 18C36 27.9411 27.9411 36 18 36C8.05887 36 0 27.9411 0 18C0 8.05887 8.05887 0 18 0C27.9411 0 36 8.05887 36 18ZM29.86 18.2197C29.86 14.9393 29.8459 14.5276 29.7875 13.2391C29.7288 11.9535 29.5246 11.0756 29.2257 10.3071C28.9167 9.51258 28.504 8.83934 27.8325 8.16785C27.1607 7.49637 26.4867 7.08328 25.6929 6.77426C24.9244 6.47543 24.0462 6.27117 22.7609 6.21281C21.4724 6.1541 21.0607 6.14004 17.7803 6.14004C14.4998 6.14004 14.0878 6.1541 12.7997 6.21281C11.5137 6.27117 10.6358 6.47578 9.8673 6.77426C9.07277 7.08328 8.39953 7.49637 7.72805 8.16785C7.05656 8.83934 6.64312 9.51258 6.33445 10.3071C6.03562 11.0756 5.83137 11.9538 5.77301 13.2391C5.7143 14.5276 5.70023 14.9393 5.70023 18.2197C5.70023 21.5002 5.7143 21.9122 5.77301 23.2003C5.83137 24.4863 6.03598 25.3642 6.33445 26.1327C6.64348 26.9272 7.05656 27.6005 7.72805 28.272C8.39953 28.9438 9.07348 29.3565 9.8673 29.6655C10.6358 29.9644 11.514 30.1686 12.7997 30.227C14.0878 30.2857 14.4995 30.2998 17.7803 30.2998C21.0611 30.2998 21.4724 30.2857 22.7609 30.227C24.0465 30.1686 24.9244 29.964 25.6929 29.6655C26.4874 29.3565 27.1607 28.9434 27.8325 28.272C28.504 27.6005 28.9171 26.9265 29.2257 26.1327C29.5246 25.3642 29.7288 24.486 29.7875 23.2003C29.8459 21.9122 29.86 21.5005 29.86 18.2197ZM27.6131 13.3379C27.6711 14.612 27.6834 14.9938 27.6834 18.2194C27.6834 21.445 27.6711 21.8271 27.6131 23.1008C27.5593 24.2789 27.3628 24.9184 27.1972 25.3438C26.9779 25.908 26.7166 26.3102 26.2937 26.7332C25.8708 27.1561 25.4686 27.4177 24.9047 27.6363C24.4789 27.8019 23.8395 27.9984 22.6617 28.0522C21.3877 28.1106 21.0059 28.1225 17.7803 28.1225C14.5547 28.1225 14.1725 28.1106 12.8988 28.0522C11.7207 27.9984 11.0813 27.8019 10.6559 27.6363C10.0916 27.417 9.68941 27.1557 9.26648 26.7332C8.84391 26.3102 8.58199 25.908 8.36332 25.3438C8.19738 24.9184 8.00121 24.2789 7.94742 23.1008C7.88906 21.8271 7.87711 21.445 7.87711 18.2194C7.87711 14.9938 7.88906 14.612 7.94742 13.3379C8.00121 12.1602 8.19773 11.5207 8.36332 11.095C8.58234 10.5307 8.84391 10.1285 9.26648 9.70594C9.68941 9.28336 10.0916 9.02109 10.6559 8.80242C11.0813 8.63684 11.7207 8.44031 12.8988 8.38652C14.1725 8.32887 14.5547 8.31621 17.7803 8.31621C21.0059 8.31621 21.3877 8.32852 22.6617 8.38652C23.8395 8.44031 24.4789 8.63684 24.9047 8.80242C25.4689 9.0218 25.8711 9.28301 26.2937 9.70594C26.7163 10.1285 26.9786 10.5311 27.1972 11.095C27.3628 11.5207 27.5593 12.1602 27.6131 13.3379ZM23.9832 18.2197C23.9832 14.7941 21.2062 12.0168 17.7803 12.0168C14.3543 12.0168 11.577 14.7941 11.577 18.2197C11.577 21.6454 14.3543 24.423 17.7803 24.423C21.2062 24.423 23.9832 21.6457 23.9832 18.2197ZM25.6781 11.7717C25.6781 10.9712 25.0291 10.3222 24.2283 10.3222C23.4274 10.3222 22.7788 10.9712 22.7788 11.7717C22.7788 12.5722 23.4274 13.2216 24.2283 13.2216C25.0291 13.2216 25.6781 12.5726 25.6781 11.7717Z" fill="white"/>
</g>
<defs>
<clipPath id="clip0_635_90">
<rect width="36" height="36" fill="white"/>
</clipPath>
</defs>
</svg>
