<svg width="31" height="31" viewBox="0 0 31 31" fill="none" xmlns="http://www.w3.org/2000/svg">
<path d="M15.9727 12.6111C16.6366 12.6111 17.294 12.4803 17.9073 12.2263C18.5207 11.9722 19.078 11.5998 19.5475 11.1304C20.0169 10.6609 20.3893 10.1036 20.6434 9.49023C20.8974 8.87686 21.0282 8.21946 21.0282 7.55556C21.0282 6.89165 20.8974 6.23425 20.6434 5.62088C20.3893 5.00751 20.0169 4.45019 19.5475 3.98074C19.078 3.51129 18.5207 3.1389 17.9073 2.88483C17.294 2.63077 16.6366 2.5 15.9727 2.5C14.6318 2.5 13.3459 3.03264 12.3978 3.98074C11.4497 4.92884 10.9171 6.21474 10.9171 7.55556C10.9171 8.89637 11.4497 10.1823 12.3978 11.1304C13.3459 12.0785 14.6318 12.6111 15.9727 12.6111ZM2.97266 27.6333V28.5H28.9727V27.6333C28.9727 24.3978 28.9727 22.78 28.3429 21.5436C27.7889 20.4564 26.9051 19.5726 25.818 19.0187C24.5815 18.3889 22.9638 18.3889 19.7282 18.3889H12.2171C8.98154 18.3889 7.36377 18.3889 6.12732 19.0187C5.04021 19.5726 4.15636 20.4564 3.60243 21.5436C2.97266 22.78 2.97266 24.3978 2.97266 27.6333Z" fill="white" stroke="white" stroke-width="4" stroke-linecap="round" stroke-linejoin="round"/>
</svg>
