<svg width="168" height="46" viewBox="0 0 168 46" fill="none" xmlns="http://www.w3.org/2000/svg">
<path d="M105.215 17.1787C109.565 18.3695 114.095 18.9649 118.607 18.9275C119.798 18.9173 120.94 17.893 120.884 16.6637C120.83 15.4458 119.883 14.3898 118.607 14.3999C116.488 14.4169 114.372 14.2969 112.27 14.0287C112.734 14.0875 111.988 13.9868 111.898 13.9732C111.646 13.9359 111.393 13.8951 111.141 13.8532C110.637 13.7695 110.133 13.6767 109.631 13.5759C108.554 13.3597 107.486 13.1017 106.426 12.8119C105.278 12.4984 103.897 13.2013 103.624 14.3932C103.35 15.5907 103.986 16.8426 105.215 17.1787Z" fill="white"/>
<path d="M110.051 12.1649C109.761 15.9771 109.47 19.7894 109.18 23.6016C109.09 24.7855 110.291 25.9174 111.458 25.8653C112.768 25.8065 113.638 24.8693 113.735 23.6016C114.025 19.7894 114.316 15.9771 114.606 12.1649C114.696 10.981 113.495 9.84908 112.329 9.90114C111.018 9.95887 110.148 10.8961 110.051 12.1649Z" fill="white"/>
<path d="M102.148 24.0368C107.45 26.3153 113.198 27.3917 118.975 26.9503C120.16 26.8597 121.31 25.9746 121.252 24.6865C121.201 23.5376 120.247 22.3253 118.975 22.4227C117.692 22.5212 116.406 22.5506 115.121 22.5008C114.462 22.4748 113.802 22.4306 113.145 22.365C112.972 22.348 112.799 22.3287 112.627 22.3095C112.583 22.305 112.152 22.254 112.413 22.2857C112.711 22.3219 112.152 22.2484 112.097 22.2393C111.925 22.2133 111.753 22.1861 111.582 22.1578C110.313 21.9473 109.057 21.6632 107.823 21.3066C107.223 21.1335 106.626 20.9422 106.037 20.735C105.709 20.6196 105.384 20.4996 105.06 20.374C104.93 20.3242 104.802 20.2721 104.673 20.2212C104.034 19.9676 105.079 20.3989 104.449 20.1283C103.864 19.8771 103.335 19.7243 102.694 19.8997C102.165 20.0446 101.593 20.4498 101.333 20.9399C100.813 21.9156 100.981 23.5353 102.148 24.0368Z" fill="white"/>
<path d="M108.726 25.8358C108.318 30.0985 107.93 34.3634 107.521 38.6261C107.408 39.809 108.649 40.9409 109.798 40.8899C111.13 40.8311 111.955 39.8927 112.076 38.6261C112.484 34.3634 112.872 30.0985 113.281 25.8358C113.393 24.6529 112.152 23.521 111.003 23.572C109.673 23.632 108.847 24.5692 108.726 25.8358Z" fill="white"/>
<path d="M111.059 33.0663C113.605 33.9311 116.297 34.1133 118.931 33.5677C120.1 33.3255 120.884 31.8959 120.522 30.7833C120.122 29.5552 118.972 28.9428 117.721 29.202C117.627 29.2213 116.785 29.3594 117.322 29.2903C117.051 29.3254 116.778 29.3469 116.506 29.3594C116.022 29.382 115.536 29.3752 115.053 29.339C114.913 29.3288 114.773 29.3152 114.634 29.3005C114.889 29.339 114.88 29.3367 114.607 29.296C114.396 29.2586 114.184 29.2224 113.972 29.1771C113.395 29.0549 112.83 28.8908 112.271 28.7006C111.142 28.318 109.731 29.1386 109.469 30.2818C109.18 31.5382 109.85 32.6554 111.059 33.0663Z" fill="white"/>
<path d="M100.91 30.246C100.881 30.7225 100.843 31.199 100.791 31.6733C100.781 31.765 100.664 32.6128 100.743 32.0864C100.712 32.289 100.683 32.4917 100.648 32.6931C100.486 33.6688 100.273 34.6366 100.012 35.5908C99.7591 36.5121 99.4618 37.421 99.1202 38.3141C99.0348 38.5371 98.9448 38.7589 98.856 38.9808C98.7547 39.2242 98.7513 39.2332 98.8458 39.0057C98.8048 39.0996 98.7638 39.1936 98.7216 39.2864C98.511 39.7539 98.2878 40.2146 98.0543 40.6707C97.5157 41.7256 97.74 43.1745 98.8708 43.7676C99.9094 44.3131 101.41 44.0822 101.986 42.9549C104.017 38.9819 105.19 34.6943 105.465 30.246C105.539 29.062 104.365 27.9301 103.188 27.9822C101.892 28.0399 100.99 28.9771 100.91 30.246Z" fill="white"/>
<path d="M102.367 38.1839C107.463 42.7319 114.304 44.6833 121.052 43.6804C122.234 43.505 122.99 41.9622 122.643 40.8959C122.225 39.6135 121.108 39.1268 119.841 39.3147C119.304 39.3951 120.224 39.2785 119.729 39.3305C119.549 39.3498 119.369 39.369 119.188 39.3849C118.827 39.4166 118.465 39.4369 118.102 39.4483C117.408 39.4698 116.713 39.4539 116.021 39.4018C115.84 39.3883 115.66 39.3724 115.48 39.3543C115.412 39.3475 114.813 39.2773 115.153 39.3204C115.497 39.3645 114.986 39.2932 114.917 39.283C114.739 39.2547 114.56 39.223 114.382 39.1902C113.669 39.0566 112.964 38.8857 112.269 38.6786C111.921 38.5756 111.576 38.4624 111.236 38.3401C111.093 38.2892 110.952 38.2371 110.811 38.1828C110.751 38.159 110.201 37.9417 110.494 38.0617C110.788 38.1817 110.245 37.9508 110.185 37.9236C110.047 37.8613 109.91 37.798 109.775 37.7323C109.449 37.575 109.127 37.4097 108.809 37.2354C108.175 36.8879 107.56 36.5053 106.966 36.0911C106.818 35.9869 106.674 35.8794 106.527 35.7741C106.139 35.4946 106.815 36.022 106.415 35.6858C106.137 35.4527 105.86 35.224 105.589 34.9829C104.703 34.1917 103.23 34.0491 102.368 34.9829C101.57 35.8454 101.421 37.3384 102.367 38.1839Z" fill="white"/>
<path d="M123.031 21.86C128.03 22.2177 133.026 22.5753 138.024 22.933C139.216 23.0179 140.354 21.8306 140.302 20.6692C140.244 19.3698 139.3 18.4971 138.024 18.4055C133.026 18.0478 128.03 17.6901 123.031 17.3324C121.84 17.2475 120.702 18.4349 120.754 19.5962C120.812 20.8956 121.755 21.7694 123.031 21.86Z" fill="white"/>
<path d="M124.503 22.3339C124.221 26.0465 123.937 29.758 123.655 33.4706C123.565 34.6545 124.766 35.7864 125.932 35.7343C127.243 35.6755 128.113 34.7383 128.21 33.4706C128.492 29.758 128.776 26.0465 129.058 22.3339C129.148 21.1499 127.947 20.018 126.781 20.0701C125.47 20.1289 124.6 21.0662 124.503 22.3339Z" fill="white"/>
<path d="M130.329 22.0374C129.83 28.5922 129.33 35.147 128.831 41.7018C128.73 43.0351 130.084 44.3096 131.397 44.2519C132.874 44.1863 133.853 43.1302 133.962 41.7018C134.461 35.147 134.961 28.5922 135.46 22.0374C135.561 20.704 134.207 19.4295 132.894 19.4872C131.417 19.5529 130.437 20.6089 130.329 22.0374Z" fill="white"/>
<path d="M122.593 37.6016C125.141 37.7929 127.69 37.9853 130.238 38.1766C131.429 38.2661 132.568 37.0719 132.516 35.9129C132.456 34.61 131.514 33.7453 130.238 33.6491C127.69 33.4578 125.141 33.2654 122.593 33.0741C121.401 32.9846 120.263 34.1788 120.315 35.3378C120.374 36.6407 121.317 37.5054 122.593 37.6016Z" fill="white"/>
<path d="M139.117 31.5996C141.103 31.7309 143.101 31.9381 145.09 31.9935C145.36 32.0184 145.385 32.015 145.165 31.9845C144.968 31.9494 144.969 31.9528 145.171 31.9958C143.708 31.2917 144.064 29.809 143.946 30.9827C143.883 31.594 144.02 30.6692 143.927 31.131C143.895 31.2929 143.866 31.4547 143.828 31.6155C143.743 31.9822 143.635 32.3444 143.503 32.6964C143.475 32.7711 143.447 32.8458 143.416 32.9194C143.352 33.0767 143.377 33.0179 143.49 32.7428C143.491 32.8775 143.31 33.1175 143.247 33.2375C143.089 33.5374 142.914 33.8283 142.725 34.109C142.659 34.2064 142.56 34.426 142.454 34.4905C142.652 34.2392 142.675 34.2098 142.521 34.4011C142.455 34.4814 142.388 34.5606 142.319 34.6399C141.871 35.1549 141.371 35.6088 140.848 36.0457C140.468 36.3626 141.185 35.817 140.807 36.074C140.633 36.1928 140.463 36.3162 140.286 36.4317C140.02 36.6048 139.749 36.7678 139.472 36.9229C139.15 37.1029 138.82 37.2704 138.485 37.4255C138.376 37.4764 137.909 37.7379 138.45 37.4504C138.269 37.5466 138.056 37.6077 137.862 37.679C136.75 38.0922 135.869 39.2286 136.271 40.4635C136.623 41.5456 137.878 42.4884 139.073 42.0447C141.982 40.9638 144.529 39.2784 146.386 36.7769C147.266 35.5918 147.916 34.1781 148.238 32.7394C148.446 31.8045 148.658 30.7133 148.46 29.7614C148.145 28.2571 146.786 27.6165 145.389 27.4863C143.306 27.2928 141.206 27.209 139.117 27.072C137.926 26.9939 136.787 28.1689 136.84 29.3358C136.898 30.6296 137.841 31.5159 139.117 31.5996Z" fill="white"/>
<path d="M126.03 23.7339L125.841 26.2168L131.745 26.6612L131.934 24.1782L126.03 23.7339Z" fill="white"/>
<path d="M125.657 28.6391L125.468 31.1221L131.372 31.5665L131.561 29.0835L125.657 28.6391Z" fill="white"/>
<path d="M136.839 29.3337C136.614 33.113 138.749 36.451 141.704 38.6423C144.708 40.8699 148.542 41.5547 152.171 40.7556C156.093 39.8919 159.652 37.4629 162.481 34.7033C165.346 31.9076 168.197 28.1655 167.989 23.9594C167.865 21.4557 166.77 19.1025 164.637 17.6876C162.659 16.3758 159.923 16.2297 157.873 17.4465C156.851 18.0532 156.385 19.51 157.056 20.5434C157.719 21.5666 159.077 22.0047 160.171 21.3549C160.236 21.3165 160.315 21.2825 160.376 21.2372C160.562 21.1025 160.225 21.2995 160.186 21.3017C160.342 21.295 160.55 21.1784 160.704 21.1433C160.768 21.1286 160.875 21.1274 160.932 21.098C160.907 21.1105 160.473 21.1218 160.713 21.1365C160.893 21.1478 161.079 21.1331 161.26 21.1388C161.687 21.1535 160.864 21.038 161.278 21.1467C161.456 21.1931 161.635 21.2553 161.812 21.2961C162.045 21.3504 161.66 21.2338 161.639 21.2123C161.682 21.2553 161.799 21.287 161.855 21.3153C162.023 21.3991 162.179 21.4976 162.337 21.5938C162.388 21.6243 162.601 21.7919 162.363 21.604C162.111 21.4047 162.378 21.6266 162.437 21.6809C162.556 21.7907 162.657 21.9141 162.771 22.0262C162.967 22.2186 162.662 21.9028 162.681 21.9028C162.704 21.9017 162.811 22.0918 162.825 22.1133C162.933 22.2797 163.024 22.454 163.12 22.6283C163.295 22.9464 163.086 22.5536 163.097 22.5536C163.11 22.5536 163.176 22.7743 163.183 22.7936C163.238 22.9554 163.286 23.1196 163.327 23.2848C163.368 23.4512 163.395 23.6199 163.43 23.7885C163.486 24.0545 163.406 23.6142 163.405 23.6131C163.462 23.7093 163.43 23.9368 163.434 24.0432C163.446 24.3907 163.42 24.7314 163.397 25.0777C163.379 25.3494 163.409 24.9034 163.421 24.9034C163.417 24.9034 163.378 25.1389 163.375 25.157C163.324 25.4071 163.261 25.6539 163.188 25.8972C163.132 26.0829 163.071 26.2662 163.003 26.4473C162.97 26.5379 162.934 26.6273 162.899 26.7179C162.911 26.685 163.056 26.393 162.936 26.6216C162.724 27.0246 162.532 27.4309 162.296 27.8214C162.093 28.1554 161.877 28.4813 161.649 28.7994C161.57 28.9103 161.209 29.3835 161.476 29.0439C161.341 29.2159 161.203 29.3846 161.063 29.5521C160.555 30.1599 160.019 30.7429 159.457 31.302C158.876 31.8815 158.268 32.4339 157.634 32.9568C157.486 33.0791 157.335 33.1957 157.187 33.3168C156.922 33.533 157.469 33.113 157.191 33.3134C157.114 33.37 157.037 33.4277 156.96 33.4843C156.625 33.7299 156.283 33.9654 155.935 34.1917C155.246 34.64 154.531 35.0508 153.791 35.4119C153.594 35.5081 153.396 35.5987 153.196 35.6881C152.793 35.8715 153.466 35.5919 153.053 35.7458C152.651 35.8964 152.248 36.0401 151.835 36.1612C151.488 36.2631 151.136 36.3514 150.781 36.4238C150.604 36.46 150.428 36.4895 150.251 36.5212C150.198 36.5302 149.898 36.5608 150.2 36.5302C150.549 36.4951 150.041 36.5415 149.971 36.5472C149.633 36.5744 149.294 36.5868 148.954 36.5812C148.8 36.5778 148.646 36.571 148.491 36.5608C148.387 36.554 148.285 36.5427 148.182 36.5348C147.868 36.5087 148.213 36.5178 148.326 36.5574C148.043 36.4589 147.702 36.4476 147.408 36.3763C147.053 36.2891 146.702 36.1827 146.358 36.0594C146.217 36.0084 146.063 35.919 145.917 35.8907C145.925 35.8918 146.325 36.0752 146.1 35.9643C146.029 35.9292 145.956 35.8986 145.884 35.8658C145.552 35.7085 145.227 35.5342 144.913 35.344C144.756 35.2489 144.601 35.1504 144.448 35.0486C144.358 34.9886 143.854 34.6173 144.106 34.8131C144.357 35.009 143.923 34.6581 143.85 34.5958C143.713 34.477 143.578 34.3536 143.447 34.228C143.167 33.9586 142.909 33.6722 142.657 33.3779C142.616 33.3304 142.465 33.1164 142.643 33.3655C142.835 33.6314 142.63 33.3394 142.592 33.2874C142.488 33.1425 142.389 32.9942 142.295 32.8425C142.092 32.5188 141.926 32.1815 141.755 31.8397C141.645 31.6167 141.836 32.0287 141.836 32.0321C141.827 31.9438 141.76 31.834 141.729 31.7491C141.661 31.559 141.601 31.3665 141.548 31.1718C141.501 31.0009 141.461 30.8278 141.428 30.6546C141.326 30.1316 141.436 30.9681 141.409 30.5765C141.379 30.1588 141.366 29.7513 141.391 29.3325C141.461 28.1486 140.293 27.0167 139.113 27.0687C137.822 27.1276 136.914 28.0648 136.839 29.3337Z" fill="white"/>
<path d="M147.814 6.11212C147.68 7.36626 147.546 8.62152 147.411 9.87566C147.285 11.0574 148.549 12.1904 149.689 12.1394C151.03 12.0795 151.831 11.1411 151.966 9.87566C152.101 8.62152 152.235 7.36626 152.37 6.11212C152.496 4.93042 151.232 3.7974 150.092 3.84833C148.751 3.90832 147.95 4.84666 147.814 6.11212Z" fill="white"/>
<path d="M156.012 8.45439C155.178 9.33727 154.343 10.2201 153.509 11.103C152.693 11.9667 152.584 13.4596 153.509 14.304C154.395 15.1122 155.859 15.2254 156.73 14.304C157.565 13.4211 158.399 12.5383 159.233 11.6554C160.049 10.7918 160.159 9.29878 159.233 8.45439C158.348 7.64622 156.884 7.5319 156.012 8.45439Z" fill="white"/>
<path d="M65.2509 0.296247C63.9448 1.01839 62.6067 1.67263 61.2368 2.26574C60.6184 2.534 61.6547 2.10048 61.0307 2.35176C60.8416 2.4276 60.6537 2.50457 60.4636 2.57814C60.1481 2.70152 59.8304 2.8215 59.5127 2.93808C58.7805 3.20634 58.0403 3.45423 57.2955 3.684C55.8686 4.12204 54.4201 4.48878 52.9568 4.78307C52.2246 4.93021 51.4901 5.05812 50.751 5.16791C50.5836 5.19281 50.4151 5.21658 50.2477 5.24035C50.7727 5.16904 50.0997 5.2562 50.045 5.26186C49.6407 5.3094 49.2353 5.35015 48.8299 5.3875C47.6468 5.49616 46.4943 6.35074 46.5524 7.65128C46.6036 8.78431 47.5591 10.0317 48.8299 9.91507C55.4074 9.3095 61.7709 7.4 67.5501 4.2058C68.5921 3.62967 69.0237 2.12086 68.3677 1.10895C67.6868 0.0596817 66.3658 -0.319502 65.2509 0.296247Z" fill="white"/>
<path d="M50.9959 15.9127C56.9175 16.1674 62.9245 15.1306 68.3951 12.8566C68.9679 12.6189 69.4291 12.3722 69.7559 11.8164C70.0418 11.3308 70.1625 10.6166 69.986 10.0722C69.6455 9.0263 68.3609 8.00194 67.1846 8.49092C64.57 9.57754 61.8461 10.3857 59.0572 10.8883C58.7133 10.9505 58.3683 11.0071 58.0232 11.0603C57.8501 11.0863 57.677 11.1112 57.5039 11.1362C57.8399 11.0886 57.5632 11.1271 57.381 11.1497C56.6863 11.2324 55.9905 11.2969 55.2925 11.3433C53.8622 11.4372 52.4273 11.4486 50.9959 11.3863C49.8036 11.3354 48.6648 12.4639 48.7184 13.6501C48.7753 14.9189 49.7193 15.8584 50.9959 15.9127Z" fill="white"/>
<path d="M55.9113 8.11259C57.2516 11.6147 58.2879 15.2209 59.0133 18.8973C59.2433 20.062 60.7055 20.8351 61.8147 20.4785C63.0616 20.0778 63.6515 18.9414 63.4055 17.6941C62.6801 14.0177 61.6427 10.4115 60.3035 6.90939C59.8811 5.8058 58.7491 4.92745 57.5022 5.32814C56.4192 5.67676 55.4581 6.9275 55.9113 8.11259Z" fill="white"/>
<path d="M59.7462 28.7315C59.851 29.2273 59.9478 29.7253 60.0332 30.2245C60.0697 30.4384 60.1038 30.6535 60.1368 30.8674C60.1585 31.01 60.179 31.1538 60.1995 31.2975C60.1665 31.0541 60.1676 31.0689 60.2029 31.3417C60.3054 32.2777 60.3942 33.2138 60.4341 34.1555C60.5183 36.1103 60.4409 38.0662 60.2166 40.0097C60.0799 41.1902 61.361 42.3244 62.4941 42.2735C63.8447 42.2135 64.6259 41.2751 64.7716 40.0097C65.2533 35.8421 65.0039 31.6303 64.1396 27.5272C63.8948 26.3659 62.4576 25.586 61.3382 25.9459C60.1027 26.3443 59.4832 27.4876 59.7462 28.7315Z" fill="white"/>
<path d="M55.5923 37.9484C59.6156 37.7775 63.6377 37.6066 67.6609 37.4357C68.8498 37.3848 69.9954 36.4306 69.9385 35.1719C69.885 33.9891 68.9364 32.8538 67.6609 32.9081C63.6377 33.079 59.6156 33.25 55.5923 33.4209C54.4034 33.4718 53.2578 34.426 53.3148 35.6847C53.3683 36.8675 54.318 38.0028 55.5923 37.9484Z" fill="white"/>
<path d="M54.4282 43.7781C59.5378 44.1483 64.6725 43.7917 69.6956 42.8047C70.8663 42.5749 71.6452 41.1238 71.2865 40.0203C70.8834 38.782 69.7389 38.1922 68.4851 38.439C67.91 38.5522 67.3327 38.6575 66.7542 38.7537C66.4285 38.8069 66.1028 38.8578 65.776 38.9053C65.6314 38.9268 65.4856 38.9461 65.341 38.9676C64.9663 39.0208 65.6678 38.9314 65.292 38.9733C64.0883 39.1068 62.8881 39.2359 61.6799 39.306C59.2634 39.4486 56.8412 39.4249 54.4282 39.2506C53.237 39.1645 52.0983 40.353 52.1507 41.5143C52.2099 42.8138 53.1528 43.6853 54.4282 43.7781Z" fill="white"/>
<path d="M76.4223 30.982C76.8812 30.8915 77.3424 30.8236 77.8025 30.7409C78.069 30.6923 77.7729 30.7409 77.7308 30.7477C77.8378 30.733 77.9448 30.7206 78.0519 30.7081C78.3377 30.6742 78.6236 30.6447 78.9094 30.621C79.8762 30.5372 80.8476 30.5032 81.8166 30.5191C82.7903 30.5349 83.7514 30.6244 84.7194 30.7172C84.9892 30.7432 84.6898 30.7115 84.6488 30.7059C84.7558 30.7206 84.8617 30.7364 84.9688 30.7523C85.217 30.7896 85.4653 30.8304 85.7135 30.8756C86.2089 30.9639 86.7008 31.0669 87.1905 31.1824C87.5446 31.2661 87.8977 31.3544 88.245 31.462C88.3509 31.4948 88.8884 31.6589 88.5991 31.5717C88.3247 31.488 88.5684 31.557 88.631 31.5876C88.729 31.6363 88.8269 31.6838 88.9225 31.7359C89.0171 31.7879 89.107 31.8468 89.1993 31.9023C89.2824 31.9521 89.3974 32.1071 89.2255 31.9147C89.0171 31.6804 89.3371 32.0551 89.3986 32.1151C89.5751 32.2882 89.2881 31.9815 89.2824 31.9736C89.4851 32.243 89.3291 32.0053 89.2892 31.9034C89.3223 31.9883 89.3484 32.0754 89.3735 32.1626C89.3883 32.2169 89.4748 32.6097 89.4213 32.3097C89.3712 32.0245 89.419 32.3199 89.419 32.3754C89.4202 32.4999 89.427 32.6221 89.4247 32.7467C89.4225 32.9323 89.4099 33.119 89.394 33.3047C89.386 33.3964 89.3724 33.488 89.3655 33.5797C89.3439 33.8514 89.3894 33.445 89.3872 33.4314C89.4111 33.6397 89.3029 33.9453 89.2608 34.1525C89.0968 34.9606 88.8611 35.753 88.5604 36.5215C88.5274 36.6064 88.4921 36.6913 88.4579 36.7762C88.5308 36.5985 88.5741 36.5181 88.467 36.7388C88.36 36.9596 88.2575 37.1803 88.1436 37.3976C87.9318 37.8039 87.6995 38.2001 87.449 38.5849C87.3317 38.7638 87.2121 38.9415 87.0869 39.1158C87.0151 39.2154 86.9411 39.3128 86.8694 39.4112C86.9832 39.2539 87.0379 39.203 86.8853 39.3852C86.5699 39.761 86.2442 40.1232 85.8968 40.4707C85.0564 41.3117 84.9881 42.8431 85.8968 43.6717C86.8033 44.4991 88.2211 44.5693 89.1173 43.6717C90.5487 42.2387 91.7433 40.5454 92.5484 38.6891C93.3842 36.7603 94.0515 34.5916 93.9764 32.4671C93.9286 31.1088 93.4992 29.8637 92.5666 28.8541C91.807 28.0312 90.7366 27.5298 89.6924 27.1732C87.6096 26.4624 85.2944 26.1794 83.108 26.0425C80.4638 25.8772 77.8059 26.1047 75.2095 26.6175C74.0389 26.8484 73.2588 28.2972 73.6187 29.4019C74.0241 30.6379 75.1685 31.2288 76.4223 30.982Z" fill="white"/>
<path d="M83.2966 22.8339C83.2715 23.5527 83.226 24.2703 83.152 24.9868C83.1315 25.1815 83.1075 25.3762 83.0859 25.572C83.0358 26.018 83.1212 25.3728 83.0756 25.6501C83.0164 26.0044 82.9652 26.3609 82.9003 26.7152C82.6475 28.0984 82.2979 29.4646 81.8572 30.8002C81.6419 31.4533 81.3994 32.0951 81.1466 32.7346C80.9074 33.3402 81.3345 32.3215 81.0714 32.918C81.0054 33.0674 80.9393 33.2168 80.871 33.3662C80.7218 33.6933 80.5669 34.0193 80.4064 34.3408C79.763 35.6311 79.0262 36.8694 78.2086 38.0579C77.5344 39.0381 77.9911 40.6114 79.0262 41.1548C80.182 41.7614 81.4222 41.3891 82.1419 40.3421C85.6811 35.1987 87.641 29.0537 87.8539 22.8339C87.8949 21.6489 86.7778 20.517 85.5764 20.5702C84.3055 20.6268 83.3398 21.5651 83.2966 22.8339Z" fill="white"/>
<path d="M19.3124 25.4001C26.1712 25.5654 33.2065 24.3384 39.4856 21.5573C40.5777 21.074 40.9182 19.4101 40.3021 18.4605C39.5733 17.3377 38.3548 17.1305 37.1864 17.6478C37.027 17.7191 36.8676 17.7972 36.7025 17.8583C37.2195 17.6648 36.7025 17.8561 36.5875 17.9025C36.2219 18.0485 35.853 18.1888 35.4817 18.3224C34.7757 18.5771 34.0617 18.8102 33.342 19.0242C31.8081 19.4792 30.2479 19.8482 28.6742 20.1402C27.8839 20.2862 27.0901 20.4153 26.2942 20.5228C26.826 20.4515 26.1564 20.5375 26.0994 20.5443C25.899 20.5681 25.6986 20.5907 25.4982 20.6122C25.0973 20.6552 24.6953 20.6937 24.2933 20.7265C22.6364 20.8624 20.975 20.9122 19.3124 20.8725C18.1201 20.8443 16.9802 21.9343 17.0348 23.1363C17.0918 24.3871 18.0358 25.3696 19.3124 25.4001Z" fill="white"/>
<path d="M25.8078 15.194C26.3977 17.4294 26.8703 19.6932 27.2108 21.9796C27.2233 22.0623 27.3417 22.9259 27.2791 22.4483C27.3167 22.7335 27.352 23.0199 27.3862 23.3062C27.4533 23.879 27.5126 24.4517 27.5627 25.0256C27.664 26.1733 27.7323 27.3244 27.7711 28.4767C27.8109 29.6584 28.7903 30.7971 30.0486 30.7405C31.2477 30.6873 32.3694 29.7444 32.3261 28.4767C32.1599 23.5926 31.447 18.7175 30.1989 13.9908C29.8971 12.8453 28.5579 12.036 27.3975 12.4095C26.2132 12.7909 25.4844 13.9659 25.8078 15.194Z" fill="white"/>
<path d="M31.5549 26.7403C28.043 26.7595 24.252 27.8733 21.6761 30.3159C19.7972 32.0987 18.5833 34.7597 18.6391 37.3586C18.7017 40.3083 20.4622 42.8833 23.1474 44.1228C25.8816 45.3848 28.8173 45.5286 31.7656 45.1324C33.5933 44.8868 35.3391 44.4012 36.996 43.5749C41.2401 41.4572 45.0698 35.6256 41.9473 31.0992C39.7119 27.8597 35.3277 26.7312 31.5549 26.7403C30.3638 26.7437 29.2227 27.7794 29.2774 29.0041C29.3321 30.2276 30.2784 31.2713 31.5549 31.2679C31.8624 31.2667 32.1687 31.2826 32.4751 31.3029C32.7256 31.3199 32.9761 31.3426 33.2255 31.3709C33.2881 31.3777 33.3508 31.3867 33.4134 31.3924C33.8051 31.4331 32.8634 31.3097 33.1515 31.3573C33.3428 31.389 33.5341 31.415 33.7254 31.449C34.4576 31.5791 35.183 31.7591 35.8857 32.0058C36.0975 32.0806 36.6464 32.3964 36.0314 32.0477C36.1908 32.1383 36.3719 32.2017 36.5359 32.2854C36.701 32.3703 36.865 32.4597 37.0233 32.5548C37.1121 32.608 37.1987 32.6623 37.2841 32.7201C37.4594 32.8355 37.7191 33.1445 37.2727 32.6895C37.53 32.951 37.817 33.1796 38.0687 33.4513C38.3112 33.7127 37.9525 33.3166 37.9411 33.2826C37.9673 33.3664 38.0664 33.4626 38.1154 33.5396C38.1712 33.6279 38.2247 33.7173 38.2748 33.809C38.3431 33.9357 38.4171 34.2436 38.3055 33.835C38.375 34.0897 38.5618 34.4157 38.531 34.6828C38.5367 34.6364 38.5025 34.1519 38.5014 34.582C38.5014 34.6918 38.5071 34.8016 38.5048 34.9114C38.5025 34.9657 38.5003 35.0201 38.498 35.0744C38.4741 35.3302 38.4843 35.2906 38.5265 34.9533C38.5435 35.0042 38.4741 35.2363 38.4672 35.2668C38.4114 35.5215 38.3386 35.7728 38.2509 36.0184C38.2327 36.0659 38.2156 36.1146 38.1973 36.1622C38.1051 36.3919 38.1233 36.3512 38.252 36.0388C38.2588 36.0456 38.1165 36.3218 38.1245 36.3048C38.0197 36.5142 37.9058 36.7179 37.784 36.9183C37.6952 37.0654 37.6018 37.2092 37.5038 37.3506C37.448 37.4321 37.3888 37.5102 37.333 37.5917C37.0449 38.0094 37.6485 37.2171 37.4048 37.5057C37.2419 37.6981 37.0825 37.8917 36.9083 38.0739C36.709 38.2833 36.4983 38.4837 36.2785 38.6727C36.2375 38.7078 36.0451 38.8934 36.0166 38.89C36.2341 38.7259 36.2763 38.6919 36.143 38.7904C36.0758 38.8391 36.0086 38.8878 35.9403 38.9342C35.544 39.207 35.1261 39.4503 34.6956 39.6654C34.5579 39.7344 34.4166 39.7967 34.2789 39.8634C33.9566 40.0174 34.4064 39.7989 34.4087 39.8114C34.4144 39.8442 33.7083 40.0706 33.6662 40.0853C32.934 40.3298 32.1801 40.5109 31.4183 40.6399C31.186 40.6795 30.9537 40.7124 30.7214 40.7441C30.2351 40.812 31.3363 40.6841 30.7532 40.7373C30.4515 40.7656 30.1497 40.7973 29.8468 40.8142C29.3002 40.8448 28.7524 40.8448 28.2058 40.812C28.0248 40.8018 27.8448 40.7814 27.6638 40.769C27.518 40.7599 27.2754 40.8097 27.7332 40.7859C27.4326 40.8018 27.0614 40.675 26.7721 40.6094C26.517 40.5516 26.2642 40.4849 26.0137 40.4079C25.877 40.366 25.7415 40.3207 25.606 40.2721C25.4682 40.2223 25.0947 40.1453 25.5992 40.2822C25.1778 40.1679 24.4673 39.7933 24.1746 39.4673C24.2099 39.5069 24.5515 39.8035 24.26 39.5194C24.1586 39.4209 24.0505 39.3292 23.9514 39.2273C23.8797 39.1538 23.7009 39.0191 23.6747 38.9228C23.6815 38.9477 23.9662 39.3643 23.7419 38.9987C23.6997 38.9296 23.3148 38.4022 23.3592 38.3263C23.3661 38.315 23.546 38.8719 23.4162 38.4463C23.3718 38.3014 23.3217 38.1622 23.2841 38.0151C23.2545 37.8996 23.2465 37.7604 23.2044 37.6495C23.0939 37.362 23.234 38.2222 23.2158 37.7321C23.2078 37.5068 23.1907 37.2839 23.1975 37.0575C23.2009 36.9318 23.2135 36.8073 23.2192 36.6817C23.2283 36.4927 23.341 36.3942 23.1941 36.8334C23.2807 36.5753 23.3 36.2821 23.374 36.0184C23.4367 35.7977 23.5118 35.5838 23.5893 35.3687C23.7612 34.8888 23.415 35.7128 23.5665 35.4196C23.6246 35.3076 23.6747 35.1921 23.7328 35.0801C23.8364 34.8809 23.9491 34.6862 24.0698 34.496C24.1359 34.3919 24.2088 34.2923 24.2759 34.1881C24.5185 33.8123 23.9708 34.5209 24.2907 34.1644C24.3693 34.0761 25.4477 33.0325 25.45 33.0393C25.4591 33.0596 24.9865 33.3664 25.3339 33.1343C25.4523 33.0551 25.5673 32.9714 25.6869 32.8944C25.9032 32.754 26.1264 32.6239 26.3531 32.5016C26.5762 32.3816 26.8051 32.2752 27.034 32.1654C27.3768 32.0013 26.9054 32.2243 26.8644 32.2334C26.9896 32.2051 27.1172 32.1326 27.239 32.0873C27.6797 31.9244 28.1295 31.7851 28.585 31.6685C28.995 31.5633 29.4106 31.4761 29.8274 31.4048C29.9607 31.3822 30.6166 31.2871 30.1292 31.3539C29.6372 31.4218 30.2533 31.3437 30.3661 31.3324C30.7624 31.2939 31.1598 31.2679 31.5572 31.2656C32.7484 31.2588 33.8905 30.2288 33.8347 29.0018C33.7778 27.7828 32.8315 26.7335 31.5549 26.7403Z" fill="white"/>
<path d="M32.9793 6.46262C32.7356 6.66183 32.4874 6.85652 32.2414 7.05347C32.0273 7.22439 32.5603 6.81577 32.2141 7.07271C32.0706 7.17911 31.9282 7.28664 31.7848 7.39191C31.2416 7.7892 30.6893 8.17404 30.129 8.54643C28.9697 9.31725 27.7774 10.0371 26.5612 10.7151C25.2778 11.4305 23.9671 12.0994 22.6359 12.7231C21.9356 13.0514 21.2295 13.3649 20.5201 13.6716C20.4552 13.6988 20.3903 13.7271 20.3254 13.7543C20.5098 13.6773 20.5281 13.6694 20.3789 13.7316C20.2149 13.7984 20.0509 13.8675 19.8858 13.9342C19.4895 14.095 19.0921 14.2512 18.6924 14.4051C17.5855 14.8318 16.6961 15.9445 17.1015 17.1896C17.45 18.2592 18.714 19.2292 19.9029 18.7708C25.7356 16.5206 31.352 13.6298 36.1997 9.66361C37.1233 8.90751 37.0459 7.23457 36.1997 6.46262C35.2193 5.56729 33.9643 5.65671 32.9793 6.46262Z" fill="white"/>
<path d="M2.44959 34.2787C4.38208 34.3454 6.31342 34.4122 8.24591 34.479C8.76632 34.4971 9.28674 34.5152 9.80602 34.5333C10.0292 34.5413 10.2524 34.5458 10.4745 34.556C10.5804 34.5594 10.6863 34.565 10.791 34.5741C10.6954 34.5605 10.5997 34.548 10.5052 34.5345C10.6088 34.5526 10.7102 34.5786 10.8093 34.6114C10.4745 34.5277 10.216 34.3251 10.036 34.0059C9.97797 33.7919 9.91989 33.5791 9.86068 33.3652C9.91762 33.0619 9.91306 33.0404 9.84815 33.3007C9.5851 33.8587 10.0315 32.9894 9.80374 33.398C9.72517 33.5395 9.65684 33.6878 9.58168 33.8304C8.90867 35.1129 8.14342 36.3489 7.33376 37.5487C6.91355 38.1724 6.47171 38.7791 6.0219 39.3812C5.91941 39.5137 5.95471 39.4695 6.12667 39.2465C6.06062 39.3303 5.99457 39.4129 5.92738 39.4955C5.83059 39.6155 5.73265 39.7344 5.63358 39.8521C5.42063 40.1034 5.20199 40.349 4.97424 40.5878C4.15546 41.4492 4.04956 42.9456 4.97424 43.7888C5.86247 44.5992 7.32123 44.709 8.19466 43.7888C9.44389 42.4736 10.5155 40.9727 11.513 39.4639C12.4935 37.9811 13.4876 36.427 14.139 34.7688C14.7346 33.252 14.295 31.458 12.8363 30.6C11.7875 29.982 10.5337 30.0307 9.35848 29.9899C7.05476 29.9107 4.75104 29.8303 2.44731 29.7511C1.25503 29.7103 0.116262 30.8219 0.169784 32.0149C0.229 33.2769 1.1719 34.2345 2.44959 34.2787Z" fill="white"/>
<path d="M6.97035 25.1129C8.43024 25.1129 9.96416 24.4813 10.997 23.4558C11.9843 22.4744 12.7279 20.8637 12.6642 19.4534C12.5981 17.9899 12.1142 16.472 10.997 15.451C9.88331 14.4346 8.51337 13.7939 6.97035 13.7939C5.51045 13.7939 3.97653 14.4255 2.94367 15.451C1.95636 16.4324 1.21275 18.0431 1.27652 19.4534C1.34257 20.9169 1.82654 22.4348 2.94367 23.4558C4.05852 24.4722 5.42732 25.1129 6.97035 25.1129Z" fill="white"/>
<path d="M49.815 19.0646C47.3712 21.943 47.2345 26.2997 49.9266 29.0921C52.2918 31.5449 56.5246 32.1776 59.3555 30.1413C62.4917 27.8855 63.6589 23.7473 61.6832 20.3199C59.8019 17.0578 55.174 15.4879 51.801 17.4381C49.5189 18.7579 48.5122 22.166 50.7203 24.0608C51.8465 25.0275 53.393 25.3048 54.7356 24.5939C56.1488 23.8458 56.6863 22.3211 56.413 20.8259C56.2 19.6578 54.7094 18.8915 53.6116 19.2446C52.351 19.6498 51.793 20.7783 52.0208 22.0291C51.9057 21.3963 52.0697 20.793 52.704 20.561C52.9056 20.4874 53.098 20.4716 53.3087 20.5101C53.4385 20.5327 53.9293 20.8213 53.6014 20.5916C53.7756 20.7138 53.8713 20.7976 53.9886 20.9911C53.91 20.861 53.8371 20.6572 54.017 21.1292C53.8895 20.7953 54.0261 21.153 54.0284 21.2367C53.9737 21.5186 53.9681 21.5752 54.009 21.4054C54.0557 21.2469 54.0307 21.2888 53.9362 21.5333C54.1058 21.1926 53.9498 21.4688 53.8781 21.548C53.9123 21.5107 54.0603 21.3205 54.1298 21.2979C53.7312 21.4314 54.0261 21.4246 54.1799 21.3047C54.4201 21.1156 53.8257 21.402 54.1229 21.3171C54.1559 21.3081 54.8916 21.1258 54.8927 21.1168C54.8882 21.1507 54.3177 21.153 54.7959 21.1371C54.9679 21.1315 55.1364 21.1236 55.3084 21.1281C55.3551 21.1292 55.6432 21.1586 55.6489 21.1496C55.5976 21.2209 55.2013 21.0624 55.5509 21.1417C55.8026 21.1994 56.0486 21.2571 56.2934 21.3409C56.3731 21.368 56.692 21.5276 56.4187 21.3828C56.1408 21.2356 56.4631 21.4156 56.5314 21.4518C56.6567 21.5186 56.7797 21.5899 56.9004 21.6657C56.963 21.7054 57.3229 22.0064 57.0849 21.7868C56.8195 21.5435 57.2261 21.9306 57.2409 21.9442C57.324 22.0257 57.4014 22.1117 57.4823 22.1955C57.5688 22.2849 57.6975 22.5237 57.4606 22.1536C57.5244 22.2532 57.5962 22.3483 57.6588 22.449C57.7214 22.5497 57.7806 22.6527 57.8364 22.7569C57.8501 22.7818 58.0539 23.2991 57.9458 22.9708C57.8501 22.6822 57.9617 23.0478 57.9833 23.118C58.0357 23.2877 58.0631 23.4654 58.1154 23.6341C58.2122 23.9442 58.1006 23.2334 58.1109 23.5594C58.1154 23.702 58.1325 23.8435 58.1325 23.9861C58.1325 24.0936 58.1257 24.2 58.1223 24.3076C58.1143 24.5758 58.0004 24.4128 58.1473 24.1842C58.0551 24.3291 58.0505 24.6403 57.9993 24.809C57.989 24.8441 57.8501 25.3512 57.9492 24.9924C58.0391 24.6686 57.9025 25.0852 57.8626 25.161C57.7499 25.3783 57.6098 25.5719 57.4834 25.7802C57.324 26.0428 57.7567 25.4836 57.5426 25.7055C57.4493 25.8028 57.365 25.9081 57.2705 26.0043C57.1942 26.0812 57.1133 26.1514 57.037 26.2273C56.8594 26.4027 56.8628 26.2397 57.1236 26.1797C56.922 26.2261 56.6282 26.4989 56.4403 26.6076C56.0862 26.8125 56.4733 26.5714 56.5439 26.5804C56.4927 26.5736 56.3048 26.6676 56.2387 26.6891C56.1135 26.7287 55.9859 26.7626 55.8573 26.7921C55.7525 26.8158 55.4701 26.9426 55.7719 26.8204C56.0839 26.6947 55.7183 26.8215 55.6045 26.826C55.4997 26.8306 55.3938 26.8317 55.289 26.8306C55.1831 26.8294 55.0795 26.8204 54.9736 26.8158C54.4497 26.7921 55.4621 26.9392 54.9531 26.8113C54.7481 26.7592 54.542 26.7185 54.3404 26.6529C54.3199 26.6461 54.0705 26.5838 54.0421 26.5476C54.1263 26.5827 54.2106 26.6178 54.2937 26.654C54.222 26.6212 54.1503 26.5872 54.0796 26.551C53.8918 26.4559 53.7096 26.3495 53.5342 26.2329C53.5125 26.2182 53.4909 26.2035 53.4681 26.1888C53.2677 26.045 53.2962 26.0677 53.5524 26.2578C53.4704 26.251 53.3144 26.0473 53.2609 25.9941C53.1664 25.9024 53.081 25.8039 52.9899 25.71C52.704 25.4157 53.1356 25.9635 53.0092 25.7326C52.9432 25.6138 52.8589 25.504 52.7928 25.3851C52.7587 25.324 52.54 24.8984 52.6915 25.2108C52.8509 25.5391 52.6437 25.0569 52.6311 25.0195C52.5901 24.8882 52.5548 24.7558 52.5241 24.6222C52.4785 24.4242 52.3134 24.2102 52.507 24.6551C52.4592 24.5441 52.4808 24.3608 52.4763 24.2431C52.4706 24.105 52.4706 23.968 52.4763 23.8299C52.4797 23.7541 52.5138 23.273 52.4797 23.6375C52.4444 24.0201 52.5138 23.4937 52.5241 23.4496C52.5548 23.3149 52.5913 23.1825 52.6311 23.0512C52.6676 22.9323 52.6972 22.7648 52.7678 22.6618C52.6209 22.8757 52.6414 22.9436 52.7826 22.681C52.8475 22.5599 52.9272 22.4467 52.9933 22.3268C53.2119 21.9283 52.7177 22.6358 53.0377 22.2588C53.8052 21.3545 53.9965 19.9317 53.0377 19.0579C52.1893 18.2927 50.6349 18.098 49.815 19.0646Z" fill="white"/>
<path d="M61.3225 18.2219C58.8788 21.1003 58.7421 25.4569 61.4341 28.2493C63.7994 30.7021 68.0322 31.3348 70.8631 29.2986C73.9993 27.0427 75.1665 22.9045 73.1908 19.4771C71.3095 16.215 66.6816 14.6451 63.3086 16.5953C61.0265 17.9151 60.0198 21.3233 62.2279 23.218C63.3541 24.1847 64.9005 24.462 66.2432 23.7512C67.6564 23.003 68.1939 21.4783 67.9206 19.9831C67.7076 18.815 66.217 18.0487 65.1192 18.4018C63.8586 18.8071 63.3006 19.9356 63.5283 21.1863C63.4133 20.5536 63.5773 19.9503 64.2116 19.7182C64.4132 19.6447 64.6056 19.6288 64.8163 19.6673C64.9461 19.6899 65.4369 19.9786 65.1089 19.7488C65.2832 19.871 65.3788 19.9548 65.4961 20.1484C65.4175 20.0182 65.3447 19.8144 65.5246 20.2864C65.397 19.9525 65.5348 20.3102 65.536 20.394C65.4813 20.6758 65.4756 20.7324 65.5166 20.5626C65.5633 20.4042 65.5383 20.446 65.4437 20.6905C65.6134 20.3498 65.4574 20.626 65.3857 20.7052C65.4198 20.6679 65.5679 20.4777 65.6373 20.4551C65.2388 20.5887 65.5337 20.5819 65.6874 20.4619C65.9277 20.2729 65.3333 20.5592 65.6305 20.4743C65.6635 20.4653 66.3992 20.283 66.4003 20.274C66.3957 20.308 65.8252 20.3102 66.3035 20.2944C66.4755 20.2887 66.644 20.2808 66.8159 20.2853C66.8626 20.2864 67.1507 20.3159 67.1564 20.3068C67.1052 20.3781 66.7089 20.2197 67.0585 20.2989C67.3102 20.3566 67.5561 20.4143 67.801 20.4981C67.8807 20.5253 68.1995 20.6849 67.9262 20.54C67.6484 20.3928 67.9707 20.5728 68.039 20.609C68.1642 20.6758 68.2872 20.7471 68.4079 20.823C68.4706 20.8626 68.8304 21.1637 68.5924 20.9441C68.3271 20.7007 68.7336 21.0878 68.7484 21.1014C68.8316 21.1829 68.909 21.2689 68.9899 21.3527C69.0764 21.4421 69.2051 21.6809 68.9682 21.3108C69.032 21.4104 69.1037 21.5055 69.1664 21.6062C69.229 21.707 69.2882 21.81 69.344 21.9141C69.3577 21.939 69.5615 22.4563 69.4533 22.128C69.3577 21.8394 69.4693 22.205 69.4909 22.2752C69.5433 22.445 69.5706 22.6227 69.623 22.7913C69.7198 23.1015 69.6082 22.3906 69.6184 22.7166C69.623 22.8592 69.6401 23.0007 69.6401 23.1433C69.6401 23.2509 69.6333 23.3573 69.6298 23.4648C69.6219 23.7331 69.508 23.5701 69.6549 23.3414C69.5626 23.4863 69.5581 23.7976 69.5069 23.9662C69.4966 24.0013 69.3577 24.5084 69.4567 24.1496C69.5467 23.8259 69.4101 24.2424 69.3702 24.3182C69.2575 24.5356 69.1174 24.7291 68.991 24.9374C68.8316 25.2 69.2643 24.6408 69.0502 24.8627C68.9568 24.96 68.8726 25.0653 68.778 25.1615C68.7017 25.2385 68.6209 25.3087 68.5446 25.3845C68.3669 25.5599 68.3704 25.3969 68.6311 25.3369C68.4296 25.3834 68.1358 25.6561 67.9479 25.7648C67.5937 25.9697 67.9809 25.7286 68.0515 25.7376C68.0003 25.7308 67.8124 25.8248 67.7463 25.8463C67.6211 25.8859 67.4935 25.9199 67.3648 25.9493C67.2601 25.9731 66.9777 26.0998 67.2794 25.9776C67.5914 25.852 67.2259 25.9787 67.112 25.9833C67.0073 25.9878 66.9014 25.9889 66.7966 25.9878C66.6907 25.9867 66.5871 25.9776 66.4812 25.9731C65.9573 25.9493 66.9697 26.0964 66.4607 25.9685C66.2557 25.9165 66.0496 25.8757 65.848 25.8101C65.8275 25.8033 65.5781 25.741 65.5496 25.7048C65.6339 25.7399 65.7182 25.775 65.8013 25.8112C65.7296 25.7784 65.6578 25.7444 65.5872 25.7082C65.3993 25.6131 65.2171 25.5067 65.0417 25.3901C65.0201 25.3754 64.9985 25.3607 64.9757 25.346C64.7753 25.2023 64.8038 25.2249 65.06 25.415C64.978 25.4083 64.822 25.2045 64.7684 25.1513C64.6739 25.0596 64.5885 24.9612 64.4974 24.8672C64.2116 24.5729 64.6432 25.1208 64.5168 24.8899C64.4507 24.771 64.3665 24.6612 64.3004 24.5424C64.2663 24.4812 64.0476 24.0556 64.1991 24.368C64.3585 24.6963 64.1512 24.2141 64.1387 24.1768C64.0977 24.0455 64.0624 23.913 64.0317 23.7795C63.9861 23.5814 63.821 23.3675 64.0146 23.8123C63.9668 23.7014 63.9884 23.518 63.9838 23.4003C63.9781 23.2622 63.9781 23.1252 63.9838 22.9871C63.9873 22.9113 64.0214 22.4302 63.9873 22.7947C63.952 23.1773 64.0214 22.651 64.0317 22.6068C64.0624 22.4721 64.0989 22.3397 64.1387 22.2084C64.1751 22.0896 64.2048 21.922 64.2754 21.819C64.1285 22.033 64.149 22.1009 64.2902 21.8383C64.3551 21.7172 64.4348 21.604 64.5008 21.484C64.7195 21.0856 64.2253 21.793 64.5452 21.4161C65.3128 20.5117 65.5041 19.0889 64.5452 18.2151C63.698 17.4499 62.1436 17.2552 61.3225 18.2219Z" fill="white"/>
</svg>
