<svg width="152" height="41" viewBox="0 0 152 41" fill="none" xmlns="http://www.w3.org/2000/svg">
<path d="M99.1961 14.3093C97.7288 16.696 95.2354 21.244 98.5404 23.3124C99.6478 24.0055 101.111 23.8944 102.311 23.5506C103.568 23.1907 104.78 22.5703 105.87 21.8548C107.245 20.9535 108.544 19.8825 109.618 18.6352C110.347 17.7895 110.511 16.4344 109.618 15.6153C108.819 14.8806 107.376 14.7109 106.598 15.6153C106.211 16.066 105.795 16.492 105.357 16.8925C105.147 17.0836 104.934 17.2684 104.715 17.4478C104.606 17.5364 104.488 17.6186 104.384 17.7126C104.907 17.2449 104.469 17.6432 104.311 17.7564C103.844 18.0928 103.36 18.4067 102.859 18.6897C102.637 18.8146 102.411 18.9342 102.183 19.0474C102.073 19.1019 101.962 19.1521 101.851 19.2044C101.391 19.419 102.341 19.0218 101.874 19.1948C101.455 19.3507 101.037 19.4767 100.598 19.5685C100.183 19.655 101.055 19.5461 100.83 19.5376C100.747 19.5344 100.66 19.5504 100.577 19.5515C100.5 19.5525 100.415 19.5365 100.339 19.544C100.13 19.5643 100.728 19.5739 100.738 19.6006C100.737 19.5963 100.59 19.5707 100.58 19.5685C100.557 19.5632 100.391 19.5312 100.385 19.5066C100.389 19.5205 101.009 19.8088 100.678 19.6113C100.451 19.4756 101.166 20.0533 100.926 19.7971C100.676 19.5312 101.263 20.2797 101.098 20.0213C101.076 19.9871 101.054 19.9487 101.039 19.9113C101.033 19.8964 101.211 20.4848 101.196 20.2755C101.195 20.2605 101.133 20.0587 101.142 20.0576C101.202 20.048 101.167 20.7763 101.188 20.315C101.192 20.2103 101.197 20.1025 101.198 19.9978C101.202 19.639 101.076 20.6001 101.186 20.1281C101.22 19.9786 101.253 19.8291 101.294 19.6817C101.341 19.5151 101.396 19.3507 101.455 19.1873C101.488 19.0965 101.7 18.5583 101.561 18.8979C101.432 19.2161 101.544 18.9417 101.581 18.8638C101.628 18.7634 101.674 18.6609 101.723 18.5605C101.827 18.3426 101.937 18.128 102.05 17.9144C102.313 17.4211 102.596 16.9395 102.889 16.4632C103.475 15.5107 103.127 14.0712 102.122 13.5415C101.076 12.9927 99.8208 13.2917 99.1961 14.3093Z" fill="white"/>
<path d="M109.929 21.0297C111.421 21.2294 113.024 21.2593 114.35 20.4242C115.825 19.4952 116.646 17.9169 116.335 16.1773C116.051 14.5873 114.615 13.3048 113.062 13.0058C111.576 12.7196 110.123 13.1361 108.843 13.8985C106.424 15.3412 104.481 18.123 106.009 20.9207C107.196 23.0928 109.992 24.6988 112.463 24.6219C115.251 24.5344 117.945 22.8643 120.15 21.2796C121.286 20.4626 122.34 19.5656 123.376 18.627C123.477 18.5352 123.582 18.4497 123.684 18.359C123.924 18.1475 123.268 18.6078 123.719 18.3472C123.81 18.2938 123.908 18.2383 123.998 18.1817C124.417 17.9158 123.6 18.2746 124.059 18.1764C123.835 18.2244 123.7 18.2095 123.488 18.1625C123.87 18.2468 123.239 18.0343 123.168 17.9692C123.204 18.0023 122.86 17.5132 122.901 17.5207C122.933 17.6147 122.956 17.7108 122.974 17.8079C122.94 17.5154 122.927 17.4513 122.935 17.6179C122.924 17.7161 122.979 17.9137 122.924 17.998C122.935 17.9201 122.946 17.8432 122.956 17.7652C122.941 17.8592 122.925 17.9532 122.908 18.0461C122.838 18.4519 122.765 18.8598 122.727 19.2698C122.645 20.1359 122.815 21.0585 123.269 21.8092C124.097 23.1782 125.599 23.9182 127.156 24.041C128.701 24.1638 130.195 23.5092 131.546 22.844C132.61 22.3196 133.627 21.7046 134.593 21.0169C139.054 17.8357 142.312 13.434 146.116 9.55767C146.9 8.75998 146.971 7.32265 146.116 6.53777C145.27 5.76144 143.932 5.68562 143.096 6.53777C140.195 9.4936 137.642 12.7922 134.57 15.5804C134.236 15.8837 133.896 16.1805 133.549 16.4688C133.354 16.6312 133.154 16.7881 132.957 16.9483C132.691 17.163 133.364 16.6525 132.918 16.9761C132.804 17.0594 132.691 17.1448 132.575 17.2281C131.736 17.8357 130.857 18.3889 129.941 18.8737C129.702 18.9997 129.461 19.1214 129.218 19.2389C129.103 19.2944 128.985 19.3489 128.87 19.4044C128.496 19.5817 128.766 19.4524 128.849 19.4204C128.581 19.5261 128.31 19.6233 128.032 19.697C127.909 19.7301 127.783 19.7493 127.661 19.7824C127.504 19.8112 127.537 19.807 127.759 19.7717C127.664 19.7803 127.569 19.7845 127.474 19.7835C127.376 19.7835 127.064 19.8518 127.366 19.7974C127.648 19.7461 127.34 19.7878 127.208 19.7514C127.152 19.7354 126.96 19.6489 126.922 19.6575C126.962 19.6489 127.382 19.8636 127.028 19.6799C126.694 19.5069 127.076 19.6927 127.097 19.7621C127.103 19.7792 126.881 19.572 126.886 19.5635C126.835 19.6671 127.172 19.9148 126.923 19.5902C126.847 19.4492 126.871 19.509 126.993 19.7707C126.98 19.7237 126.966 19.6767 126.953 19.6297C126.961 19.6959 126.969 19.7621 126.977 19.8283C126.97 19.7354 126.971 19.6425 126.977 19.5496C126.979 19.4823 127.032 19.0947 126.988 19.3659C126.935 19.6927 127.046 19.0787 127.044 19.0872C127.065 18.9623 127.085 18.8384 127.103 18.7124C127.211 17.9649 127.256 17.2708 127.061 16.5254C126.656 14.9845 125.244 13.8601 123.634 13.954C122.218 14.0363 121.1 14.9162 120.103 15.842C119.713 16.204 119.313 16.5553 118.902 16.8939C118.781 16.9932 118.658 17.0903 118.536 17.1886C118.478 17.2366 118.213 17.4289 118.524 17.2003C118.271 17.3861 118.022 17.5741 117.765 17.7546C116.844 18.4027 115.879 18.9911 114.88 19.5144C114.656 19.6318 114.429 19.7461 114.201 19.854C114.085 19.9084 113.969 19.9639 113.851 20.0131C114.208 19.8636 113.895 19.9906 113.826 20.0131C113.553 20.1006 113.287 20.1978 113.007 20.2672C112.854 20.3046 112.7 20.3377 112.546 20.3633C112.852 20.3131 112.665 20.3452 112.463 20.3516C112.307 20.3569 112.154 20.3494 111.999 20.343C112.092 20.3473 112.412 20.4381 112.011 20.3366C111.843 20.2939 111.676 20.2501 111.513 20.1935C111.526 20.1978 111.257 20.1113 111.255 20.0964C111.261 20.153 111.692 20.2971 111.306 20.1049C111.083 19.9938 110.866 19.87 110.656 19.7354C110.57 19.681 110.49 19.619 110.405 19.5656C110.141 19.4033 110.779 19.9084 110.417 19.5774C110.271 19.4439 110.122 19.3158 109.984 19.1727C109.991 19.1812 109.786 18.9772 109.791 18.958C109.776 19.0146 110.037 19.351 109.833 18.9975C109.791 18.9228 109.751 18.832 109.697 18.7658C109.622 18.6195 109.647 18.6911 109.776 18.9794C109.752 18.9207 109.732 18.8598 109.716 18.7989C109.723 18.7359 109.63 18.3974 109.692 18.7786C109.779 19.3083 109.723 18.3184 109.697 18.8267C109.678 19.1588 109.687 18.8779 109.729 18.7829C109.778 18.6302 109.747 18.6932 109.635 18.9708C109.663 18.9057 109.696 18.8427 109.731 18.7808C109.779 18.6975 109.827 18.6131 109.88 18.533C109.92 18.4711 109.962 18.4102 110.007 18.3504C109.842 18.5629 109.81 18.6088 109.913 18.4892C110.106 18.312 110.272 18.1134 110.472 17.9425C110.528 17.8934 110.805 17.7012 110.566 17.8624C110.305 18.0375 110.751 17.7449 110.802 17.7118C111.015 17.5741 111.236 17.4481 111.465 17.3349C111.562 17.2868 111.761 17.1096 111.537 17.2932C111.369 17.3616 111.369 17.3637 111.537 17.2975C111.618 17.2665 111.7 17.2409 111.783 17.2185C111.853 17.1993 112.216 17.1117 111.923 17.1694C111.625 17.2281 112.169 17.18 112.241 17.1758C112.547 17.1619 111.889 17.0893 112.18 17.179C112.329 17.2238 112.294 17.2003 112.073 17.1085C112.141 17.1395 112.206 17.1758 112.269 17.2174C112.523 17.3253 112.002 16.9579 112.191 17.1598C112.301 17.2719 112.271 17.2228 112.102 17.0103C112.146 17.0701 112.186 17.1331 112.221 17.1993C112.394 17.4224 112.096 16.8287 112.174 17.0978C112.215 17.2591 112.208 17.1907 112.156 16.8928C112.148 17.0871 112.154 17.0903 112.172 16.9024C112.177 16.8565 112.183 16.8095 112.189 16.7636C112.131 16.943 112.135 16.9494 112.199 16.7807C112.272 16.6162 112.265 16.6173 112.175 16.7839C112.353 16.5714 112.39 16.5244 112.284 16.6418C112.222 16.6963 112.034 16.9472 112.225 16.7273C112.417 16.5062 112.083 16.7945 112.001 16.849C111.77 17.0006 112.365 16.7711 112.095 16.8052C112.042 16.8116 111.472 16.9216 111.749 16.896C112.026 16.8704 111.624 16.8917 111.56 16.8928C111.369 16.8971 111.178 16.8896 110.987 16.8768C110.634 16.8533 110.285 16.8063 109.936 16.7593C108.824 16.6109 107.753 17.8475 107.8 18.895C107.851 20.1786 108.738 20.8706 109.929 21.0297Z" fill="white"/>
<path d="M131.286 14.9399C136.975 14.9228 142.665 14.9057 148.355 14.8886C149.472 14.8854 150.542 13.9083 150.49 12.7529C150.439 11.5986 149.552 10.614 148.355 10.6172C142.665 10.6343 136.975 10.6514 131.286 10.6685C130.169 10.6717 129.099 11.6487 129.15 12.8042C129.201 13.9585 130.089 14.9431 131.286 14.9399Z" fill="white"/>
<path d="M1.54963 4.38241C11.5875 6.90255 22.0279 7.91809 32.3616 7.32222C35.3708 7.14816 38.3662 6.82567 41.3498 6.39959C40.9717 5.02633 40.5927 3.65413 40.2146 2.28086C34.2079 4.71451 28.6818 8.05157 23.7226 12.2258C18.9141 16.273 14.7387 21.0997 11.3899 26.4177C9.45925 29.4835 7.84892 32.7255 6.49808 36.086C6.08055 37.1251 6.95299 38.477 7.98988 38.713C9.22539 38.9949 10.1694 38.3339 10.6168 37.2212C10.6873 37.046 10.7588 36.8699 10.8304 36.6947C10.8581 36.6274 10.8816 36.5303 10.9233 36.4694C10.8902 36.5175 10.7385 36.8997 10.8977 36.5313C11.0472 36.1832 11.1988 35.8372 11.3547 35.4923C11.6665 34.8025 11.9922 34.119 12.3307 33.4431C12.9971 32.1147 13.7147 30.8119 14.4825 29.539C15.2641 28.2426 16.096 26.9772 16.9748 25.746C17.1788 25.4598 17.386 25.1757 17.5953 24.8938C17.7085 24.7422 17.8216 24.5906 17.9359 24.44C17.985 24.3748 18.0341 24.3108 18.0833 24.2467C18.3267 23.9242 17.9338 24.4346 18.0961 24.2296C18.5478 23.6562 19.0038 23.0859 19.4726 22.5264C21.4193 20.207 23.5432 18.036 25.8199 16.0391C26.3688 15.5575 26.9262 15.0866 27.4922 14.6253C27.7858 14.3861 28.0816 14.1501 28.3796 13.9173C28.4426 13.8682 28.5045 13.8127 28.5718 13.7678C28.559 13.7764 28.2685 13.9995 28.4607 13.8543C28.6337 13.724 28.8046 13.5927 28.9776 13.4624C30.1896 12.5558 31.4358 11.6962 32.7151 10.8857C34.13 9.98866 35.5844 9.1536 37.0719 8.38367C37.8162 7.99924 38.5691 7.62976 39.3294 7.27844C39.7223 7.0969 40.1164 6.91964 40.5136 6.74771C40.5884 6.71568 40.6621 6.68364 40.7368 6.65161C40.7859 6.63025 41.1212 6.49143 40.8553 6.60035C40.583 6.71247 40.9087 6.57899 40.9749 6.5523C41.0999 6.50104 41.2248 6.44978 41.3508 6.39959C42.3824 5.98206 43.226 4.95798 42.8426 3.77266C42.4497 2.55744 41.4053 2.11107 40.2157 2.28086C40.047 2.30436 39.8793 2.32785 39.7106 2.35241C39.3208 2.41007 40.22 2.28727 39.5707 2.37163C39.3005 2.40687 39.0314 2.44104 38.7613 2.47415C38.1206 2.55317 37.4777 2.62578 36.8359 2.69092C35.5844 2.82013 34.3307 2.92478 33.076 3.00594C30.5655 3.16825 28.0485 3.2366 25.5326 3.2099C23.0509 3.18427 20.5703 3.06574 18.0972 2.85644C16.8435 2.74965 15.592 2.62044 14.3436 2.46667C14.0735 2.43357 13.8044 2.39833 13.5342 2.36416C12.8849 2.28086 13.7841 2.40153 13.3943 2.34493C13.2256 2.32037 13.0579 2.29795 12.8892 2.27339C12.2837 2.18689 11.6783 2.09399 11.0739 1.99575C8.25471 1.5387 5.45585 0.957787 2.68583 0.261544C1.60302 -0.00755621 0.318386 0.613937 0.057829 1.75548C-0.194185 2.86285 0.391001 4.09195 1.54963 4.38241Z" fill="white"/>
<path d="M14.9065 17.3543C23.0276 19.2956 31.4348 19.5316 39.6605 18.1274C40.7647 17.9384 41.4834 16.5224 41.1523 15.5005C40.7668 14.3098 39.7086 13.8068 38.5254 14.0087C38.0246 14.0941 37.5227 14.1753 37.0186 14.2479C36.9332 14.2607 36.2359 14.3536 36.6801 14.2959C36.411 14.3301 36.1419 14.3632 35.8728 14.3952C34.9299 14.5042 33.9849 14.5896 33.0377 14.6526C31.1102 14.7797 29.1763 14.8117 27.2445 14.7487C25.3139 14.6857 23.3842 14.5309 21.4706 14.2746C21.9149 14.3344 21.2176 14.2361 21.1321 14.2233C20.8972 14.1881 20.6633 14.1528 20.4284 14.1144C19.9596 14.0396 19.4919 13.9585 19.0263 13.872C18.0268 13.6862 17.0326 13.4726 16.0427 13.2366C14.9578 12.9771 13.6774 13.5773 13.4158 14.7284C13.1659 15.823 13.7447 17.0766 14.9065 17.3543Z" fill="white"/>
<path d="M47.3689 14.0165C48.4859 14.0165 49.5559 13.0341 49.5046 11.8808C49.4523 10.7233 48.566 9.74512 47.3689 9.74512C46.252 9.74512 45.182 10.7275 45.2332 11.8808C45.2855 13.0384 46.1719 14.0165 47.3689 14.0165Z" fill="white"/>
<path d="M52.711 13.8867C53.828 13.8867 54.8979 12.9042 54.8467 11.751C54.7944 10.5934 53.908 9.61523 52.711 9.61523C51.594 9.61523 50.524 10.5977 50.5753 11.751C50.6276 12.9085 51.5139 13.8867 52.711 13.8867Z" fill="white"/>
<path d="M43.1837 16.7653C42.1596 18.5464 41.2872 20.4536 41.7069 22.553C42.1094 24.5628 43.7732 26.188 45.8544 26.2852C47.784 26.3749 49.6923 25.102 50.9246 23.7053C52.08 22.395 52.9375 20.7932 53.2216 19.0579C53.401 17.9602 52.9364 16.7055 51.7298 16.431C50.7014 16.1972 49.295 16.7439 49.1028 17.9228C49.0558 18.2122 48.996 18.4973 48.916 18.7792C48.8797 18.9074 48.8401 19.0345 48.7964 19.1594C48.7526 19.2865 48.6768 19.7296 48.7771 19.2427C48.697 19.6325 48.2635 20.3565 47.972 20.6192C48.3415 20.286 47.9827 20.5946 47.9036 20.6843C47.8161 20.7847 47.7242 20.8818 47.6313 20.9769C47.4936 21.1178 47.1764 21.5268 46.9778 21.5663C47.0365 21.5194 47.0963 21.4724 47.1551 21.4265C47.0899 21.4734 47.0248 21.5194 46.9575 21.5642C46.84 21.6432 46.7215 21.7201 46.5987 21.7906C46.5346 21.828 46.0157 22.0501 46.4428 21.8974C46.2997 21.9486 46.1459 21.9775 46.0039 22.0298C45.88 22.0554 45.8854 22.0576 46.0199 22.0341C46.1844 22.0138 46.1587 22.0095 45.9441 22.0202C46.053 21.9294 46.2751 22.159 45.9473 21.9999C45.7935 21.9486 45.8565 21.9753 46.1374 22.08C46.0979 22.0565 46.0584 22.0341 46.0178 22.0106C45.8672 21.907 45.8651 21.9081 46.0125 22.0127C46.1545 22.1248 46.1587 22.1184 46.0231 21.9946C45.9922 21.9604 45.9612 21.9251 45.9292 21.891C46.1 22.1227 46.1417 22.1729 46.053 22.0405C46.0391 22.0116 45.8544 21.7586 45.8768 21.7297C45.9826 21.9988 46.0082 22.0576 45.9537 21.907C45.9292 21.8386 45.9067 21.7703 45.8875 21.6998C45.8608 21.6048 45.6996 21.2641 45.8405 21.5578C45.9665 21.8194 45.8459 21.545 45.8459 21.4115C45.8459 21.2844 45.9452 20.853 45.8373 21.2898C45.911 20.9908 45.9847 20.7003 46.0829 20.4077C46.21 20.0308 46.0018 20.5348 46.1182 20.3202C46.1919 20.1845 46.2527 20.0393 46.3243 19.9016C46.4962 19.5695 46.682 19.2459 46.8678 18.9223C47.4252 17.9538 47.1262 16.5421 46.1011 16.0007C45.0877 15.4614 43.7785 15.7316 43.1837 16.7653Z" fill="white"/>
<path d="M59.148 13.6715C58.3151 15.6011 57.29 17.4421 56.079 19.1603C55.9402 19.3568 55.8003 19.5511 55.6572 19.7434C55.6262 19.7861 55.3283 20.1812 55.4981 19.958C55.6487 19.7604 55.4148 20.0637 55.3881 20.0968C55.071 20.4962 54.7442 20.8881 54.4068 21.2704C53.6934 22.082 52.9342 22.8508 52.1397 23.5834C51.3153 24.3416 51.3142 25.8451 52.1397 26.6033C53.0217 27.4127 54.2807 27.4127 55.1596 26.6033C58.4219 23.6005 61.0766 19.8982 62.8353 15.8265C63.0724 15.2786 63.2166 14.7821 63.0511 14.1809C62.9144 13.6854 62.5321 13.1483 62.0697 12.9048C61.1492 12.4189 59.6211 12.5759 59.148 13.6715Z" fill="white"/>
<path d="M59.6437 21.7164C59.9427 21.475 59.3586 21.9267 59.4697 21.8488C59.5594 21.7858 59.6448 21.7174 59.7334 21.6523C59.9897 21.4654 60.2492 21.2828 60.5108 21.1045C61.1195 20.688 61.741 20.2876 62.3764 19.9106C62.6828 19.728 62.9936 19.5518 63.3086 19.3842C63.6023 19.2283 64.0839 19.1044 64.3284 18.8866C64.3263 18.8887 63.9087 19.0371 64.1148 18.9805C64.2024 18.956 64.2857 18.9165 64.3733 18.8887C64.4341 18.8695 64.8773 18.7894 64.8869 18.7638C64.872 18.8033 64.4758 18.7766 64.731 18.7947C64.8474 18.8033 64.9691 18.7872 65.0866 18.7905C65.1154 18.7915 65.3589 18.7862 65.3685 18.8086C65.0738 18.7638 65.0076 18.7616 65.1688 18.8001C65.2179 18.8118 65.266 18.8257 65.313 18.8428C65.597 18.9079 64.9563 18.6783 65.2094 18.8139C65.4144 18.9239 65.0802 18.7072 65.0716 18.6997C65.3418 18.9101 65.0642 18.6805 65.0108 18.6121C64.9627 18.5502 64.8805 18.1967 64.9691 18.5779C64.9649 18.5577 64.9179 18.1807 64.9243 18.4306C64.9318 18.7392 65.0215 18.0761 64.9424 18.3836C64.8826 18.6164 64.8335 18.8513 64.7641 19.082C64.4672 20.0794 64.2622 21.0767 64.4736 22.1168C64.7225 23.3406 65.5917 24.3038 66.7717 24.7021C67.7498 25.0321 68.8337 24.8271 69.8044 24.5761C71.6539 24.0966 73.434 23.2925 75.085 22.3411C76.0535 21.7837 76.4732 20.3837 75.8517 19.4194C75.2216 18.4423 73.9658 18.0568 72.93 18.6527C72.5029 18.8983 72.0704 19.1354 71.6283 19.3543C71.4404 19.4472 71.2513 19.538 71.0613 19.6255C70.9577 19.6736 70.853 19.7195 70.7494 19.7654C70.4227 19.9117 70.8071 19.7729 70.8082 19.7408C70.8028 19.8295 69.8898 20.0879 69.7745 20.1263C69.4798 20.2257 69.1818 20.3175 68.8818 20.3997C68.5924 20.4787 68.2976 20.5332 68.0072 20.6079C67.7061 20.6859 68.3446 20.6293 68.051 20.5962C68.0371 20.5951 67.8011 20.5994 67.8011 20.5973C67.8182 20.5086 68.2272 20.7008 68.2784 20.735C68.3436 20.7916 68.4076 20.8482 68.4728 20.9037C68.3489 20.7735 68.3478 20.7799 68.4706 20.9219C68.4899 20.9582 68.7205 21.2593 68.6703 21.3063C68.6458 21.3287 68.6223 21.0564 68.6031 21.0479C68.665 21.0735 68.6127 21.5946 68.6447 21.2017C68.65 21.1333 68.6543 21.0564 68.6532 20.9881C68.6479 20.6998 68.5593 21.4067 68.634 21.1269C68.6522 21.0575 68.6629 20.986 68.6789 20.9155C68.7355 20.6795 68.8145 20.4499 68.8839 20.2171C69.2448 19.0008 69.3644 17.6874 68.7387 16.5319C68.1492 15.4449 67.0077 14.7539 65.801 14.5916C63.8447 14.3289 62.1436 15.1074 60.4884 16.0642C59.1418 16.8427 57.8369 17.7173 56.6249 18.6933C55.7503 19.397 55.8368 20.9902 56.6249 21.7132C57.5518 22.5685 58.7115 22.4671 59.6437 21.7164Z" fill="white"/>
<path d="M95.8813 2.34628C89.9152 4.53432 84.8012 8.81963 81.7151 14.3949C80.0268 17.4437 77.9755 22.0675 81.4054 24.7179C83.0649 26.0004 85.2786 26.0228 87.2167 25.4472C89 24.9176 90.7396 24.1231 92.4108 23.3158C96.0319 21.5667 99.3839 19.3039 102.425 16.678C103.274 15.9454 103.232 14.3992 102.425 13.6581C101.521 12.8284 100.31 12.8764 99.4053 13.6581C99.1244 13.9005 98.8414 14.1408 98.5552 14.3768C98.4121 14.4942 98.268 14.6117 98.1228 14.7281C98.0501 14.7858 97.9775 14.8434 97.9049 14.9011C97.8729 14.9256 97.5685 15.1648 97.7554 15.0196C97.9434 14.8733 97.6988 15.0623 97.6775 15.0783C97.6038 15.1339 97.529 15.1905 97.4553 15.246C97.3069 15.3571 97.1574 15.4681 97.0079 15.577C96.6833 15.8141 96.3555 16.0469 96.0244 16.2743C94.7259 17.1692 93.3783 17.9925 91.9901 18.7411C91.3098 19.1084 90.62 19.4576 89.9205 19.7876C89.5852 19.9467 89.2478 20.1005 88.9082 20.25C88.7384 20.3247 88.5686 20.3984 88.3978 20.4721C88.7673 20.313 88.259 20.5276 88.1372 20.5767C87.4025 20.8736 86.6593 21.1715 85.8947 21.3819C85.7078 21.4332 85.5188 21.4748 85.3288 21.5175C85.2989 21.5239 84.9828 21.5741 85.2316 21.54C85.4804 21.5069 85.1632 21.5432 85.1323 21.5442C84.9507 21.5506 84.7713 21.5496 84.5898 21.5485C84.5311 21.5485 84.2684 21.5101 84.5631 21.5538C84.8738 21.6008 84.5215 21.5368 84.4617 21.5218C84.3869 21.5036 83.9149 21.3712 84.1968 21.4599C84.4691 21.5453 84.0473 21.3574 83.9683 21.3242C83.7526 21.2335 84.1007 21.3905 84.089 21.4353C84.0911 21.4257 83.9341 21.2943 83.9202 21.2805C83.9074 21.2677 83.7707 21.1107 83.7643 21.1128C83.854 21.0797 83.9608 21.4908 83.8295 21.1513C83.6832 20.7743 83.8722 21.4449 83.8049 21.0477C83.7355 20.6365 83.7857 21.3851 83.79 20.9612C83.79 20.9003 83.7537 20.4785 83.8028 20.455C83.8081 20.4529 83.7259 20.8597 83.7814 20.596C83.806 20.4828 83.8241 20.3674 83.8498 20.2543C83.9331 19.8858 84.0473 19.5238 84.1776 19.1693C84.2342 19.0155 84.2929 18.8628 84.3538 18.7112C84.3837 18.6364 84.4147 18.5628 84.4435 18.4891C84.5546 18.2061 84.2887 18.834 84.4147 18.5574C84.6912 17.9498 84.971 17.3486 85.2892 16.7613C85.6064 16.175 85.947 15.6027 86.3123 15.0452C86.4874 14.7772 86.6679 14.5135 86.8526 14.2529C86.9455 14.1226 87.0395 13.9934 87.1345 13.8653C87.1826 13.8012 87.2306 13.7371 87.2787 13.673C87.4549 13.4381 87.2552 13.6218 87.2381 13.7254C87.2723 13.515 87.7058 13.1487 87.8468 12.9832C88.0721 12.7194 88.3027 12.461 88.5387 12.2069C88.9926 11.7189 89.4656 11.2479 89.9569 10.7984C90.2324 10.5464 90.5132 10.3008 90.7994 10.0605C90.9425 9.94088 91.0877 9.82235 91.2329 9.70595C91.2853 9.66431 91.3589 9.58102 91.4209 9.55752C91.1998 9.64295 91.2084 9.71984 91.4337 9.55218C92.0317 9.10582 92.65 8.68722 93.2864 8.29745C93.9229 7.90768 94.5775 7.54781 95.247 7.21998C95.5823 7.05553 95.923 6.90389 96.2636 6.75226C96.4921 6.65081 96.1227 6.81099 96.1216 6.81206C96.1333 6.77575 96.3779 6.70848 96.4185 6.69246C96.6171 6.61451 96.8168 6.53976 97.0165 6.46607C98.0619 6.08271 98.8841 4.9999 98.5083 3.83914C98.1772 2.8108 97.0047 1.93408 95.8813 2.34628Z" fill="white"/>
<path d="M92.6702 10.4418C88.056 13.5535 83.555 16.8265 79.1575 20.2362C74.9576 23.4921 70.8143 26.858 66.8793 30.431C64.7009 32.4098 62.6495 34.5775 61.1502 37.1276C60.5832 38.0918 60.8982 39.5121 61.9169 40.0492C62.9432 40.5917 64.2342 40.3119 64.8386 39.2825C65.1494 38.7539 65.4836 38.2392 65.8435 37.7416C65.915 37.6423 65.9887 37.544 66.0613 37.4458C66.4116 36.9727 65.8894 37.6423 66.1211 37.37C66.34 37.1137 66.5482 36.8478 66.7693 36.5926C67.5777 35.6625 68.4522 34.7911 69.3535 33.9517C71.2116 32.2218 73.1594 30.5827 75.1061 28.9531C77.1692 27.2253 79.2622 25.5328 81.3819 23.8754C81.62 23.6886 81.8592 23.5028 82.0984 23.3169C82.1689 23.2625 82.5149 22.9945 82.2244 23.2187C82.3312 23.1365 82.438 23.0543 82.5448 22.972C83.1043 22.5417 83.6671 22.1135 84.2309 21.6874C85.2785 20.8972 86.3314 20.1155 87.3918 19.3424C89.8372 17.558 92.3167 15.8206 94.8273 14.128C95.752 13.5044 96.2464 12.2187 95.5929 11.2064C94.9981 10.2869 93.6601 9.77331 92.6702 10.4418Z" fill="white"/>
<path d="M133.497 17.1653C132.643 19.3373 132.336 21.8425 134.139 23.6579C135.672 25.202 138.057 25.3344 140.103 25.1966C144.056 24.9286 147.84 23.5105 150.855 20.9177C151.705 20.1863 151.661 18.6379 150.855 17.8978C149.949 17.067 148.742 17.1183 147.835 17.8978C147.688 18.0249 147.537 18.1466 147.388 18.2694C147.267 18.3656 147.301 18.3389 147.489 18.1904C147.399 18.2577 147.308 18.3228 147.217 18.388C146.94 18.5834 146.656 18.7692 146.367 18.9443C146.073 19.1216 145.773 19.2893 145.469 19.4462C145.289 19.5381 145.108 19.6267 144.925 19.7121C144.87 19.7378 144.358 19.9588 144.623 19.8499C144.886 19.742 144.282 19.9791 144.227 20.0004C144.061 20.0613 143.896 20.12 143.729 20.1756C143.393 20.2877 143.054 20.3891 142.711 20.4788C142.338 20.5771 141.962 20.6625 141.582 20.7362C141.377 20.7757 141.17 20.8077 140.964 20.843C140.499 20.9231 141.334 20.811 140.82 20.8611C140.075 20.9327 139.329 20.9807 138.581 20.9572C138.405 20.9519 138.129 20.985 137.965 20.9199C138.037 20.9306 138.111 20.9423 138.184 20.953C138.068 20.9359 137.955 20.9156 137.841 20.891C137.672 20.8547 137.512 20.8056 137.346 20.7576C136.882 20.6219 137.634 20.9167 137.252 20.7042C136.849 20.4788 137.472 20.9359 137.161 20.6369C136.846 20.3347 137.382 20.9306 137.069 20.4842C136.997 20.3432 137.016 20.3924 137.126 20.6326C137.092 20.5333 137.063 20.4329 137.041 20.3304C136.915 19.931 137.015 20.7266 137.045 20.2792C137.052 20.1831 137.126 19.6822 137.032 20.1286C137.072 19.9406 137.11 19.757 137.163 19.5722C137.285 19.1387 137.452 18.7179 137.618 18.2993C138.028 17.2571 137.169 15.9095 136.126 15.6724C134.895 15.3937 133.936 16.0494 133.497 17.1653Z" fill="white"/>
</svg>
