<svg width="269" height="42" viewBox="0 0 269 42" fill="none" xmlns="http://www.w3.org/2000/svg">
<path d="M99.1961 15.0252C97.7288 17.4118 95.2354 21.9598 98.5404 24.0283C99.6478 24.7213 101.111 24.6103 102.311 24.2664C103.568 23.9065 104.78 23.2861 105.87 22.5706C107.245 21.6694 108.544 20.5983 109.618 19.3511C110.347 18.5053 110.511 17.1502 109.618 16.3311C108.819 15.5965 107.376 15.4267 106.598 16.3311C106.211 16.7818 105.795 17.2079 105.357 17.6083C105.147 17.7995 104.934 17.9842 104.715 18.1636C104.606 18.2522 104.488 18.3345 104.384 18.4284C104.907 17.9607 104.469 18.359 104.311 18.4722C103.844 18.8086 103.36 19.1225 102.859 19.4055C102.637 19.5305 102.411 19.6501 102.183 19.7632C102.073 19.8177 101.962 19.8679 101.851 19.9202C101.391 20.1349 102.341 19.7376 101.874 19.9106C101.455 20.0665 101.037 20.1925 100.598 20.2844C100.183 20.3709 101.055 20.2619 100.83 20.2534C100.747 20.2502 100.66 20.2662 100.577 20.2673C100.5 20.2683 100.415 20.2523 100.339 20.2598C100.13 20.2801 100.728 20.2897 100.738 20.3164C100.737 20.3121 100.59 20.2865 100.58 20.2844C100.557 20.279 100.391 20.247 100.385 20.2224C100.389 20.2363 101.009 20.5246 100.678 20.3271C100.451 20.1915 101.166 20.7692 100.926 20.5129C100.676 20.247 101.263 20.9956 101.098 20.7371C101.076 20.703 101.054 20.6645 101.039 20.6271C101.033 20.6122 101.211 21.2006 101.196 20.9913C101.195 20.9763 101.133 20.7745 101.142 20.7734C101.202 20.7638 101.167 21.4921 101.188 21.0308C101.192 20.9261 101.197 20.8183 101.198 20.7136C101.202 20.3548 101.076 21.3159 101.186 20.8439C101.22 20.6944 101.253 20.5449 101.294 20.3976C101.341 20.231 101.396 20.0665 101.455 19.9031C101.488 19.8124 101.7 19.2742 101.561 19.6137C101.432 19.932 101.544 19.6575 101.581 19.5796C101.628 19.4792 101.674 19.3767 101.723 19.2763C101.827 19.0585 101.937 18.8438 102.05 18.6302C102.313 18.1369 102.596 17.6553 102.889 17.179C103.475 16.2265 103.127 14.787 102.122 14.2574C101.076 13.7085 99.8208 14.0075 99.1961 15.0252Z" fill="white"/>
<path d="M109.929 21.7455C111.421 21.9452 113.024 21.9751 114.35 21.14C115.825 20.211 116.646 18.6327 116.335 16.8931C116.051 15.3031 114.615 14.0206 113.062 13.7216C111.576 13.4354 110.123 13.8519 108.843 14.6143C106.424 16.057 104.481 18.8388 106.009 21.6366C107.196 23.8086 109.992 25.4147 112.463 25.3378C115.251 25.2502 117.945 23.5801 120.15 21.9954C121.286 21.1785 122.34 20.2815 123.376 19.3428C123.477 19.251 123.582 19.1655 123.684 19.0748C123.924 18.8633 123.268 19.3236 123.719 19.063C123.81 19.0096 123.908 18.9541 123.998 18.8975C124.417 18.6316 123.6 18.9904 124.059 18.8922C123.835 18.9402 123.7 18.9253 123.488 18.8783C123.87 18.9627 123.239 18.7501 123.168 18.685C123.204 18.7181 122.86 18.229 122.901 18.2365C122.933 18.3305 122.956 18.4266 122.974 18.5238C122.94 18.2312 122.927 18.1671 122.935 18.3337C122.924 18.4319 122.979 18.6295 122.924 18.7138C122.935 18.6359 122.946 18.559 122.956 18.481C122.941 18.575 122.925 18.669 122.908 18.7619C122.838 19.1677 122.765 19.5756 122.727 19.9857C122.645 20.8517 122.815 21.7743 123.269 22.525C124.097 23.894 125.599 24.634 127.156 24.7569C128.701 24.8797 130.195 24.2251 131.546 23.5598C132.61 23.0355 133.627 22.4204 134.593 21.7327C139.054 18.5515 142.312 14.1498 146.116 10.2735C146.9 9.4758 146.971 8.03847 146.116 7.25359C145.27 6.47726 143.932 6.40144 143.096 7.25359C140.195 10.2094 137.642 13.508 134.57 16.2962C134.236 16.5995 133.896 16.8963 133.549 17.1847C133.354 17.347 133.154 17.504 132.957 17.6641C132.691 17.8788 133.364 17.3683 132.918 17.6919C132.804 17.7752 132.691 17.8606 132.575 17.9439C131.736 18.5515 130.857 19.1047 129.941 19.5895C129.702 19.7155 129.461 19.8372 129.218 19.9547C129.103 20.0102 128.985 20.0647 128.87 20.1202C128.496 20.2975 128.766 20.1683 128.849 20.1362C128.581 20.2419 128.31 20.3391 128.032 20.4128C127.909 20.4459 127.783 20.4651 127.661 20.4982C127.504 20.5271 127.537 20.5228 127.759 20.4876C127.664 20.4961 127.569 20.5004 127.474 20.4993C127.376 20.4993 127.064 20.5676 127.366 20.5132C127.648 20.4619 127.34 20.5036 127.208 20.4673C127.152 20.4512 126.96 20.3648 126.922 20.3733C126.962 20.3648 127.382 20.5794 127.028 20.3957C126.694 20.2227 127.076 20.4085 127.097 20.4779C127.103 20.495 126.881 20.2879 126.886 20.2793C126.835 20.3829 127.172 20.6306 126.923 20.306C126.847 20.1651 126.871 20.2249 126.993 20.4865C126.98 20.4395 126.966 20.3925 126.953 20.3455C126.961 20.4117 126.969 20.4779 126.977 20.5442C126.97 20.4512 126.971 20.3583 126.977 20.2654C126.979 20.1982 127.032 19.8105 126.988 20.0818C126.935 20.4085 127.046 19.7945 127.044 19.8031C127.065 19.6781 127.085 19.5542 127.103 19.4282C127.211 18.6807 127.256 17.9866 127.061 17.2413C126.656 15.7003 125.244 14.5759 123.634 14.6699C122.218 14.7521 121.1 15.632 120.103 16.5578C119.713 16.9198 119.313 17.2712 118.902 17.6097C118.781 17.709 118.658 17.8062 118.536 17.9044C118.478 17.9525 118.213 18.1447 118.524 17.9162C118.271 18.102 118.022 18.2899 117.765 18.4704C116.844 19.1186 115.879 19.707 114.88 20.2302C114.656 20.3477 114.429 20.4619 114.201 20.5698C114.085 20.6242 113.969 20.6798 113.851 20.7289C114.208 20.5794 113.895 20.7065 113.826 20.7289C113.553 20.8165 113.287 20.9136 113.007 20.983C112.854 21.0204 112.7 21.0535 112.546 21.0791C112.852 21.029 112.665 21.061 112.463 21.0674C112.308 21.0727 112.154 21.0653 111.999 21.0589C112.092 21.0631 112.412 21.1539 112.011 21.0525C111.843 21.0097 111.676 20.966 111.513 20.9094C111.526 20.9136 111.257 20.8271 111.255 20.8122C111.261 20.8688 111.692 21.0129 111.306 20.8207C111.083 20.7097 110.866 20.5858 110.656 20.4512C110.57 20.3968 110.49 20.3349 110.405 20.2815C110.141 20.1191 110.779 20.6242 110.417 20.2932C110.271 20.1597 110.122 20.0316 109.984 19.8885C109.991 19.897 109.786 19.6931 109.791 19.6738C109.776 19.7304 110.037 20.0668 109.833 19.7134C109.791 19.6386 109.751 19.5478 109.697 19.4816C109.622 19.3353 109.647 19.4069 109.776 19.6952C109.752 19.6365 109.732 19.5756 109.716 19.5147C109.723 19.4517 109.63 19.1132 109.692 19.4944C109.779 20.0241 109.723 19.0342 109.697 19.5425C109.678 19.8746 109.687 19.5938 109.729 19.4987C109.778 19.346 109.747 19.409 109.635 19.6867C109.663 19.6215 109.696 19.5585 109.731 19.4966C109.779 19.4133 109.827 19.3289 109.88 19.2488C109.92 19.1869 109.962 19.126 110.007 19.0662C109.842 19.2787 109.81 19.3247 109.913 19.2051C110.106 19.0278 110.272 18.8292 110.472 18.6583C110.528 18.6092 110.805 18.417 110.566 18.5782C110.305 18.7534 110.751 18.4608 110.802 18.4277C111.015 18.2899 111.236 18.1639 111.465 18.0507C111.562 18.0026 111.761 17.8254 111.537 18.0091C111.369 18.0774 111.369 18.0795 111.537 18.0133C111.618 17.9824 111.7 17.9567 111.783 17.9343C111.853 17.9151 112.216 17.8275 111.923 17.8852C111.625 17.9439 112.169 17.8959 112.241 17.8916C112.547 17.8777 111.889 17.8051 112.18 17.8948C112.329 17.9396 112.294 17.9162 112.073 17.8243C112.141 17.8553 112.206 17.8916 112.269 17.9332C112.523 18.0411 112.002 17.6737 112.191 17.8756C112.301 17.9877 112.271 17.9386 112.102 17.7261C112.146 17.7859 112.186 17.8489 112.221 17.9151C112.394 18.1383 112.096 17.5445 112.174 17.8136C112.215 17.9749 112.208 17.9065 112.156 17.6086C112.148 17.803 112.154 17.8062 112.172 17.6182C112.177 17.5723 112.183 17.5253 112.189 17.4794C112.131 17.6588 112.135 17.6652 112.199 17.4965C112.272 17.332 112.265 17.3331 112.175 17.4997C112.353 17.2872 112.39 17.2402 112.284 17.3577C112.222 17.4121 112.034 17.6631 112.225 17.4431C112.417 17.222 112.083 17.5104 112.001 17.5648C111.77 17.7165 112.365 17.4869 112.095 17.521C112.042 17.5275 111.472 17.6374 111.749 17.6118C112.026 17.5862 111.624 17.6075 111.56 17.6086C111.369 17.6129 111.178 17.6054 110.987 17.5926C110.634 17.5691 110.285 17.5221 109.936 17.4751C108.824 17.3267 107.753 18.5633 107.8 19.6108C107.851 20.8944 108.738 21.5864 109.929 21.7455Z" fill="white"/>
<path d="M131.286 15.6547C136.975 15.6376 142.665 15.6206 148.355 15.6035C149.472 15.6003 150.542 14.6232 150.49 13.4678C150.439 12.3134 149.552 11.3288 148.355 11.332C142.665 11.3491 136.975 11.3662 131.286 11.3833C130.169 11.3865 129.099 12.3636 129.15 13.519C129.201 14.6734 130.089 15.6579 131.286 15.6547Z" fill="white"/>
<path d="M1.54963 5.09725C11.5875 7.6174 22.0279 8.63293 32.3616 8.03707C35.3708 7.863 38.3662 7.54051 41.3498 7.11444C40.9717 5.74117 40.5927 4.36897 40.2146 2.99571C34.2079 5.42936 28.6818 8.76641 23.7226 12.9407C18.9141 16.9879 14.7387 21.8146 11.3899 27.1325C9.45925 30.1983 7.84892 33.4403 6.49808 36.8009C6.08055 37.8399 6.95299 39.1918 7.98988 39.4278C9.22539 39.7097 10.1694 39.0487 10.6168 37.936C10.6873 37.7609 10.7588 37.5847 10.8304 37.4096C10.8581 37.3423 10.8816 37.2451 10.9233 37.1842C10.8902 37.2323 10.7385 37.6146 10.8977 37.2462C11.0472 36.8981 11.1988 36.5521 11.3547 36.2072C11.6665 35.5173 11.9922 34.8339 12.3307 34.1579C12.9971 32.8295 13.7147 31.5267 14.4825 30.2538C15.2641 28.9575 16.096 27.6921 16.9748 26.4608C17.1788 26.1746 17.386 25.8906 17.5953 25.6087C17.7085 25.457 17.8216 25.3054 17.9359 25.1548C17.985 25.0897 18.0341 25.0256 18.0833 24.9615C18.3267 24.6391 17.9338 25.1495 18.0961 24.9445C18.5478 24.371 19.0038 23.8008 19.4726 23.2412C21.4193 20.9218 23.5432 18.7509 25.8199 16.754C26.3688 16.2724 26.9262 15.8015 27.4922 15.3401C27.7858 15.1009 28.0816 14.8649 28.3796 14.6322C28.4426 14.583 28.5045 14.5275 28.5718 14.4827C28.559 14.4912 28.2685 14.7144 28.4607 14.5692C28.6337 14.4389 28.8046 14.3075 28.9776 14.1772C30.1896 13.2706 31.4358 12.411 32.7151 11.6005C34.13 10.7035 35.5844 9.86844 37.0719 9.09852C37.8162 8.71409 38.5691 8.34461 39.3294 7.99328C39.7223 7.81175 40.1164 7.63448 40.5136 7.46256C40.5884 7.43052 40.6621 7.39849 40.7368 7.36645C40.7859 7.34509 41.1212 7.20627 40.8553 7.31519C40.583 7.42732 40.9087 7.29384 40.9749 7.26714C41.0999 7.21588 41.2248 7.16462 41.3508 7.11444C42.3824 6.6969 43.226 5.67283 42.8426 4.4875C42.4497 3.27228 41.4053 2.82592 40.2157 2.99571C40.047 3.0192 39.8793 3.04269 39.7106 3.06725C39.3208 3.12492 40.22 3.00211 39.5707 3.08648C39.3005 3.12171 39.0314 3.15589 38.7613 3.18899C38.1206 3.26801 37.4777 3.34063 36.8359 3.40576C35.5844 3.53498 34.3307 3.63963 33.076 3.72078C30.5655 3.8831 28.0485 3.95144 25.5326 3.92474C23.0509 3.89912 20.5703 3.78058 18.0972 3.57128C16.8435 3.4645 15.592 3.33529 14.3436 3.18151C14.0735 3.14841 13.8044 3.11317 13.5342 3.079C12.8849 2.99571 13.7841 3.11638 13.3943 3.05978C13.2256 3.03522 13.0579 3.01279 12.8892 2.98823C12.2837 2.90174 11.6783 2.80883 11.0739 2.71059C8.25471 2.25355 5.45585 1.67263 2.68583 0.976388C1.60302 0.707288 0.318386 1.32878 0.057829 2.47032C-0.194185 3.57769 0.391001 4.80679 1.54963 5.09725Z" fill="white"/>
<path d="M14.9065 18.0701C23.0276 20.0115 31.4348 20.2475 39.6605 18.8432C40.7647 18.6542 41.4834 17.2382 41.1523 16.2163C40.7668 15.0256 39.7086 14.5227 38.5254 14.7245C38.0246 14.8099 37.5227 14.8911 37.0186 14.9637C36.9332 14.9765 36.2359 15.0694 36.6801 15.0117C36.411 15.0459 36.1419 15.079 35.8728 15.1111C34.9299 15.22 33.9849 15.3054 33.0377 15.3684C31.1102 15.4955 29.1763 15.5275 27.2445 15.4645C25.3139 15.4015 23.3842 15.2467 21.4706 14.9904C21.9149 15.0502 21.2176 14.9519 21.1321 14.9391C20.8972 14.9039 20.6633 14.8687 20.4284 14.8302C19.9596 14.7555 19.4919 14.6743 19.0263 14.5878C18.0268 14.402 17.0326 14.1884 16.0427 13.9524C14.9578 13.6929 13.6774 14.2931 13.4158 15.4442C13.1659 16.5388 13.7447 17.7924 14.9065 18.0701Z" fill="white"/>
<path d="M47.3689 14.7304C48.4859 14.7304 49.5559 13.748 49.5046 12.5947C49.4523 11.4371 48.566 10.459 47.3689 10.459C46.252 10.459 45.182 11.4414 45.2332 12.5947C45.2855 13.7523 46.1719 14.7304 47.3689 14.7304Z" fill="white"/>
<path d="M52.711 14.6015C53.828 14.6015 54.8979 13.6191 54.8467 12.4658C54.7944 11.3082 53.908 10.3301 52.711 10.3301C51.594 10.3301 50.524 11.3125 50.5753 12.4658C50.6276 13.6234 51.5139 14.6015 52.711 14.6015Z" fill="white"/>
<path d="M43.1837 17.4791C42.1596 19.2603 41.2872 21.1675 41.7069 23.2669C42.1094 25.2766 43.7732 26.9019 45.8544 26.9991C47.784 27.0888 49.6923 25.8159 50.9246 24.4191C52.08 23.1089 52.9375 21.5071 53.2216 19.7718C53.401 18.6741 52.9364 17.4193 51.7298 17.1449C50.7014 16.911 49.295 17.4578 49.1028 18.6367C49.0558 18.9261 48.996 19.2112 48.916 19.4931C48.8797 19.6212 48.8401 19.7483 48.7964 19.8733C48.7526 20.0003 48.6768 20.4435 48.7771 19.9566C48.697 20.3463 48.2635 21.0703 47.972 21.333C48.3415 20.9999 47.9827 21.3085 47.9036 21.3982C47.8161 21.4985 47.7242 21.5957 47.6313 21.6908C47.4936 21.8317 47.1764 22.2407 46.9778 22.2802C47.0365 22.2332 47.0963 22.1862 47.1551 22.1403C47.0899 22.1873 47.0248 22.2332 46.9575 22.2781C46.84 22.3571 46.7215 22.434 46.5987 22.5045C46.5346 22.5418 46.0157 22.764 46.4428 22.6112C46.2997 22.6625 46.1459 22.6913 46.0039 22.7437C45.88 22.7693 45.8854 22.7714 46.0199 22.7479C46.1844 22.7276 46.1587 22.7234 45.9441 22.7341C46.053 22.6433 46.2751 22.8729 45.9473 22.7138C45.7935 22.6625 45.8565 22.6892 46.1374 22.7939C46.0979 22.7704 46.0584 22.7479 46.0178 22.7244C45.8672 22.6209 45.8651 22.6219 46.0125 22.7266C46.1545 22.8387 46.1587 22.8323 46.0231 22.7084C45.9922 22.6743 45.9612 22.639 45.9292 22.6048C46.1 22.8366 46.1417 22.8868 46.053 22.7543C46.0391 22.7255 45.8544 22.4724 45.8768 22.4436C45.9826 22.7127 46.0082 22.7714 45.9537 22.6209C45.9292 22.5525 45.9067 22.4842 45.8875 22.4137C45.8608 22.3187 45.6996 21.978 45.8405 22.2717C45.9665 22.5333 45.8459 22.2589 45.8459 22.1254C45.8459 21.9983 45.9452 21.5669 45.8373 22.0036C45.911 21.7046 45.9847 21.4142 46.0829 21.1216C46.21 20.7446 46.0018 21.2487 46.1182 21.034C46.1919 20.8984 46.2527 20.7532 46.3243 20.6154C46.4962 20.2833 46.682 19.9598 46.8678 19.6362C47.4252 18.6676 47.1262 17.2559 46.1011 16.7145C45.0877 16.1753 43.7785 16.4454 43.1837 17.4791Z" fill="white"/>
<path d="M59.148 14.3873C58.3151 16.317 57.29 18.1579 56.079 19.8761C55.9402 20.0726 55.8003 20.267 55.6572 20.4592C55.6262 20.5019 55.3283 20.897 55.4981 20.6738C55.6487 20.4763 55.4148 20.7795 55.3881 20.8126C55.071 21.212 54.7442 21.6039 54.4068 21.9862C53.6934 22.7978 52.9342 23.5666 52.1397 24.2992C51.3153 25.0574 51.3142 26.5609 52.1397 27.3191C53.0217 28.1285 54.2807 28.1285 55.1596 27.3191C58.4219 24.3163 61.0766 20.614 62.8353 16.5423C63.0724 15.9945 63.2166 15.4979 63.0511 14.8967C62.9144 14.4012 62.5321 13.8641 62.0697 13.6206C61.1492 13.1347 59.6211 13.2917 59.148 14.3873Z" fill="white"/>
<path d="M59.6437 22.4322C59.9427 22.1909 59.3586 22.6426 59.4697 22.5646C59.5594 22.5016 59.6448 22.4333 59.7334 22.3681C59.9897 22.1813 60.2492 21.9987 60.5108 21.8203C61.1195 21.4039 61.741 21.0034 62.3764 20.6265C62.6828 20.4438 62.9936 20.2677 63.3086 20.1C63.6023 19.9441 64.0839 19.8202 64.3284 19.6024C64.3263 19.6045 63.9087 19.7529 64.1148 19.6963C64.2024 19.6718 64.2857 19.6323 64.3733 19.6045C64.4341 19.5853 64.8773 19.5052 64.8869 19.4796C64.872 19.5191 64.4758 19.4924 64.731 19.5105C64.8474 19.5191 64.9691 19.5031 65.0866 19.5063C65.1154 19.5073 65.3589 19.502 65.3685 19.5244C65.0738 19.4796 65.0076 19.4774 65.1688 19.5159C65.2179 19.5276 65.266 19.5415 65.313 19.5586C65.597 19.6237 64.9563 19.3941 65.2094 19.5298C65.4144 19.6398 65.0802 19.423 65.0716 19.4155C65.3418 19.6259 65.0642 19.3963 65.0108 19.3279C64.9627 19.266 64.8805 18.9125 64.9691 19.2938C64.9649 19.2735 64.9179 18.8965 64.9243 19.1464C64.9318 19.455 65.0215 18.7919 64.9424 19.0994C64.8826 19.3322 64.8335 19.5671 64.7641 19.7978C64.4672 20.7952 64.2622 21.7926 64.4736 22.8326C64.7225 24.0564 65.5917 25.0196 66.7717 25.4179C67.7498 25.7479 68.8337 25.5429 69.8044 25.2919C71.6539 24.8125 73.434 24.0084 75.085 23.0569C76.0535 22.4995 76.4732 21.0995 75.8517 20.1352C75.2216 19.1581 73.9658 18.7727 72.93 19.3685C72.5029 19.6141 72.0704 19.8512 71.6283 20.0701C71.4404 20.163 71.2513 20.2538 71.0613 20.3413C70.9577 20.3894 70.853 20.4353 70.7494 20.4812C70.4227 20.6275 70.8071 20.4887 70.8082 20.4567C70.8028 20.5453 69.8898 20.8037 69.7745 20.8422C69.4798 20.9415 69.1818 21.0333 68.8818 21.1155C68.5924 21.1946 68.2976 21.249 68.0072 21.3238C67.7061 21.4017 68.3446 21.3451 68.051 21.312C68.0371 21.3109 67.8011 21.3152 67.8011 21.3131C67.8182 21.2245 68.2272 21.4167 68.2784 21.4508C68.3436 21.5074 68.4076 21.564 68.4728 21.6196C68.3489 21.4893 68.3478 21.4957 68.4706 21.6377C68.4899 21.674 68.7205 21.9752 68.6703 22.0221C68.6458 22.0446 68.6223 21.7723 68.6031 21.7637C68.665 21.7894 68.6127 22.3105 68.6447 21.9175C68.65 21.8491 68.6543 21.7723 68.6532 21.7039C68.6479 21.4156 68.5593 22.1225 68.634 21.8427C68.6522 21.7733 68.6629 21.7018 68.6789 21.6313C68.7355 21.3953 68.8145 21.1657 68.8839 20.9329C69.2448 19.7166 69.3644 18.4032 68.7387 17.2478C68.1492 16.1607 67.0077 15.4698 65.801 15.3075C63.8447 15.0448 62.1436 15.8232 60.4884 16.78C59.1418 17.5585 57.8369 18.4331 56.6249 19.4091C55.7503 20.1128 55.8368 21.7061 56.6249 22.429C57.5518 23.2844 58.7115 23.1829 59.6437 22.4322Z" fill="white"/>
<path d="M95.8813 3.06112C89.9152 5.24916 84.8012 9.53448 81.7151 15.1098C80.0268 18.1585 77.9755 22.7823 81.4054 25.4327C83.0649 26.7152 85.2786 26.7377 87.2167 26.1621C89 25.6324 90.7396 24.8379 92.4108 24.0306C96.0319 22.2815 99.3839 20.0187 102.425 17.3928C103.274 16.6603 103.232 15.114 102.425 14.3729C101.521 13.5432 100.31 13.5913 99.4053 14.3729C99.1244 14.6153 98.8414 14.8556 98.5552 15.0916C98.4121 15.2091 98.268 15.3265 98.1228 15.4429C98.0501 15.5006 97.9775 15.5583 97.9049 15.6159C97.8729 15.6405 97.5685 15.8797 97.7554 15.7345C97.9434 15.5882 97.6988 15.7772 97.6775 15.7932C97.6038 15.8487 97.529 15.9053 97.4553 15.9608C97.3069 16.0719 97.1574 16.183 97.0079 16.2919C96.6833 16.5289 96.3555 16.7617 96.0244 16.9892C94.7259 17.8841 93.3783 18.7074 91.9901 19.4559C91.3098 19.8233 90.62 20.1725 89.9205 20.5024C89.5852 20.6616 89.2478 20.8153 88.9082 20.9648C88.7384 21.0396 88.5686 21.1133 88.3978 21.1869C88.7673 21.0278 88.259 21.2425 88.1372 21.2916C87.4025 21.5885 86.6593 21.8864 85.8947 22.0968C85.7078 22.148 85.5188 22.1897 85.3288 22.2324C85.2989 22.2388 84.9828 22.289 85.2316 22.2548C85.4804 22.2217 85.1632 22.258 85.1323 22.2591C84.9507 22.2655 84.7713 22.2644 84.5898 22.2633C84.5311 22.2633 84.2684 22.2249 84.5631 22.2687C84.8738 22.3157 84.5215 22.2516 84.4617 22.2366C84.3869 22.2185 83.9149 22.0861 84.1968 22.1747C84.4691 22.2601 84.0473 22.0722 83.9683 22.0391C83.7526 21.9483 84.1007 22.1053 84.089 22.1502C84.0911 22.1405 83.9341 22.0092 83.9202 21.9953C83.9074 21.9825 83.7707 21.8255 83.7643 21.8277C83.854 21.7946 83.9608 22.2057 83.8295 21.8661C83.6832 21.4891 83.8722 22.1598 83.8049 21.7625C83.7355 21.3514 83.7857 22.1 83.79 21.676C83.79 21.6152 83.7537 21.1933 83.8028 21.1699C83.8081 21.1677 83.7259 21.5746 83.7814 21.3108C83.806 21.1976 83.8241 21.0823 83.8498 20.9691C83.9331 20.6007 84.0473 20.2387 84.1776 19.8842C84.2342 19.7304 84.2929 19.5777 84.3538 19.426C84.3837 19.3513 84.4147 19.2776 84.4435 19.2039C84.5546 18.9209 84.2887 19.5488 84.4147 19.2723C84.6912 18.6647 84.971 18.0635 85.2892 17.4761C85.6064 16.8899 85.947 16.3175 86.3123 15.7601C86.4874 15.4921 86.6678 15.2283 86.8526 14.9677C86.9455 14.8375 87.0395 14.7082 87.1345 14.5801C87.1826 14.516 87.2306 14.452 87.2787 14.3879C87.4549 14.153 87.2552 14.3366 87.2381 14.4402C87.2723 14.2298 87.7058 13.8636 87.8468 13.6981C88.0721 13.4343 88.3027 13.1759 88.5387 12.9217C88.9926 12.4337 89.4656 11.9628 89.9569 11.5132C90.2324 11.2612 90.5132 11.0156 90.7994 10.7753C90.9425 10.6557 91.0877 10.5372 91.2329 10.4208C91.2853 10.3792 91.3589 10.2959 91.4209 10.2724C91.1998 10.3578 91.2084 10.4347 91.4337 10.267C92.0317 9.82066 92.65 9.40206 93.2864 9.01229C93.9229 8.62253 94.5775 8.26266 95.247 7.93483C95.5823 7.77038 95.923 7.61874 96.2636 7.4671C96.4921 7.36566 96.1227 7.52584 96.1216 7.5269C96.1333 7.4906 96.3779 7.42332 96.4185 7.4073C96.6171 7.32935 96.8168 7.2546 97.0165 7.18092C98.0619 6.79756 98.8841 5.71475 98.5083 4.55399C98.1772 3.52564 97.0047 2.64893 95.8813 3.06112Z" fill="white"/>
<path d="M92.6702 11.1576C88.056 14.2693 83.555 17.5423 79.1575 20.952C74.9576 24.2079 70.8143 27.5738 66.8793 31.1468C64.7009 33.1256 62.6495 35.2933 61.1502 37.8434C60.5832 38.8077 60.8982 40.2279 61.9169 40.765C62.9432 41.3075 64.2342 41.0277 64.8386 39.9983C65.1494 39.4697 65.4836 38.955 65.8435 38.4574C65.915 38.3581 65.9887 38.2598 66.0613 38.1616C66.4116 37.6885 65.8894 38.3581 66.1211 38.0858C66.34 37.8295 66.5482 37.5636 66.7693 37.3084C67.5777 36.3783 68.4522 35.5069 69.3535 34.6676C71.2116 32.9376 73.1594 31.2985 75.1061 29.6689C77.1692 27.9411 79.2622 26.2486 81.3819 24.5913C81.62 24.4044 81.8592 24.2186 82.0984 24.0328C82.1689 23.9783 82.5149 23.7103 82.2244 23.9345C82.3312 23.8523 82.438 23.7701 82.5448 23.6879C83.1043 23.2575 83.6671 22.8293 84.2309 22.4032C85.2785 21.613 86.3314 20.8313 87.3918 20.0582C89.8372 18.2738 92.3167 16.5364 94.8273 14.8439C95.752 14.2202 96.2464 12.9345 95.5929 11.9222C94.9981 11.0028 93.6601 10.4891 92.6702 11.1576Z" fill="white"/>
<path d="M133.497 17.8811C132.643 20.0531 132.336 22.5583 134.139 24.3737C135.672 25.9178 138.057 26.0502 140.103 25.9125C144.056 25.6444 147.84 24.2263 150.855 21.6336C151.705 20.9021 151.661 19.3537 150.855 18.6137C149.949 17.7829 148.742 17.8341 147.835 18.6137C147.688 18.7407 147.537 18.8625 147.388 18.9853C147.267 19.0814 147.301 19.0547 147.489 18.9062C147.399 18.9735 147.308 19.0387 147.217 19.1038C146.94 19.2992 146.656 19.485 146.367 19.6602C146.073 19.8374 145.773 20.0051 145.469 20.162C145.289 20.2539 145.108 20.3425 144.925 20.4279C144.87 20.4536 144.358 20.6746 144.623 20.5657C144.886 20.4578 144.282 20.6949 144.227 20.7163C144.061 20.7771 143.896 20.8359 143.729 20.8914C143.393 21.0035 143.054 21.105 142.711 21.1947C142.338 21.2929 141.962 21.3783 141.582 21.452C141.377 21.4915 141.17 21.5236 140.964 21.5588C140.499 21.6389 141.334 21.5268 140.82 21.577C140.075 21.6485 139.329 21.6966 138.581 21.6731C138.405 21.6677 138.129 21.7008 137.965 21.6357C138.037 21.6464 138.111 21.6581 138.184 21.6688C138.068 21.6517 137.955 21.6314 137.841 21.6069C137.672 21.5706 137.512 21.5214 137.346 21.4734C136.882 21.3378 137.634 21.6325 137.252 21.42C136.849 21.1947 137.472 21.6517 137.161 21.3527C136.846 21.0505 137.382 21.6464 137.069 21.2C136.997 21.0591 137.016 21.1082 137.126 21.3484C137.092 21.2491 137.063 21.1487 137.041 21.0462C136.915 20.6469 137.015 21.4424 137.045 20.995C137.052 20.8989 137.126 20.398 137.032 20.8444C137.072 20.6565 137.11 20.4728 137.163 20.2881C137.285 19.8545 137.452 19.4338 137.618 19.0152C138.028 17.9729 137.169 16.6253 136.126 16.3882C134.895 16.1095 133.936 16.7652 133.497 17.8811Z" fill="white"/>
<path d="M230.156 10.6286C232.848 11.3653 235.65 11.7336 238.441 11.7105C239.178 11.7042 239.885 11.0705 239.85 10.31C239.817 9.55652 239.231 8.90318 238.441 8.90948C237.13 8.91998 235.821 8.84576 234.521 8.67979C234.808 8.71621 234.347 8.65388 234.291 8.64548C234.135 8.62237 233.978 8.59716 233.823 8.57125C233.511 8.51943 233.199 8.46201 232.888 8.39969C232.222 8.26594 231.561 8.10628 230.905 7.92701C230.195 7.73304 229.341 8.1679 229.172 8.90528C229.002 9.64616 229.396 10.4206 230.156 10.6286Z" fill="white"/>
<path d="M233.148 7.5266C232.969 9.88508 232.789 12.2436 232.609 14.6021C232.554 15.3345 233.297 16.0348 234.018 16.0026C234.829 15.9662 235.368 15.3863 235.427 14.6021C235.607 12.2436 235.787 9.88508 235.966 7.5266C236.022 6.79412 235.279 6.09386 234.557 6.12607C233.746 6.16178 233.208 6.7416 233.148 7.5266Z" fill="white"/>
<path d="M228.26 14.8698C231.54 16.2795 235.096 16.9454 238.67 16.6723C239.403 16.6163 240.115 16.0687 240.079 15.2718C240.047 14.561 239.457 13.811 238.67 13.8713C237.877 13.9322 237.08 13.9504 236.286 13.9196C235.878 13.9035 235.47 13.8762 235.063 13.8355C234.956 13.825 234.849 13.8131 234.743 13.8012C234.715 13.7984 234.449 13.7669 234.61 13.7865C234.795 13.8089 234.449 13.7634 234.415 13.7578C234.308 13.7417 234.202 13.7249 234.096 13.7074C233.311 13.5771 232.534 13.4014 231.771 13.1808C231.399 13.0737 231.03 12.9553 230.666 12.8272C230.463 12.7557 230.261 12.6815 230.061 12.6038C229.981 12.573 229.901 12.5408 229.822 12.5092C229.427 12.3524 230.073 12.6192 229.683 12.4518C229.322 12.2964 228.994 12.2018 228.597 12.3104C228.27 12.4 227.916 12.6507 227.755 12.9539C227.434 13.5575 227.538 14.5596 228.26 14.8698Z" fill="white"/>
<path d="M232.329 15.9836C232.076 18.6208 231.836 21.2594 231.583 23.8966C231.514 24.6283 232.281 25.3286 232.992 25.2971C233.816 25.2607 234.327 24.6802 234.401 23.8966C234.654 21.2594 234.894 18.6208 235.147 15.9836C235.216 15.2518 234.449 14.5515 233.738 14.5831C232.915 14.6202 232.404 15.2 232.329 15.9836Z" fill="white"/>
<path d="M233.772 20.457C235.348 20.992 237.013 21.1048 238.643 20.7672C239.365 20.6174 239.851 19.733 239.627 19.0446C239.379 18.2848 238.668 17.906 237.894 18.0663C237.836 18.0782 237.315 18.1637 237.647 18.121C237.479 18.1427 237.31 18.156 237.142 18.1637C236.843 18.1777 236.542 18.1735 236.243 18.1511C236.156 18.1448 236.07 18.1364 235.984 18.1273C236.142 18.1511 236.136 18.1497 235.968 18.1245C235.836 18.1013 235.705 18.0789 235.574 18.0509C235.217 17.9753 234.868 17.8738 234.522 17.7561C233.824 17.5194 232.951 18.0271 232.789 18.7344C232.61 19.5117 233.024 20.2028 233.772 20.457Z" fill="white"/>
<path d="M227.494 18.7121C227.476 19.007 227.453 19.3018 227.42 19.5952C227.414 19.6519 227.342 20.1764 227.391 19.8508C227.372 19.9761 227.353 20.1015 227.332 20.2261C227.232 20.8297 227.1 21.4285 226.938 22.0188C226.782 22.5888 226.598 23.1511 226.387 23.7036C226.334 23.8416 226.278 23.9788 226.223 24.1161C226.161 24.2666 226.159 24.2722 226.217 24.1315C226.192 24.1896 226.166 24.2477 226.14 24.3051C226.01 24.5944 225.872 24.8794 225.727 25.1616C225.394 25.8142 225.533 26.7105 226.233 27.0775C226.875 27.415 227.804 27.2722 228.16 26.5747C229.416 24.1168 230.142 21.4642 230.312 18.7121C230.358 17.9797 229.632 17.2794 228.903 17.3116C228.102 17.3473 227.544 17.9271 227.494 18.7121Z" fill="white"/>
<path d="M228.395 23.6234C231.548 26.4371 235.78 27.6443 239.955 27.0239C240.686 26.9154 241.154 25.9609 240.939 25.3012C240.68 24.5078 239.989 24.2067 239.206 24.323C238.873 24.3727 239.443 24.3006 239.136 24.3328C239.025 24.3447 238.914 24.3566 238.802 24.3664C238.578 24.386 238.354 24.3986 238.13 24.4056C237.7 24.4189 237.271 24.4091 236.842 24.3769C236.73 24.3685 236.619 24.3587 236.508 24.3475C236.465 24.3433 236.095 24.2999 236.305 24.3265C236.518 24.3538 236.202 24.3097 236.16 24.3034C236.049 24.2859 235.938 24.2663 235.828 24.2459C235.387 24.1633 234.951 24.0576 234.521 23.9294C234.306 23.8657 234.093 23.7957 233.882 23.7201C233.794 23.6885 233.706 23.6563 233.619 23.6227C233.582 23.608 233.241 23.4736 233.423 23.5478C233.605 23.622 233.269 23.4792 233.232 23.4624C233.146 23.4238 233.062 23.3846 232.978 23.344C232.777 23.2467 232.577 23.1444 232.381 23.0366C231.988 22.8216 231.608 22.5849 231.241 22.3286C231.149 22.2642 231.06 22.1977 230.969 22.1326C230.728 21.9596 231.147 22.2859 230.9 22.0779C230.728 21.9337 230.556 21.7922 230.388 21.6431C229.84 21.1536 228.929 21.0654 228.396 21.6431C227.902 22.1767 227.81 23.1003 228.395 23.6234Z" fill="white"/>
<path d="M241.179 13.5244C244.271 13.7457 247.362 13.967 250.455 14.1883C251.191 14.2408 251.896 13.5062 251.864 12.7877C251.828 11.9838 251.244 11.4439 250.455 11.3872C247.362 11.1659 244.271 10.9446 241.179 10.7234C240.442 10.6708 239.737 11.4054 239.77 12.1239C239.806 12.9278 240.389 13.4684 241.179 13.5244Z" fill="white"/>
<path d="M242.09 13.8176C241.915 16.1145 241.74 18.4106 241.565 20.7075C241.51 21.44 242.253 22.1402 242.974 22.108C243.785 22.0716 244.323 21.4918 244.383 20.7075C244.558 18.4106 244.733 16.1145 244.908 13.8176C244.964 13.0851 244.221 12.3849 243.499 12.4171C242.688 12.4535 242.15 13.0333 242.09 13.8176Z" fill="white"/>
<path d="M245.694 13.6335C245.385 17.6888 245.076 21.744 244.767 25.7992C244.705 26.6241 245.542 27.4126 246.355 27.3769C247.268 27.3363 247.874 26.683 247.942 25.7992C248.25 21.744 248.56 17.6888 248.868 13.6335C248.931 12.8086 248.093 12.0201 247.281 12.0559C246.367 12.0965 245.761 12.7498 245.694 13.6335Z" fill="white"/>
<path d="M240.908 23.263C242.485 23.3813 244.061 23.5004 245.638 23.6187C246.375 23.674 247.079 22.9352 247.047 22.2182C247.01 21.4122 246.427 20.8772 245.638 20.8176C244.061 20.6993 242.485 20.5803 240.908 20.4619C240.171 20.4066 239.466 21.1454 239.499 21.8624C239.536 22.6684 240.119 23.2034 240.908 23.263Z" fill="white"/>
<path d="M251.131 19.5494C252.36 19.6307 253.595 19.7588 254.826 19.7931C254.993 19.8085 255.009 19.8064 254.873 19.7875C254.751 19.7658 254.751 19.7679 254.876 19.7945C253.971 19.359 254.191 18.4416 254.118 19.1678C254.079 19.5459 254.164 18.9738 254.107 19.2595C254.087 19.3597 254.069 19.4598 254.045 19.5592C253.993 19.7861 253.926 20.0102 253.844 20.228C253.827 20.2742 253.809 20.3204 253.79 20.3659C253.751 20.4633 253.767 20.4269 253.836 20.2567C253.837 20.34 253.725 20.4885 253.686 20.5627C253.588 20.7483 253.48 20.9282 253.363 21.1019C253.322 21.1621 253.261 21.298 253.195 21.3379C253.318 21.1824 253.332 21.1642 253.237 21.2826C253.196 21.3323 253.154 21.3813 253.112 21.4303C252.834 21.749 252.525 22.0298 252.202 22.3001C251.966 22.4961 252.41 22.1586 252.176 22.3176C252.069 22.3911 251.964 22.4674 251.854 22.5389C251.69 22.646 251.522 22.7468 251.351 22.8428C251.151 22.9541 250.947 23.0577 250.74 23.1537C250.672 23.1852 250.383 23.347 250.718 23.1691C250.606 23.2286 250.474 23.2664 250.355 23.3105C249.666 23.5661 249.122 24.2692 249.37 25.0332C249.588 25.7026 250.364 26.286 251.103 26.0115C252.903 25.3427 254.479 24.3 255.628 22.7524C256.172 22.0193 256.575 21.1446 256.773 20.2546C256.902 19.6762 257.033 19.0011 256.911 18.4122C256.716 17.4816 255.875 17.0852 255.011 17.0047C253.722 16.8849 252.423 16.8331 251.131 16.7484C250.394 16.7001 249.689 17.4269 249.722 18.1489C249.758 18.9493 250.341 19.4976 251.131 19.5494Z" fill="white"/>
<path d="M243.034 14.6826L242.917 16.2188L246.57 16.4937L246.687 14.9576L243.034 14.6826Z" fill="white"/>
<path d="M242.804 17.7178L242.687 19.2539L246.339 19.5288L246.456 17.9927L242.804 17.7178Z" fill="white"/>
<path d="M249.722 18.147C249.583 20.4852 250.904 22.5503 252.732 23.906C254.59 25.2841 256.963 25.7077 259.208 25.2134C261.634 24.6791 263.836 23.1763 265.586 21.4691C267.358 19.7394 269.122 17.4243 268.994 14.8222C268.917 13.2732 268.24 11.8173 266.92 10.942C265.696 10.1304 264.003 10.0401 262.735 10.7928C262.103 11.1682 261.815 12.0694 262.23 12.7088C262.64 13.3418 263.48 13.6128 264.157 13.2108C264.197 13.187 264.246 13.166 264.284 13.138C264.399 13.0547 264.19 13.1765 264.166 13.1779C264.263 13.1737 264.392 13.1016 264.487 13.0799C264.526 13.0708 264.592 13.0701 264.628 13.0519C264.612 13.0596 264.344 13.0666 264.492 13.0757C264.604 13.0827 264.719 13.0736 264.831 13.0771C265.095 13.0862 264.585 13.0148 264.842 13.082C264.952 13.1107 265.062 13.1492 265.172 13.1744C265.316 13.208 265.078 13.1359 265.065 13.1226C265.092 13.1492 265.164 13.1688 265.199 13.1863C265.303 13.2382 265.399 13.2991 265.497 13.3586C265.529 13.3775 265.661 13.4812 265.513 13.3649C265.357 13.2417 265.522 13.3789 265.559 13.4125C265.632 13.4805 265.695 13.5568 265.765 13.6261C265.887 13.7452 265.698 13.5498 265.71 13.5498C265.724 13.5491 265.79 13.6667 265.799 13.68C265.866 13.783 265.922 13.8908 265.981 13.9986C266.09 14.1954 265.961 13.9524 265.967 13.9524C265.975 13.9524 266.016 14.089 266.021 14.1009C266.054 14.201 266.084 14.3026 266.109 14.4048C266.135 14.5077 266.152 14.6121 266.173 14.7164C266.208 14.881 266.159 14.6086 266.158 14.6079C266.193 14.6674 266.173 14.8082 266.176 14.874C266.183 15.089 266.167 15.2997 266.153 15.514C266.142 15.6821 266.16 15.4062 266.168 15.4062C266.165 15.4062 266.141 15.5518 266.139 15.563C266.108 15.7178 266.068 15.8704 266.023 16.021C265.989 16.1358 265.951 16.2493 265.909 16.3613C265.889 16.4174 265.866 16.4727 265.844 16.5287C265.852 16.5084 265.942 16.3277 265.868 16.4692C265.737 16.7185 265.618 16.9699 265.472 17.2115C265.346 17.418 265.212 17.6197 265.072 17.8165C265.022 17.8851 264.799 18.1778 264.964 17.9677C264.881 18.0742 264.795 18.1785 264.709 18.2822C264.394 18.6582 264.063 19.0188 263.715 19.3648C263.356 19.7233 262.98 20.065 262.587 20.3885C262.496 20.4642 262.402 20.5363 262.311 20.6112C262.147 20.745 262.485 20.4852 262.313 20.6091C262.265 20.6441 262.218 20.6799 262.17 20.7149C261.963 20.8668 261.752 21.0125 261.536 21.1525C261.11 21.4298 260.668 21.684 260.21 21.9074C260.088 21.9669 259.965 22.023 259.842 22.0783C259.593 22.1917 260.009 22.0188 259.753 22.114C259.504 22.2071 259.255 22.2961 259 22.371C258.785 22.434 258.567 22.4886 258.348 22.5335C258.238 22.5559 258.129 22.5741 258.02 22.5937C257.987 22.5993 257.802 22.6182 257.988 22.5993C258.204 22.5776 257.89 22.6063 257.847 22.6098C257.637 22.6266 257.428 22.6343 257.218 22.6308C257.122 22.6287 257.027 22.6245 256.931 22.6182C256.867 22.614 256.803 22.607 256.74 22.6021C256.545 22.586 256.759 22.5916 256.829 22.6161C256.654 22.5552 256.443 22.5482 256.261 22.504C256.041 22.4501 255.824 22.3843 255.611 22.308C255.524 22.2765 255.429 22.2211 255.339 22.2036C255.344 22.2043 255.591 22.3178 255.451 22.2491C255.408 22.2274 255.363 22.2085 255.318 22.1882C255.113 22.0909 254.912 21.983 254.717 21.8654C254.62 21.8066 254.524 21.7457 254.43 21.6826C254.374 21.6455 254.062 21.4158 254.218 21.537C254.373 21.6581 254.105 21.441 254.06 21.4025C253.975 21.329 253.892 21.2527 253.811 21.1749C253.637 21.0083 253.477 20.8311 253.322 20.649C253.296 20.6196 253.203 20.4873 253.313 20.6413C253.432 20.8059 253.305 20.6252 253.281 20.593C253.217 20.5034 253.156 20.4117 253.098 20.3178C252.972 20.1175 252.869 19.9089 252.764 19.6974C252.695 19.5594 252.814 19.8143 252.814 19.8164C252.808 19.7618 252.766 19.6939 252.747 19.6414C252.705 19.5237 252.669 19.4047 252.635 19.2842C252.607 19.1785 252.582 19.0714 252.561 18.9642C252.498 18.6407 252.566 19.1582 252.549 18.9159C252.531 18.6575 252.523 18.4054 252.538 18.1463C252.582 17.4138 251.859 16.7136 251.129 16.7458C250.33 16.7822 249.769 17.362 249.722 18.147Z" fill="white"/>
<path d="M256.512 3.78046C256.429 4.55635 256.346 5.33294 256.263 6.10883C256.184 6.83991 256.966 7.54087 257.672 7.50936C258.501 7.47224 258.997 6.89173 259.081 6.10883C259.164 5.33294 259.247 4.55635 259.33 3.78046C259.408 3.04938 258.626 2.34842 257.921 2.37993C257.091 2.41704 256.596 2.99756 256.512 3.78046Z" fill="white"/>
<path d="M261.584 5.23008C261.067 5.77628 260.551 6.32249 260.035 6.86869C259.53 7.40299 259.462 8.32664 260.035 8.84904C260.583 9.34902 261.489 9.41905 262.028 8.84904C262.544 8.30283 263.06 7.75663 263.576 7.21042C264.081 6.67612 264.149 5.75247 263.576 5.23008C263.029 4.73009 262.123 4.65936 261.584 5.23008Z" fill="white"/>
<path d="M205.433 0.183278C204.625 0.630046 203.797 1.0348 202.949 1.40174C202.567 1.5677 203.208 1.2995 202.822 1.45496C202.705 1.50187 202.589 1.54949 202.471 1.59501C202.276 1.67134 202.079 1.74556 201.883 1.81769C201.43 1.98365 200.972 2.13701 200.511 2.27917C199.628 2.55017 198.732 2.77705 197.827 2.95912C197.374 3.05015 196.919 3.12928 196.462 3.19721C196.359 3.21262 196.254 3.22732 196.151 3.24203C196.476 3.19791 196.059 3.25183 196.025 3.25533C195.775 3.28474 195.524 3.30995 195.274 3.33306C194.542 3.40029 193.829 3.92898 193.865 4.73359C193.896 5.43455 194.487 6.20624 195.274 6.13411C199.343 5.75947 203.28 4.57813 206.855 2.60199C207.5 2.24555 207.767 1.3121 207.361 0.686067C206.94 0.0369231 206.122 -0.197665 205.433 0.183278Z" fill="white"/>
<path d="M196.614 9.84516C200.277 10.0027 203.994 9.36128 207.378 7.95445C207.732 7.8074 208.018 7.65474 208.22 7.31091C208.397 7.0105 208.471 6.56863 208.362 6.23181C208.152 5.58476 207.357 4.95102 206.629 5.25354C205.012 5.92579 203.326 6.42578 201.601 6.7367C201.388 6.77521 201.175 6.81022 200.961 6.84314C200.854 6.85924 200.747 6.87465 200.64 6.89005C200.848 6.86064 200.677 6.88445 200.564 6.89846C200.134 6.94958 199.704 6.98949 199.272 7.0182C198.387 7.07632 197.499 7.08333 196.614 7.04481C195.876 7.0133 195.172 7.71146 195.205 8.44534C195.24 9.23033 195.824 9.81155 196.614 9.84516Z" fill="white"/>
<path d="M199.654 5.01805C200.483 7.18467 201.124 9.4157 201.573 11.6902C201.715 12.4107 202.62 12.889 203.306 12.6684C204.078 12.4205 204.442 11.7175 204.29 10.9458C203.842 8.67132 203.2 6.44029 202.371 4.27367C202.11 3.59091 201.41 3.04751 200.638 3.2954C199.968 3.51108 199.373 4.28488 199.654 5.01805Z" fill="white"/>
<path d="M202.027 17.7742C202.092 18.0809 202.152 18.389 202.205 18.6978C202.227 18.8302 202.248 18.9632 202.269 19.0956C202.282 19.1838 202.295 19.2728 202.308 19.3617C202.287 19.2111 202.288 19.2202 202.31 19.389C202.373 19.9681 202.428 20.5472 202.453 21.1299C202.505 22.3392 202.457 23.5493 202.318 24.7516C202.234 25.482 203.026 26.1837 203.727 26.1521C204.563 26.115 205.046 25.5345 205.136 24.7516C205.434 22.1732 205.28 19.5676 204.745 17.0291C204.594 16.3106 203.705 15.8282 203.012 16.0508C202.248 16.2973 201.864 17.0046 202.027 17.7742Z" fill="white"/>
<path d="M199.457 23.4769C201.946 23.3711 204.434 23.2654 206.923 23.1596C207.659 23.1281 208.368 22.5378 208.332 21.7591C208.299 21.0273 207.712 20.325 206.923 20.3586C204.434 20.4643 201.946 20.5701 199.457 20.6758C198.721 20.7073 198.013 21.2976 198.048 22.0763C198.081 22.8081 198.669 23.5105 199.457 23.4769Z" fill="white"/>
<path d="M198.736 27.0853C201.897 27.3143 205.074 27.0937 208.182 26.4831C208.906 26.341 209.388 25.4432 209.166 24.7605C208.917 23.9944 208.208 23.6295 207.433 23.7822C207.077 23.8522 206.72 23.9174 206.362 23.9769C206.16 24.0098 205.959 24.0413 205.757 24.0707C205.667 24.084 205.577 24.0959 205.488 24.1092C205.256 24.1421 205.69 24.0868 205.457 24.1127C204.713 24.1954 203.97 24.2752 203.223 24.3186C201.728 24.4068 200.229 24.3921 198.736 24.2843C197.999 24.2311 197.295 24.9663 197.327 25.6848C197.364 26.4887 197.947 27.0279 198.736 27.0853Z" fill="white"/>
<path d="M212.344 19.167C212.628 19.111 212.913 19.0689 213.198 19.0178C213.362 18.9877 213.179 19.0178 213.153 19.022C213.219 19.0129 213.286 19.0052 213.352 18.9975C213.529 18.9765 213.705 18.9583 213.882 18.9436C214.48 18.8918 215.081 18.8708 215.681 18.8806C216.283 18.8904 216.878 18.9457 217.477 19.0031C217.644 19.0192 217.458 18.9996 217.433 18.9961C217.499 19.0052 217.565 19.015 217.631 19.0248C217.785 19.0479 217.938 19.0731 218.092 19.1012C218.398 19.1558 218.703 19.2195 219.006 19.2909C219.225 19.3427 219.443 19.3974 219.658 19.4639C219.723 19.4842 220.056 19.5857 219.877 19.5318C219.707 19.48 219.858 19.5227 219.897 19.5416C219.957 19.5717 220.018 19.6011 220.077 19.6334C220.136 19.6656 220.191 19.702 220.248 19.7363C220.3 19.7671 220.371 19.863 220.265 19.744C220.136 19.599 220.334 19.8308 220.372 19.8679C220.481 19.9751 220.303 19.7853 220.3 19.7804C220.425 19.9471 220.329 19.8 220.304 19.737C220.324 19.7895 220.341 19.8434 220.356 19.8974C220.365 19.931 220.419 20.174 220.386 19.9884C220.355 19.8119 220.384 19.9947 220.384 20.029C220.385 20.106 220.389 20.1817 220.388 20.2587C220.386 20.3735 220.379 20.4891 220.369 20.6039C220.364 20.6606 220.355 20.7174 220.351 20.7741C220.338 20.9422 220.366 20.6908 220.365 20.6824C220.379 20.8112 220.312 21.0003 220.286 21.1284C220.185 21.6284 220.039 22.1186 219.853 22.5941C219.833 22.6466 219.811 22.6991 219.79 22.7516C219.835 22.6417 219.862 22.592 219.795 22.7285C219.729 22.8651 219.666 23.0016 219.595 23.1361C219.464 23.3875 219.32 23.6326 219.165 23.8707C219.093 23.9813 219.019 24.0912 218.941 24.1991C218.897 24.2607 218.851 24.3209 218.807 24.3818C218.877 24.2845 218.911 24.253 218.817 24.3657C218.622 24.5982 218.42 24.8223 218.205 25.0373C217.685 25.5576 217.643 26.505 218.205 27.0176C218.766 27.5295 219.643 27.5729 220.198 27.0176C221.083 26.1311 221.822 25.0835 222.32 23.9351C222.837 22.7418 223.25 21.4001 223.204 20.0857C223.174 19.2454 222.909 18.4751 222.332 17.8505C221.862 17.3414 221.199 17.0312 220.553 16.8106C219.265 16.3708 217.833 16.1958 216.48 16.111C214.844 16.0088 213.2 16.1495 211.593 16.4668C210.869 16.6096 210.387 17.506 210.609 18.1894C210.86 18.9541 211.568 19.3196 212.344 19.167Z" fill="white"/>
<path d="M216.597 14.1263C216.581 14.5709 216.553 15.0149 216.507 15.4582C216.495 15.5786 216.48 15.699 216.467 15.8202C216.436 16.0961 216.488 15.6969 216.46 15.8685C216.424 16.0877 216.392 16.3083 216.352 16.5275C216.195 17.3832 215.979 18.2284 215.706 19.0547C215.573 19.4588 215.423 19.8558 215.267 20.2515C215.119 20.6261 215.383 19.9959 215.22 20.3649C215.179 20.4573 215.139 20.5498 215.096 20.6422C215.004 20.8446 214.908 21.0463 214.809 21.2451C214.411 22.0434 213.955 22.8095 213.449 23.5448C213.032 24.1512 213.315 25.1246 213.955 25.4607C214.67 25.8361 215.437 25.6057 215.883 24.9579C218.072 21.7759 219.285 17.9742 219.416 14.1263C219.442 13.3931 218.751 12.6928 218.007 12.7257C217.221 12.7607 216.624 13.3413 216.597 14.1263Z" fill="white"/>
<path d="M177.012 15.7144C181.255 15.8166 185.608 15.0576 189.492 13.337C190.168 13.038 190.379 12.0086 189.997 11.4211C189.547 10.7264 188.793 10.5983 188.07 10.9183C187.971 10.9624 187.873 11.0107 187.77 11.0486C188.09 10.9288 187.77 11.0471 187.699 11.0759C187.473 11.1662 187.245 11.253 187.015 11.3357C186.578 11.4932 186.137 11.6375 185.691 11.7698C184.742 12.0513 183.777 12.2796 182.804 12.4603C182.315 12.5506 181.824 12.6304 181.331 12.697C181.66 12.6529 181.246 12.7061 181.211 12.7103C181.087 12.725 180.963 12.739 180.839 12.7523C180.591 12.7789 180.342 12.8027 180.093 12.823C179.068 12.907 178.04 12.9379 177.012 12.9134C176.274 12.8958 175.569 13.5702 175.603 14.3139C175.638 15.0877 176.222 15.6955 177.012 15.7144Z" fill="white"/>
<path d="M181.03 9.39878C181.395 10.7818 181.688 12.1823 181.898 13.5969C181.906 13.648 181.979 14.1823 181.941 13.8868C181.964 14.0632 181.986 14.2404 182.007 14.4176C182.048 14.7719 182.085 15.1262 182.116 15.4813C182.179 16.1913 182.221 16.9035 182.245 17.6164C182.27 18.3474 182.876 19.0519 183.654 19.0169C184.396 18.984 185.09 18.4007 185.063 17.6164C184.96 14.5947 184.519 11.5787 183.747 8.6544C183.56 7.94573 182.732 7.44504 182.014 7.67613C181.281 7.91212 180.83 8.63899 181.03 9.39878Z" fill="white"/>
<path d="M184.586 16.543C182.414 16.5549 180.068 17.244 178.475 18.7551C177.312 19.858 176.561 21.5044 176.596 23.1122C176.635 24.9371 177.724 26.5302 179.385 27.2969C181.077 28.0777 182.893 28.1667 184.717 27.9216C185.848 27.7696 186.928 27.4692 187.953 26.958C190.578 25.6478 192.948 22.0401 191.016 19.2397C189.633 17.2356 186.921 16.5374 184.586 16.543C183.85 16.5451 183.144 17.1858 183.177 17.9435C183.211 18.7005 183.797 19.3462 184.586 19.3441C184.777 19.3434 184.966 19.3532 185.156 19.3658C185.311 19.3763 185.466 19.3903 185.62 19.4078C185.659 19.412 185.698 19.4176 185.736 19.4211C185.979 19.4463 185.396 19.37 185.574 19.3994C185.693 19.419 185.811 19.4351 185.929 19.4561C186.382 19.5366 186.831 19.648 187.266 19.8006C187.397 19.8468 187.736 20.0422 187.356 19.8265C187.455 19.8826 187.567 19.9218 187.668 19.9736C187.77 20.0261 187.872 20.0814 187.97 20.1403C188.025 20.1732 188.078 20.2068 188.131 20.2425C188.239 20.3139 188.4 20.5051 188.124 20.2236C188.283 20.3853 188.461 20.5268 188.616 20.6949C188.766 20.8566 188.544 20.6115 188.537 20.5905C188.554 20.6423 188.615 20.7019 188.645 20.7495C188.68 20.8041 188.713 20.8594 188.744 20.9161C188.786 20.9946 188.832 21.185 188.763 20.9323C188.806 21.0898 188.921 21.2915 188.902 21.4567C188.906 21.428 188.885 21.1283 188.884 21.3944C188.884 21.4624 188.888 21.5303 188.886 21.5982C188.885 21.6318 188.883 21.6654 188.882 21.699C188.867 21.8573 188.873 21.8328 188.9 21.6241C188.91 21.6556 188.867 21.7992 188.863 21.8181C188.828 21.9756 188.783 22.1311 188.729 22.2831C188.718 22.3125 188.707 22.3426 188.696 22.372C188.639 22.5141 188.65 22.4889 188.73 22.2957C188.734 22.2999 188.646 22.4707 188.651 22.4602C188.586 22.5898 188.516 22.7158 188.44 22.8398C188.385 22.9308 188.327 23.0197 188.267 23.1073C188.232 23.1577 188.196 23.206 188.161 23.2564C187.983 23.5148 188.356 23.0246 188.206 23.2032C188.105 23.3222 188.006 23.442 187.898 23.5547C187.775 23.6843 187.645 23.8082 187.509 23.9252C187.483 23.9469 187.364 24.0617 187.347 24.0596C187.481 23.9581 187.507 23.9371 187.425 23.998C187.383 24.0281 187.342 24.0582 187.3 24.0869C187.054 24.2557 186.796 24.4063 186.53 24.5393C186.444 24.582 186.357 24.6205 186.272 24.6619C186.072 24.7571 186.351 24.6219 186.352 24.6296C186.356 24.6499 185.919 24.79 185.893 24.7991C185.44 24.9504 184.973 25.0624 184.502 25.1422C184.358 25.1667 184.214 25.187 184.071 25.2067C183.77 25.2487 184.451 25.1695 184.091 25.2025C183.904 25.22 183.717 25.2396 183.53 25.2501C183.192 25.269 182.853 25.269 182.515 25.2487C182.402 25.2424 182.291 25.2298 182.179 25.2221C182.089 25.2165 181.939 25.2473 182.222 25.2326C182.036 25.2424 181.806 25.1639 181.628 25.1233C181.47 25.0876 181.313 25.0463 181.158 24.9987C181.074 24.9728 180.99 24.9448 180.906 24.9146C180.821 24.8838 180.59 24.8362 180.902 24.921C180.641 24.8502 180.202 24.6184 180.021 24.4168C180.042 24.4413 180.254 24.6247 180.073 24.449C180.011 24.388 179.944 24.3313 179.882 24.2683C179.838 24.2228 179.727 24.1395 179.711 24.0799C179.715 24.0953 179.892 24.353 179.753 24.1269C179.727 24.0841 179.489 23.7578 179.516 23.7109C179.52 23.7039 179.632 24.0484 179.551 23.7851C179.524 23.6955 179.493 23.6094 179.47 23.5183C179.451 23.4469 179.446 23.3608 179.42 23.2921C179.352 23.1143 179.439 23.6465 179.427 23.3433C179.422 23.2039 179.412 23.066 179.416 22.9259C179.418 22.8482 179.426 22.7711 179.429 22.6934C179.435 22.5765 179.505 22.5155 179.414 22.7872C179.467 22.6276 179.479 22.4462 179.525 22.2831C179.564 22.1465 179.61 22.0142 179.658 21.8811C179.765 21.5842 179.551 22.094 179.644 21.9126C179.68 21.8433 179.711 21.7719 179.747 21.7025C179.811 21.5793 179.881 21.4588 179.956 21.3412C179.997 21.2768 180.042 21.2152 180.083 21.1507C180.233 20.9182 179.894 21.3566 180.092 21.136C180.141 21.0814 180.808 20.4358 180.81 20.44C180.815 20.4526 180.523 20.6423 180.738 20.4988C180.811 20.4498 180.882 20.398 180.956 20.3503C181.09 20.2635 181.228 20.183 181.368 20.1073C181.506 20.0331 181.648 19.9673 181.79 19.8994C182.002 19.7978 181.71 19.9358 181.685 19.9414C181.762 19.9239 181.841 19.8791 181.916 19.851C182.189 19.7502 182.467 19.6641 182.749 19.5919C183.003 19.5268 183.26 19.4729 183.518 19.4288C183.6 19.4148 184.006 19.356 183.704 19.3973C183.4 19.4393 183.781 19.391 183.851 19.384C184.096 19.3602 184.342 19.3441 184.588 19.3427C185.325 19.3385 186.031 18.7012 185.997 17.9421C185.962 17.1879 185.376 16.5388 184.586 16.543Z" fill="white"/>
<path d="M185.468 3.99847C185.317 4.12172 185.163 4.24217 185.011 4.36401C184.879 4.46975 185.208 4.21696 184.994 4.37592C184.905 4.44174 184.817 4.50827 184.729 4.57339C184.392 4.81918 184.051 5.05727 183.704 5.28766C182.987 5.76454 182.249 6.2099 181.497 6.62936C180.703 7.07193 179.892 7.48578 179.068 7.87163C178.635 8.07471 178.198 8.26868 177.759 8.45845C177.719 8.47526 177.679 8.49276 177.639 8.50957C177.753 8.46195 177.764 8.45705 177.672 8.49556C177.571 8.53688 177.469 8.57959 177.367 8.62091C177.122 8.72035 176.876 8.81698 176.629 8.91222C175.944 9.17622 175.394 9.86458 175.645 10.6349C175.86 11.2966 176.642 11.8967 177.378 11.6131C180.986 10.221 184.461 8.43254 187.46 5.97882C188.031 5.51104 187.983 4.47605 187.46 3.99847C186.853 3.44457 186.077 3.49989 185.468 3.99847Z" fill="white"/>
<path d="M166.58 21.206C167.775 21.2473 168.97 21.2887 170.166 21.33C170.487 21.3412 170.809 21.3524 171.131 21.3636C171.269 21.3685 171.407 21.3713 171.544 21.3776C171.61 21.3797 171.675 21.3832 171.74 21.3888C171.681 21.3804 171.622 21.3727 171.563 21.3643C171.627 21.3755 171.69 21.3916 171.751 21.4119C171.544 21.3601 171.384 21.2347 171.273 21.0373C171.237 20.9049 171.201 20.7733 171.165 20.6409C171.2 20.4532 171.197 20.4399 171.157 20.601C170.994 20.9462 171.27 20.4084 171.129 20.6612C171.081 20.7487 171.038 20.8405 170.992 20.9287C170.576 21.7221 170.102 22.4868 169.601 23.2291C169.341 23.6149 169.068 23.9903 168.79 24.3628C168.726 24.4447 168.748 24.4174 168.854 24.2795C168.814 24.3313 168.773 24.3824 168.731 24.4335C168.671 24.5078 168.611 24.5813 168.549 24.6541C168.418 24.8096 168.282 24.9615 168.141 25.1093C167.635 25.6422 167.569 26.5679 168.141 27.0896C168.691 27.591 169.593 27.6589 170.134 27.0896C170.907 26.2759 171.57 25.3474 172.187 24.4139C172.793 23.4966 173.408 22.5351 173.811 21.5092C174.18 20.5709 173.908 19.461 173.005 18.9302C172.357 18.5478 171.581 18.5779 170.854 18.5527C169.429 18.5037 168.003 18.454 166.578 18.405C165.84 18.3798 165.136 19.0674 165.169 19.8055C165.206 20.5863 165.789 21.1787 166.58 21.206Z" fill="white"/>
<path d="M169.376 15.5358C170.279 15.5358 171.228 15.1451 171.867 14.5106C172.478 13.9035 172.938 12.907 172.898 12.0345C172.857 11.1291 172.558 10.19 171.867 9.55839C171.178 8.92955 170.33 8.5332 169.376 8.5332C168.473 8.5332 167.524 8.92395 166.885 9.55839C166.274 10.1655 165.814 11.162 165.853 12.0345C165.894 12.94 166.193 13.879 166.885 14.5106C167.574 15.1395 168.421 15.5358 169.376 15.5358Z" fill="white"/>
<path d="M195.883 11.7945C194.371 13.5752 194.286 16.2705 195.952 17.9981C197.415 19.5156 200.034 19.907 201.785 18.6472C203.725 17.2516 204.447 14.6915 203.225 12.5711C202.061 10.5529 199.198 9.58164 197.111 10.7882C195.699 11.6047 195.077 13.7132 196.443 14.8854C197.139 15.4835 198.096 15.655 198.927 15.2153C199.801 14.7524 200.134 13.8091 199.965 12.8841C199.833 12.1614 198.911 11.6873 198.231 11.9058C197.452 12.1565 197.106 12.8547 197.247 13.6285C197.176 13.237 197.278 12.8638 197.67 12.7202C197.795 12.6747 197.914 12.6649 198.044 12.6887C198.124 12.7027 198.428 12.8813 198.225 12.7391C198.333 12.8147 198.392 12.8666 198.465 12.9863C198.416 12.9058 198.371 12.7797 198.482 13.0717C198.403 12.8652 198.488 13.0865 198.489 13.1383C198.455 13.3126 198.452 13.3477 198.477 13.2426C198.506 13.1446 198.491 13.1705 198.432 13.3217C198.537 13.111 198.441 13.2818 198.396 13.3308C198.417 13.3077 198.509 13.1901 198.552 13.1761C198.305 13.2587 198.488 13.2545 198.583 13.1803C198.732 13.0633 198.364 13.2405 198.548 13.188C198.568 13.1824 199.023 13.0696 199.024 13.064C199.021 13.0851 198.668 13.0865 198.964 13.0766C199.071 13.0731 199.175 13.0682 199.281 13.071C199.31 13.0717 199.488 13.09 199.492 13.0844C199.46 13.1285 199.215 13.0304 199.431 13.0794C199.587 13.1152 199.739 13.1509 199.891 13.2027C199.94 13.2195 200.137 13.3182 199.968 13.2286C199.796 13.1376 199.996 13.2489 200.038 13.2713C200.115 13.3126 200.191 13.3568 200.266 13.4037C200.305 13.4282 200.527 13.6145 200.38 13.4786C200.216 13.328 200.468 13.5675 200.477 13.5759C200.528 13.6264 200.576 13.6796 200.626 13.7314C200.68 13.7867 200.759 13.9345 200.613 13.7055C200.652 13.7671 200.697 13.8259 200.735 13.8883C200.774 13.9506 200.811 14.0143 200.845 14.0787C200.854 14.0941 200.98 14.4142 200.913 14.2111C200.854 14.0325 200.923 14.2587 200.936 14.3021C200.968 14.4071 200.985 14.5171 201.018 14.6214C201.078 14.8133 201.009 14.3735 201.015 14.5752C201.018 14.6634 201.028 14.751 201.028 14.8392C201.028 14.9057 201.024 14.9716 201.022 15.0381C201.017 15.204 200.947 15.1032 201.038 14.9618C200.98 15.0514 200.978 15.244 200.946 15.3483C200.94 15.37 200.854 15.6837 200.915 15.4617C200.971 15.2615 200.886 15.5192 200.861 15.5661C200.792 15.7005 200.705 15.8203 200.627 15.9491C200.528 16.1116 200.796 15.7657 200.663 15.9029C200.606 15.9631 200.554 16.0283 200.495 16.0878C200.448 16.1354 200.398 16.1788 200.351 16.2257C200.241 16.3343 200.243 16.2334 200.404 16.1963C200.279 16.225 200.098 16.3938 199.981 16.461C199.762 16.5878 200.002 16.4386 200.046 16.4442C200.014 16.44 199.898 16.4981 199.857 16.5114C199.779 16.5359 199.7 16.557 199.621 16.5752C199.556 16.5899 199.381 16.6683 199.568 16.5927C199.761 16.5149 199.535 16.5934 199.464 16.5962C199.4 16.599 199.334 16.5997 199.269 16.599C199.204 16.5983 199.14 16.5927 199.074 16.5899C198.75 16.5752 199.376 16.6662 199.061 16.5871C198.935 16.5549 198.807 16.5296 198.682 16.489C198.67 16.4848 198.515 16.4463 198.498 16.4239C198.55 16.4456 198.602 16.4673 198.653 16.4897C198.609 16.4694 198.565 16.4484 198.521 16.426C198.405 16.3672 198.292 16.3014 198.184 16.2292C198.17 16.2201 198.157 16.211 198.143 16.2019C198.019 16.113 198.036 16.127 198.195 16.2446C198.144 16.2404 198.048 16.1144 198.014 16.0815C197.956 16.0248 197.903 15.9638 197.847 15.9057C197.67 15.7236 197.937 16.0626 197.859 15.9197C197.818 15.8462 197.766 15.7783 197.725 15.7047C197.704 15.6669 197.568 15.4036 197.662 15.5969C197.761 15.8 197.633 15.5017 197.625 15.4786C197.599 15.3973 197.578 15.3154 197.559 15.2328C197.53 15.1102 197.428 14.9779 197.548 15.2531C197.518 15.1844 197.532 15.071 197.529 14.9982C197.526 14.9127 197.526 14.828 197.529 14.7426C197.531 14.6957 197.552 14.398 197.531 14.6235C197.509 14.8602 197.552 14.5346 197.559 14.5073C197.578 14.424 197.6 14.342 197.625 14.2608C197.647 14.1873 197.666 14.0836 197.709 14.0199C197.619 14.1523 197.631 14.1943 197.719 14.0318C197.759 13.9569 197.808 13.8869 197.849 13.8126C197.984 13.5661 197.678 14.0038 197.876 13.7706C198.351 13.2111 198.47 12.3309 197.876 11.7903C197.351 11.3169 196.39 11.1964 195.883 11.7945Z" fill="white"/>
<path d="M203.002 11.273C201.49 13.0538 201.406 15.7491 203.071 17.4766C204.535 18.9941 207.153 19.3855 208.905 18.1258C210.845 16.7301 211.567 14.17 210.345 12.0496C209.181 10.0314 206.318 9.06015 204.231 10.2667C202.819 11.0832 202.196 13.1917 203.562 14.3639C204.259 14.962 205.216 15.1335 206.046 14.6938C206.921 14.2309 207.253 13.2876 207.084 12.3626C206.952 11.6399 206.03 11.1658 205.351 11.3843C204.571 11.635 204.226 12.3332 204.367 13.107C204.296 12.7155 204.397 12.3423 204.79 12.1987C204.914 12.1532 205.033 12.1434 205.164 12.1672C205.244 12.1812 205.548 12.3598 205.345 12.2176C205.453 12.2933 205.512 12.3451 205.584 12.4648C205.536 12.3843 205.491 12.2583 205.602 12.5503C205.523 12.3437 205.608 12.565 205.609 12.6168C205.575 12.7912 205.572 12.8262 205.597 12.7211C205.626 12.6231 205.61 12.649 205.552 12.8003C205.657 12.5895 205.56 12.7603 205.516 12.8094C205.537 12.7863 205.629 12.6686 205.672 12.6546C205.425 12.7372 205.608 12.733 205.703 12.6588C205.851 12.5419 205.484 12.719 205.667 12.6665C205.688 12.6609 206.143 12.5482 206.144 12.5426C206.141 12.5636 205.788 12.565 206.084 12.5552C206.19 12.5517 206.294 12.5468 206.401 12.5496C206.43 12.5503 206.608 12.5685 206.611 12.5629C206.58 12.607 206.335 12.5089 206.551 12.558C206.707 12.5937 206.859 12.6294 207.01 12.6812C207.06 12.698 207.257 12.7968 207.088 12.7071C206.916 12.6161 207.115 12.7274 207.157 12.7498C207.235 12.7912 207.311 12.8353 207.386 12.8822C207.424 12.9067 207.647 13.093 207.5 12.9571C207.336 12.8066 207.587 13.046 207.596 13.0545C207.648 13.1049 207.696 13.1581 207.746 13.2099C207.799 13.2652 207.879 13.413 207.732 13.184C207.772 13.2456 207.816 13.3044 207.855 13.3668C207.894 13.4291 207.93 13.4928 207.965 13.5572C207.973 13.5726 208.099 13.8927 208.032 13.6896C207.973 13.511 208.042 13.7372 208.056 13.7806C208.088 13.8857 208.105 13.9956 208.137 14.0999C208.197 14.2918 208.128 13.8521 208.135 14.0537C208.137 14.142 208.148 14.2295 208.148 14.3177C208.148 14.3843 208.144 14.4501 208.142 14.5166C208.137 14.6826 208.066 14.5817 208.157 14.4403C208.1 14.5299 208.097 14.7225 208.066 14.8268C208.059 14.8485 207.973 15.1622 208.035 14.9403C208.09 14.74 208.006 14.9977 207.981 15.0446C207.911 15.1791 207.825 15.2988 207.746 15.4276C207.648 15.5901 207.916 15.2442 207.783 15.3814C207.725 15.4416 207.673 15.5068 207.615 15.5663C207.567 15.6139 207.517 15.6573 207.47 15.7042C207.36 15.8128 207.362 15.712 207.524 15.6748C207.399 15.7035 207.217 15.8723 207.101 15.9395C206.882 16.0663 207.122 15.9171 207.165 15.9227C207.133 15.9185 207.017 15.9767 206.976 15.99C206.899 16.0145 206.82 16.0355 206.74 16.0537C206.676 16.0684 206.501 16.1468 206.688 16.0712C206.881 15.9935 206.654 16.0719 206.584 16.0747C206.519 16.0775 206.454 16.0782 206.389 16.0775C206.323 16.0768 206.259 16.0712 206.194 16.0684C205.87 16.0537 206.496 16.1447 206.181 16.0656C206.054 16.0334 205.927 16.0082 205.802 15.9675C205.789 15.9633 205.635 15.9248 205.617 15.9024C205.67 15.9241 205.722 15.9458 205.773 15.9682C205.729 15.9479 205.684 15.9269 205.641 15.9045C205.524 15.8457 205.412 15.7799 205.303 15.7078C205.29 15.6986 205.276 15.6895 205.262 15.6804C205.138 15.5915 205.156 15.6055 205.314 15.7232C205.264 15.719 205.167 15.5929 205.134 15.56C205.076 15.5033 205.023 15.4423 204.966 15.3842C204.79 15.2022 205.057 15.5411 204.978 15.3982C204.938 15.3247 204.885 15.2568 204.845 15.1833C204.823 15.1454 204.688 14.8821 204.782 15.0754C204.88 15.2785 204.752 14.9802 204.744 14.9571C204.719 14.8758 204.697 14.7939 204.678 14.7113C204.65 14.5887 204.548 14.4564 204.668 14.7316C204.638 14.663 204.651 14.5495 204.649 14.4767C204.645 14.3913 204.645 14.3065 204.649 14.2211C204.651 14.1742 204.672 13.8766 204.651 14.102C204.629 14.3387 204.672 14.0131 204.678 13.9858C204.697 13.9025 204.72 13.8205 204.744 13.7393C204.767 13.6658 204.785 13.5621 204.829 13.4984C204.738 13.6308 204.751 13.6728 204.838 13.5103C204.878 13.4354 204.928 13.3654 204.969 13.2911C205.104 13.0446 204.798 13.4823 204.996 13.2491C205.471 12.6896 205.589 11.8094 204.996 11.2688C204.472 10.7954 203.51 10.675 203.002 11.273Z" fill="white"/>
</svg>
