<svg width="11" height="14" viewBox="0 0 11 14" fill="none" xmlns="http://www.w3.org/2000/svg">
<path d="M4.67233 12.8543L4.5199 12.749C3.75699 12.2045 3.04807 11.5852 2.40325 10.9001C1.2703 9.68928 0 7.87433 0 5.73219C0 3.09682 2.09679 0.46875 5.16061 0.46875C8.22442 0.46875 10.3212 3.09682 10.3212 5.733C10.3212 7.87514 9.05091 9.69009 7.91796 10.8992C7.27314 11.5844 6.56423 12.2037 5.80131 12.7482C5.73674 12.7941 5.68593 12.8292 5.64888 12.8535C5.48771 12.9628 5.32336 13.0665 5.16061 13.1718C4.99785 13.0665 4.8335 12.9628 4.67233 12.8543ZM5.16061 7.35276C5.58174 7.35276 5.98562 7.18211 6.28341 6.87834C6.58119 6.57458 6.74848 6.16258 6.74848 5.733C6.74848 5.30341 6.58119 4.89141 6.28341 4.58765C5.98562 4.28388 5.58174 4.11323 5.16061 4.11323C4.73947 4.11323 4.33559 4.28388 4.03781 4.58765C3.74002 4.89141 3.57273 5.30341 3.57273 5.733C3.57273 6.16258 3.74002 6.57458 4.03781 6.87834C4.33559 7.18211 4.73947 7.35276 5.16061 7.35276Z" fill="#8A8A8A"/>
</svg>
