<svg width="134" height="133" viewBox="0 0 134 133" fill="none" xmlns="http://www.w3.org/2000/svg">
<path d="M38.6796 20.0362C48.4716 -6.42619 85.8995 -6.4262 95.6915 20.0362V20.0362C98.7701 28.3559 105.33 34.9155 113.649 37.994V37.994C140.112 47.786 140.112 85.214 113.649 95.006V95.006C105.33 98.0845 98.7701 104.644 95.6915 112.964V112.964C85.8995 139.426 48.4716 139.426 38.6796 112.964V112.964C35.601 104.644 29.0415 98.0845 20.7218 95.006V95.006C-5.74065 85.214 -5.74065 47.786 20.7218 37.994V37.994C29.0415 34.9155 35.601 28.3559 38.6796 20.0362V20.0362Z" fill="#C1E8E4"/>
</svg>
