<svg width="53" height="53" viewBox="0 0 53 53" fill="none" xmlns="http://www.w3.org/2000/svg">
<path d="M17.5634 16.0929L24.4277 1.77374C24.6275 1.35934 24.9348 1.01079 25.3152 0.767183C25.6955 0.523572 26.1339 0.394531 26.581 0.394531C27.0282 0.394531 27.4666 0.523572 27.8469 0.767183C28.2273 1.01079 28.5346 1.35934 28.7344 1.77374L35.5987 16.0929L50.9442 18.4028C51.3868 18.4664 51.8033 18.6576 52.146 18.9546C52.4888 19.2516 52.744 19.6424 52.8826 20.0825C53.0212 20.5226 53.0375 20.9941 52.9298 21.4433C52.822 21.8925 52.5945 22.3013 52.2732 22.623L41.1709 33.762L43.7919 49.4989C44.1275 51.5187 42.0666 53.0568 40.3043 52.1043L26.581 44.6711L12.8551 52.1043C11.0955 53.0595 9.03458 51.5187 9.37014 49.4961L11.9911 33.7593L0.888867 22.6203C0.569132 22.2984 0.342996 21.89 0.236163 21.4416C0.129331 20.9932 0.146088 20.5227 0.284528 20.0836C0.422968 19.6446 0.677539 19.2546 1.01931 18.9579C1.36107 18.6613 1.77632 18.4699 2.21786 18.4056L17.5634 16.0929Z" fill="#898989"/>
</svg>
