<svg width="53" height="53" viewBox="0 0 53 53" fill="none" xmlns="http://www.w3.org/2000/svg">
<path d="M17.5217 16.0929L24.3859 1.77374C24.5858 1.35934 24.8931 1.01079 25.2734 0.767183C25.6538 0.523572 26.0921 0.394531 26.5393 0.394531C26.9865 0.394531 27.4248 0.523572 27.8052 0.767183C28.1855 1.01079 28.4928 1.35934 28.6926 1.77374L35.5569 16.0929L50.9025 18.4028C51.3451 18.4664 51.7615 18.6576 52.1043 18.9546C52.447 19.2516 52.7023 19.6424 52.8408 20.0825C52.9794 20.5226 52.9958 20.9941 52.888 21.4433C52.7803 21.8925 52.5528 22.3013 52.2315 22.623L41.1292 33.762L43.7502 49.4989C44.0857 51.5187 42.0249 53.0568 40.2626 52.1043L26.5393 44.6711L12.8134 52.1043C11.0537 53.0595 8.99284 51.5187 9.32839 49.4961L11.9494 33.7593L0.847119 22.6203C0.527384 22.2984 0.301248 21.89 0.194415 21.4416C0.087583 20.9932 0.10434 20.5227 0.24278 20.0836C0.38122 19.6446 0.635791 19.2546 0.977558 18.9579C1.31932 18.6613 1.73458 18.4699 2.17612 18.4056L17.5217 16.0929Z" fill="#FFBF61"/>
</svg>
