<svg width="270" height="42" viewBox="0 0 270 42" fill="none" xmlns="http://www.w3.org/2000/svg">
<rect x="0.223633" width="269" height="42" rx="10" fill="#EFEFEF"/>
<path d="M31.4785 23.2559H30.6885L30.4085 22.9859C31.4224 21.8099 31.9796 20.3086 31.9785 18.7559C31.9785 17.4703 31.5973 16.2136 30.8831 15.1447C30.1688 14.0757 29.1537 13.2426 27.966 12.7506C26.7782 12.2587 25.4713 12.13 24.2104 12.3808C22.9496 12.6316 21.7914 13.2506 20.8823 14.1597C19.9733 15.0687 19.3542 16.2269 19.1034 17.4878C18.8526 18.7487 18.9813 20.0556 19.4733 21.2433C19.9653 22.431 20.7984 23.4462 21.8673 24.1604C22.9362 24.8746 24.1929 25.2559 25.4785 25.2559C27.0885 25.2559 28.5685 24.6659 29.7085 23.6859L29.9785 23.9659V24.7559L34.9785 29.7459L36.4685 28.2559L31.4785 23.2559ZM25.4785 23.2559C22.9885 23.2559 20.9785 21.2459 20.9785 18.7559C20.9785 16.2659 22.9885 14.2559 25.4785 14.2559C27.9685 14.2559 29.9785 16.2659 29.9785 18.7559C29.9785 21.2459 27.9685 23.2559 25.4785 23.2559Z" fill="#A8A8A8"/>
<path d="M49.5048 27.686V26.524H61.4888V27.686H49.5048ZM51.7028 21.036H54.7828V18.362C53.9568 19.384 52.8648 20.308 51.7028 21.036ZM57.9328 22.926V21.946H52.9068V22.926H57.9328ZM57.9328 24.788V23.794H52.9068V24.788H57.9328ZM61.6428 16.934V18.068H57.6388C59.1088 19.006 60.6768 20.098 61.5868 20.882L60.7188 21.848C59.7108 20.896 57.7368 19.468 56.0708 18.39V21.036H59.2768V25.684H51.6188V21.092C51.0588 21.442 50.4708 21.722 49.8968 21.96C49.7008 21.638 49.3088 21.176 49.0568 20.91C50.6808 20.364 52.3748 19.286 53.5088 18.068H49.3088V16.934H54.7828V15.254H56.0708V16.934H61.6428ZM68.2368 17.592V18.628H63.1548V17.592H65.5768C65.3528 17.074 64.9188 16.276 64.5408 15.702L65.4508 15.17C65.8568 15.73 66.3048 16.472 66.5148 16.976L65.6048 17.592H68.2368ZM67.6488 20.476H63.7008V19.454H67.6488V20.476ZM66.6128 24.242H64.7228V26.244H66.6128V24.242ZM67.6628 23.192V27.294H64.7228V27.924H63.7008V23.192H67.6628ZM63.7008 22.31V21.302H67.6628V22.31H63.7008ZM71.8628 20.728H70.0288V21.988H71.8628V20.728ZM70.0288 24.27H71.8628V23.01H70.0288V24.27ZM75.6708 17.298V17.928C75.4888 24.438 75.3488 26.692 74.8168 27.378C74.5088 27.826 74.1868 27.966 73.7108 28.036C73.2628 28.092 72.5208 28.092 71.8068 28.05C71.7788 27.686 71.6248 27.126 71.4008 26.762C72.1568 26.832 72.8568 26.832 73.1648 26.832C73.4028 26.832 73.5568 26.776 73.6968 26.594C74.0748 26.132 74.2708 24.018 74.4108 18.474H70.1968C69.9728 18.908 69.7208 19.328 69.4688 19.692H72.9268V25.306H70.0288V25.936H68.9928V20.336L68.8108 20.546C68.5728 20.322 68.0128 19.944 67.7048 19.748C68.7548 18.684 69.5948 17.018 70.0568 15.296L71.3588 15.576C71.1908 16.178 70.9808 16.752 70.7428 17.298H75.6708Z" fill="#A8A8A8"/>
</svg>
