<svg width="30" height="29" viewBox="0 0 30 29" fill="none" xmlns="http://www.w3.org/2000/svg">
<path d="M29.2052 24.3767L22.8164 17.9881C23.9288 16.1869 24.6013 14.0858 24.6013 11.8139C24.6013 5.289 19.3121 0 12.787 0C6.26183 0 0.972656 5.289 0.972656 11.8139C0.972656 18.3388 6.26183 23.6278 12.787 23.6278C15.0589 23.6278 17.1601 22.9554 18.9595 21.8449L25.3501 28.2335C25.8644 28.7307 26.5535 29.006 27.2689 28.9999C27.9843 28.9938 28.6686 28.7068 29.1744 28.2009C29.6801 27.6949 29.9668 27.0104 29.9726 26.2951C29.9783 25.5797 29.7027 24.8907 29.2052 24.3767ZM12.787 19.9928C8.27026 19.9928 4.60783 16.3305 4.60783 11.8139C4.60783 7.29737 8.27026 3.63505 12.787 3.63505C17.3037 3.63505 20.9661 7.29737 20.9661 11.8139C20.9661 16.3305 17.3037 19.9928 12.787 19.9928Z" fill="white"/>
</svg>
