<svg width="31" height="31" viewBox="0 0 31 31" fill="none" xmlns="http://www.w3.org/2000/svg">
<path d="M13.5207 17.2571L24.0278 6.75M13.5207 17.2571L16.8639 23.9435C16.9058 24.035 16.9731 24.1125 17.0577 24.1668C17.1424 24.2211 17.2409 24.25 17.3415 24.25C17.4421 24.25 17.5405 24.2211 17.6252 24.1668C17.7099 24.1125 17.7772 24.035 17.8191 23.9435L24.0278 6.75M13.5207 17.2571L6.83433 13.914C6.74287 13.8721 6.66538 13.8048 6.61105 13.7201C6.55671 13.6354 6.52783 13.537 6.52783 13.4364C6.52783 13.3358 6.55671 13.2373 6.61105 13.1526C6.66538 13.068 6.74287 13.0007 6.83433 12.9588L24.0278 6.75" stroke="white" stroke-width="2" stroke-linecap="round" stroke-linejoin="round"/>
</svg>
