<svg width="48" height="48" viewBox="0 0 48 48" fill="none" xmlns="http://www.w3.org/2000/svg">
<path d="M17.3417 16.17L22.4087 5.98136C22.5562 5.6865 22.7831 5.43849 23.0638 5.26516C23.3446 5.09182 23.6681 5 23.9982 5C24.3283 5 24.6519 5.09182 24.9327 5.26516C25.2134 5.43849 25.4403 5.6865 25.5878 5.98136L30.6548 16.17L41.9824 17.8136C42.3091 17.8588 42.6166 17.9949 42.8696 18.2062C43.1226 18.4175 43.311 18.6956 43.4133 19.0087C43.5156 19.3219 43.5276 19.6574 43.4481 19.977C43.3686 20.2967 43.2006 20.5875 42.9634 20.8164L34.7681 28.7422L36.7028 39.9396C36.9505 41.3768 35.4292 42.4712 34.1284 41.7935L23.9982 36.5045L13.8662 41.7935C12.5672 42.4731 11.046 41.3768 11.2937 39.9377L13.2284 28.7403L5.03305 20.8145C4.79703 20.5854 4.6301 20.2948 4.55124 19.9758C4.47238 19.6567 4.48475 19.322 4.58694 19.0096C4.68913 18.6972 4.87705 18.4197 5.12933 18.2086C5.38161 17.9975 5.68814 17.8613 6.01407 17.8155L17.3417 16.17Z" fill="#FFBF61" stroke="#FFBF61" stroke-width="1.5" stroke-linecap="round" stroke-linejoin="round"/>
</svg>
