<svg width="27" height="27" viewBox="0 0 27 27" fill="none" xmlns="http://www.w3.org/2000/svg">
<path d="M25.6616 14.3438L15.1875 3.86966C15.0314 3.71228 14.8455 3.5875 14.6407 3.50258C14.436 3.41767 14.2163 3.3743 13.9947 3.37501H4.21876C3.99498 3.37501 3.78037 3.4639 3.62214 3.62214C3.4639 3.78037 3.37501 3.99498 3.37501 4.21876V13.9947C3.3743 14.2163 3.41767 14.436 3.50258 14.6407C3.5875 14.8455 3.71228 15.0314 3.86966 15.1875L14.3438 25.6616C14.5005 25.8183 14.6865 25.9427 14.8913 26.0275C15.096 26.1123 15.3155 26.156 15.5371 26.156C15.7588 26.156 15.9782 26.1123 16.183 26.0275C16.3878 25.9427 16.5738 25.8183 16.7305 25.6616L25.6616 16.7305C25.8183 16.5738 25.9427 16.3878 26.0275 16.183C26.1123 15.9782 26.156 15.7588 26.156 15.5371C26.156 15.3155 26.1123 15.096 26.0275 14.8913C25.9427 14.6865 25.8183 14.5005 25.6616 14.3438ZM8.85938 10.125C8.60907 10.125 8.36437 10.0508 8.15624 9.91171C7.94811 9.77264 7.78589 9.57498 7.6901 9.34372C7.59431 9.11245 7.56924 8.85798 7.61808 8.61247C7.66691 8.36696 7.78745 8.14145 7.96445 7.96445C8.14145 7.78745 8.36696 7.66691 8.61247 7.61808C8.85798 7.56924 9.11245 7.59431 9.34372 7.6901C9.57498 7.78589 9.77264 7.94811 9.91171 8.15624C10.0508 8.36437 10.125 8.60907 10.125 8.85938C10.125 9.19505 9.99167 9.51696 9.75432 9.75432C9.51696 9.99167 9.19505 10.125 8.85938 10.125Z" fill="#19B9AA"/>
</svg>
