<svg width="36" height="36" viewBox="0 0 36 36" fill="none" xmlns="http://www.w3.org/2000/svg">
<g clip-path="url(#clip0_635_92)">
<path d="M19.3071 18.3393C20.1818 18.3393 20.9992 18.4229 21.7424 18.5815C21.4488 22.0662 19.6959 22.59 18.3491 22.6624C16.8862 22.7412 15.3633 22.0996 15.2884 20.7193C15.217 19.402 16.4756 18.4771 18.4954 18.3632C18.771 18.347 19.041 18.3393 19.3071 18.3393ZM36 18C36 27.9411 27.9411 36 18 36C8.05887 36 0 27.9411 0 18C0 8.05887 8.05887 0 18 0C27.9411 0 36 8.05887 36 18ZM8.74934 17.9989C8.77711 14.6064 9.53824 11.9552 11.0116 10.1197C12.5849 8.15977 15.004 7.1543 18.2036 7.13145C23.0495 7.1666 26.1218 9.3927 27.3354 13.7471L29.5787 13.1217C28.8619 10.5504 27.5636 8.52785 25.7186 7.10859C23.7558 5.59898 21.2302 4.82238 18.2113 4.80234H18.1958C14.2587 4.82906 11.2303 6.12773 9.19723 8.6625C7.38633 10.9185 6.45293 14.0562 6.42164 17.9905V18.0095C6.45293 21.9428 7.38633 25.0815 9.19723 27.3371C11.2314 29.8723 14.2587 31.1706 18.1969 31.1973H18.2046L18.2036 31.1962H18.2113C21.7121 31.1727 24.1798 30.2741 26.2118 28.2839C28.8724 25.6795 28.7919 22.4142 27.9155 20.4107C27.2862 18.9735 26.0873 17.8059 24.4477 17.035C24.3316 16.9808 24.2149 16.9288 24.095 16.8782C23.8869 13.1245 21.7948 10.9754 18.2805 10.9536H18.2331C16.1314 10.9536 14.3835 11.8336 13.3073 13.4336L15.2399 14.7329C16.0439 13.5369 17.3053 13.2824 18.2341 13.2824H18.2661C19.4231 13.2901 20.2968 13.6188 20.8614 14.2622C21.272 14.7301 21.5476 15.3773 21.6837 16.194C20.6578 16.0228 19.5486 15.9704 18.3625 16.0369C16.753 16.1272 15.3911 16.6187 14.4221 17.4561C13.4089 18.3326 12.89 19.536 12.9614 20.8448C13.0345 22.191 13.719 23.3487 14.888 24.1052C15.8766 24.7451 17.1503 25.0576 18.4725 24.9862C20.2198 24.8924 21.6 24.2297 22.5731 23.0179C23.3033 22.1101 23.7758 20.905 23.9857 19.42C24.8214 19.9125 25.4412 20.5625 25.7822 21.343C26.3623 22.667 26.3953 24.8439 24.5837 26.6186C22.9964 28.1735 21.0874 28.8457 18.2036 28.8664C15.004 28.8436 12.5849 27.8381 11.0116 25.8782C9.5393 24.0434 8.77781 21.3922 8.74934 17.9989Z" fill="white"/>
</g>
<defs>
<clipPath id="clip0_635_92">
<rect width="36" height="36" fill="white"/>
</clipPath>
</defs>
</svg>
