<svg width="35" height="35" viewBox="0 0 35 35" fill="none" xmlns="http://www.w3.org/2000/svg">
<g clip-path="url(#clip0_75_4)">
<path fill-rule="evenodd" clip-rule="evenodd" d="M12.7848 6.04133C13.0918 5.86416 13.4531 5.80581 13.8002 5.87734C14.1474 5.94888 14.4562 6.14533 14.6681 6.42943L14.7615 6.57098C14.9463 6.89018 15.2459 7.12679 15.5993 7.23245C15.9527 7.33812 16.333 7.30486 16.6627 7.13949C16.9924 6.97412 17.2464 6.6891 17.373 6.34268C17.4996 5.99627 17.4891 5.61459 17.3437 5.27564L17.2678 5.12395C17.0759 4.79159 17.0239 4.39662 17.1233 4.02592C17.2226 3.65522 17.4651 3.33916 17.7975 3.14727L20.3038 1.70024C21.3009 1.12458 22.4858 0.968579 23.5979 1.26656C24.71 1.56455 25.6582 2.29211 26.2338 3.28919L33.469 15.8208C34.0447 16.8179 34.2007 18.0028 33.9027 19.1149C33.6047 20.227 32.8771 21.1752 31.88 21.7509L29.3737 23.1979C29.0668 23.3751 28.7054 23.4334 28.3583 23.3619C28.0112 23.2904 27.7024 23.0939 27.4905 22.8098L27.397 22.6683C27.2123 22.3491 26.9126 22.1125 26.5592 22.0068C26.2059 21.9011 25.8255 21.9344 25.4958 22.0998C25.1662 22.2651 24.9121 22.5501 24.7855 22.8966C24.659 23.243 24.6694 23.6247 24.8148 23.9636L24.8907 24.1153C25.0826 24.4477 25.1346 24.8426 25.0353 25.2133C24.9359 25.584 24.6934 25.9001 24.3611 26.092L14.3357 31.8801C13.3387 32.4558 12.1537 32.6118 11.0416 32.3138C9.92954 32.0158 8.98136 31.2882 8.4057 30.2911L1.17055 17.7595C0.594881 16.7624 0.438883 15.5775 0.736869 14.4654C1.03485 13.3533 1.76242 12.4051 2.7595 11.8295L12.7848 6.04133ZM21.8028 15.8728C21.4704 16.0647 21.2279 16.3807 21.1286 16.7514C21.0292 17.1221 21.0812 17.5171 21.2731 17.8495L21.9966 19.1026C22.1885 19.435 22.5046 19.6775 22.8753 19.7768C23.246 19.8762 23.641 19.8242 23.9733 19.6323C24.3057 19.4404 24.5482 19.1243 24.6475 18.7536C24.7469 18.3829 24.6949 17.988 24.503 17.6556L23.7795 16.4024C23.5876 16.0701 23.2715 15.8276 22.9008 15.7282C22.5301 15.6289 22.1351 15.6809 21.8028 15.8728ZM18.1852 9.60696C17.8783 9.78422 17.6471 10.0679 17.5355 10.4043C17.4239 10.7407 17.4396 11.1064 17.5797 11.432L17.6556 11.5836L18.3791 12.8368C18.5638 13.156 18.8635 13.3926 19.2169 13.4983C19.5702 13.6039 19.9506 13.5707 20.2803 13.4053C20.6099 13.2399 20.864 12.9549 20.9906 12.6085C21.1172 12.2621 21.1067 11.8804 20.9613 11.5415L20.8854 11.3898L20.1619 10.1366C19.97 9.80425 19.6539 9.56173 19.2832 9.4624C18.9125 9.36308 18.5176 9.41507 18.1852 9.60696Z" fill="white"/>
</g>
<defs>
<clipPath id="clip0_75_4">
<rect width="35" height="35" fill="white"/>
</clipPath>
</defs>
</svg>
